<svg width="60" height="28" viewBox="0 0 60 28" fill="none" xmlns="http://www.w3.org/2000/svg">
<path d="M30.5699 16.8602C32.4041 18.6667 34.2383 20.4731 36.0725 22.2796C34.2383 24.086 32.4041 25.8925 30.5699 27.6989C30.5699 26.4946 30.5699 25.2903 30.5699 23.7849H30.2642C28.1244 23.7849 26.2902 23.7849 24.1503 23.4839C18.9534 23.7849 14.0622 22.8817 9.47668 21.6774C7.03109 21.0753 4.89119 20.172 3.05699 18.9677C2.1399 18.3656 1.5285 18.0645 0.917098 17.1613C-0.3057 15.6559 -0.3057 14.1505 0.917098 12.6452C1.8342 11.7419 2.7513 10.8387 3.97409 10.2366C6.11399 9.03226 8.55959 8.43011 11.0052 7.82796C11.3109 7.82796 11.3109 7.82796 11.6166 7.52688C11.6166 7.82796 11.6166 8.43011 11.6166 8.73118C11.6166 8.73118 11.3109 8.73118 11.3109 9.03226C10.3938 9.63441 9.17098 9.93548 7.94819 10.2366C6.72539 10.8387 5.50259 11.4409 4.58549 12.3441C3.97409 12.9462 3.66839 13.5484 3.66839 14.4516C3.66839 15.3548 4.27979 15.957 4.89119 16.2581C6.11399 17.1613 7.33679 17.7634 8.55959 18.3656C10.6995 18.9677 12.8394 19.5699 15.285 19.871C17.7306 20.172 19.8705 20.4731 22.3161 20.7742C24.1503 21.0753 26.2902 21.0753 28.4301 21.0753C29.0415 21.0753 29.6528 21.0753 30.5699 21.0753C30.5699 19.871 30.5699 18.3656 30.5699 16.8602Z" fill="#00A2D3"/>
<path d="M45.8549 8.12903C45.8549 9.33333 45.5492 10.8387 44.9378 12.3441C44.0207 14.4516 41.8808 15.3548 39.7409 15.0538C37.2953 14.7527 35.7668 13.5484 35.1554 11.4409C34.2383 9.03226 34.2383 6.62366 35.1554 4.21505C35.7668 2.70968 36.9896 1.2043 38.8238 0.903226C41.2694 0.301075 44.3264 1.2043 45.2435 4.51613C45.5492 5.72043 45.8549 6.62366 45.8549 8.12903ZM41.8808 7.82796C41.8808 7.52688 41.8808 6.92473 41.5751 6.32258C41.5751 5.72043 41.2694 5.11828 40.658 4.51613C40.3523 3.91398 39.7409 3.91398 39.1295 4.51613C38.8238 4.8172 38.8238 5.11828 38.5181 5.41935C37.9067 7.22581 37.9067 9.03226 38.5181 10.8387C38.5181 11.1398 38.8238 11.4409 39.1295 11.7419C39.4352 12.043 40.0466 12.043 40.3523 11.7419C40.658 11.4409 40.658 11.1398 40.9637 10.8387C41.8808 9.93548 41.8808 9.03226 41.8808 7.82796Z" fill="#00A2D3"/>
<path d="M26.9016 6.32258C27.8187 5.72043 28.7358 5.41935 29.9585 5.41935C32.0984 5.41935 33.9326 7.22581 33.9326 9.33333C34.2383 12.3441 32.0984 14.4516 29.0415 14.7527C27.513 15.0538 26.2902 14.7527 25.0674 13.5484C23.8446 12.6452 23.5389 11.4409 23.2332 10.2366C22.9275 8.12903 23.2332 6.02151 23.8446 4.21505C25.0674 1.50538 27.513 0.903226 29.6528 1.2043C30.8756 1.2043 31.7927 1.80645 32.7098 2.4086C32.7098 2.4086 33.0155 2.4086 33.0155 2.70968C33.0155 2.70968 33.0155 2.70968 33.3212 3.01075C33.0155 3.91398 32.4041 4.8172 32.0984 5.41935C31.7927 5.41935 31.7927 5.11828 31.487 5.11828C31.1813 4.21505 30.5699 4.21505 29.6528 3.91398C28.4301 3.91398 27.513 4.51613 26.9016 5.72043C26.9016 6.02151 26.9016 6.32258 26.9016 6.32258ZM30.2642 10.2366C30.2642 9.93548 30.2642 9.93548 30.2642 9.63441C29.9585 8.73118 29.3472 8.12903 28.4301 8.43011C27.8187 8.73118 27.2073 9.03226 26.9016 9.33333V9.63441C26.9016 10.2366 27.2073 10.5376 27.513 11.1398C27.8187 11.7419 28.4301 12.043 29.3472 11.7419C29.9586 11.4409 30.2642 10.8387 30.2642 10.2366Z" fill="#00A2D3"/>
<path d="M38.5181 23.7849C38.5181 22.8817 38.5181 21.9785 38.5181 20.7742C39.1295 20.7742 40.0466 20.4731 40.658 20.4731C44.0207 20.172 47.3834 19.2688 50.7461 18.0645C51.9689 17.4624 53.1917 17.1613 54.1088 16.2581C54.7202 15.6559 55.3316 15.0538 55.3316 14.4516C55.3316 13.5484 55.0259 12.9462 54.4145 12.3441C53.4974 11.4409 52.2746 10.8387 51.3575 10.2366C50.4404 9.93548 49.2176 9.33333 47.9948 9.03226C47.9948 8.73118 47.9948 8.12903 47.9948 7.82796C48.6062 8.12903 49.2176 8.12903 49.5233 8.43011C51.9689 9.03226 54.1088 9.93548 55.943 10.8387C57.1658 11.4409 58.0829 12.3441 58.6943 13.2473C59.3057 14.1505 59.3057 15.3548 58.6943 16.2581C58.0829 17.4624 57.1658 18.0645 55.943 18.6667C54.1088 20.172 51.9689 21.0753 50.1347 21.6774C47.0777 22.5806 44.3264 23.1828 41.2694 23.4839C40.3523 23.4839 39.4352 23.4839 38.5181 23.7849Z" fill="#00A2D3"/>
<path d="M20.7876 7.52688C21.399 7.82796 21.7047 8.43011 22.0104 9.03226C22.9275 10.8387 22.3161 12.9462 20.4819 13.8495C18.342 15.3548 15.285 15.3548 12.8394 13.5484C12.8394 13.2473 12.5337 12.9462 12.228 12.9462C13.1451 12.043 13.7565 11.4409 14.3679 10.8387C14.6736 11.1398 14.9793 11.1398 14.9793 11.4409C15.8964 11.7419 16.5078 12.043 17.4249 12.043C18.342 11.7419 18.9534 10.8387 18.342 9.93548C18.342 9.33333 17.7306 9.03226 17.1192 9.03226C16.8135 9.03226 16.2021 9.03226 15.5907 9.03226C15.5907 8.12903 15.5907 7.52688 15.5907 6.62366C16.2021 6.62366 16.5078 6.62366 17.1192 6.62366C17.4249 6.62366 17.7306 6.62366 17.7306 6.62366C18.342 6.32258 18.6477 6.0215 18.6477 5.41935C18.6477 4.8172 18.342 4.21505 18.0363 3.91398C17.4249 3.6129 16.5078 3.6129 15.8964 3.91398C15.285 4.51613 14.9793 4.8172 14.6736 5.11828C14.0622 4.21505 13.4508 3.6129 12.8394 2.70968C13.4508 2.4086 13.7565 2.10753 14.3679 1.80645C16.5078 0.602151 18.342 0.602151 20.4819 1.80645C22.3161 2.70968 22.6218 4.8172 22.0104 6.02151C21.7047 6.62366 21.399 6.92473 20.7876 7.52688Z" fill="#00A2D3"/>
<path d="M46.1606 2.4086C46.1606 0.903226 47.3834 0 48.6062 0C50.1347 0 51.0518 1.2043 51.0518 2.4086C51.0518 3.91398 49.829 4.8172 48.6062 4.8172C47.3834 5.11828 46.1606 3.91398 46.1606 2.4086ZM48.6062 3.91398C49.2176 3.91398 49.829 3.31183 49.829 2.70968C49.829 2.10753 49.2176 1.50538 48.6062 1.50538C47.9948 1.50538 47.3834 2.10753 47.3834 2.70968C47.3834 3.31183 47.9948 3.91398 48.6062 3.91398Z" fill="#00A2D3"/>
</svg>
