<svg xmlns="http://www.w3.org/2000/svg" viewBox="0 0 73 57.4" style="enable-background:new 0 0 73 57.4;transform:rotate(180deg)" fill="#001417" xml:space="preserve"><path d="M13.9 24.6H68.6c2.7 0 4.5 1.8 4.4 4.3-.1 2.2-1.9 3.9-4.2 3.9H13.9c.5.6 1 1 1.5 1.5 5.2 5.3 10.4 10.6 15.7 15.8 2.3 2.3 1.5 5.8-1.1 6.9-1.5.6-3 .4-4.2-.7-1.4-1.3-2.8-2.7-4.1-4.1C15 45.6 8.5 38.9 1.9 32.3l-.7-.7c-1.6-1.7-1.6-4.1 0-5.8 2.5-2.5 5-5 7.4-7.5 5.4-5.5 10.9-11 16.3-16.5C25.9.8 27 0 28.5.1c1.7.1 2.9.9 3.6 2.4.7 1.6.5 3.2-.8 4.5-1.8 1.9-3.7 3.7-5.5 5.6-3.9 3.9-7.7 7.8-11.6 11.7l-.3.3z"/></svg>