<svg xmlns="http://www.w3.org/2000/svg" viewBox="0 0 157.2 149.2" style="enable-background:new 0 0 157.2 149.2;width:25px" xml:space="preserve" fill="#0099b9"><path d="M132.9 29.7 124.2 3 87.5 14.9l4.8 14.8c-.5.1-.7-.2-.9-.8-2.2-6.8-4.5-13.8-6.8-20.4l-1.1-3.4c-.1-.4-.3-.7-.4-1.1-.1-.2-.1-.3-.2-.5l-.3-.5-36.7 11.9 4.8 14.7H33.1c-.2 0-.6-.4-.6-.7-.7-2.6-1.3-5.2-2-7.8-.6-2.2-1.1-4.4-1.7-6.6-1.6-6-5-10.3-10.2-12.8C14.6-.1 10.3 0 6.1.1 4.3.1 2.4.2.6.1L0 0v7.8h11.4c4.3 0 8.1 2.6 9.5 6.5.6 1.7 1.1 3.6 1.6 5.3L28 41c3.6 14 7.2 28.1 10.8 42.1.2.9.1 1.4-.6 2-4 3.6-5.7 8.1-4.9 13.1 1.3 8.2 7.4 13.2 15.9 13.2h89.1v-7.7H48c-3.1-.2-5.4-1.8-6.6-4.5-1.2-2.7-.8-5.2 1-7.6 1.6-2 3.7-2.9 7-2.9H138.6c1.4 0 2.1-.5 2.4-1.9 2.9-10.6 5.9-21.2 8.9-31.7l7.1-25.6h-24.1zM77.8 12.5l5.6 16.8H59.6c-.9 0-1.2-.2-1.5-1-.7-2.1-1.4-4.1-2.2-6.3-.3-.7-.5-1.4-.8-2.2l22.7-7.3zm41.5 0 5.6 16.8h-23.8c-.9 0-1.2-.2-1.4-1-.7-2.1-1.4-4.2-2.2-6.4-.3-.7-.5-1.4-.8-2.1l22.6-7.3zm27.8 24.6-.4 1.3c-.4 1.4-.8 2.8-1.1 4.2L143 52c-2.5 9.1-5.2 18.5-7.7 27.7-.3 1.2-.7 1.4-2 1.5H45.9L34.6 37.1h112.5zM117.8 123.6c-3.2-2.6-7.3-3.7-11.5-3-7.2 1.1-12.6 7.9-11.9 15.2.1 3.7 2 7.5 5.1 10.1 2.6 2.2 5.8 3.3 9.2 3.3.8 0 1.7-.1 2.5-.2 7.3-1.2 12.3-7.5 11.9-14.9-.2-4.1-2.1-7.9-5.3-10.5zm-2 11.2c0 3.8-3.2 7.1-7 7.1-3.9 0-7.2-3.1-7.3-7 0-1.8.7-3.6 2.1-5 1.4-1.4 3.2-2.2 5-2.2h.1c1.9 0 3.7.7 5 2 1.3 1.3 2.1 3.1 2.1 5.1zM57.7 120.3h-.2c-7.9 0-14.2 6.2-14.3 14.3-.1 8 6.2 14.4 14.2 14.6h.2c7.8 0 14-6.1 14.3-14 .1-3.9-1.3-7.6-4-10.5-2.6-2.7-6.3-4.3-10.2-4.4zm4.8 19.5c-1.3 1.3-3.1 2.1-5 2.1-3.9 0-7.1-3.2-7.2-7.1 0-1.7.7-3.5 2.1-4.9 1.4-1.4 3.3-2.3 5.1-2.3h.1c1.8 0 3.5.7 4.8 2 1.4 1.3 2.1 3.2 2.2 5 0 2-.7 3.8-2.1 5.2z"/></svg>