<svg width="21" height="18" viewBox="0 0 21 18" fill="none" xmlns="http://www.w3.org/2000/svg">
<path d="M7.875 9.97927C5.63889 9.97927 3.40278 9.97927 1.16667 9.97927C0.486111 9.97927 0 9.60622 0 9.04663C0 8.48705 0.388889 8.02073 0.972222 8.02073C1.65278 8.02073 2.43056 8.02073 3.11111 8.02073C6.90278 8.02073 10.6944 8.02073 14.4861 8.02073C14.6806 8.02073 14.7778 8.02073 14.875 7.8342C15.5556 6.43523 17.1111 5.68912 18.6667 6.15544C20.125 6.62176 21.0972 8.11399 20.8056 9.51295C20.5139 11.0984 19.1528 12.1244 17.5 12.0311C16.2361 11.9378 15.3611 11.3782 14.875 10.2591C14.7778 10.0725 14.6806 10.0725 14.4861 10.0725C12.3472 9.97927 10.1111 9.97927 7.875 9.97927ZM17.7917 9.97927C18.375 9.97927 18.8611 9.51295 18.8611 8.95337C18.8611 8.39378 18.375 7.92746 17.7917 7.92746C17.2083 7.92746 16.7222 8.39378 16.7222 8.95337C16.7222 9.60622 17.2083 9.97927 17.7917 9.97927Z" fill="#00A2D3"/>
<path d="M14.0972 4.01036C12.1528 4.01036 10.3056 4.01036 8.36111 4.01036C8.16667 4.01036 8.06944 4.01036 7.97222 4.19689C7.48611 5.31606 6.51389 5.96891 5.25 5.96891C3.88889 5.96891 2.91667 5.31606 2.33333 4.19689C2.33333 4.01036 2.23611 4.01036 2.04167 4.01036C1.75 4.01036 1.36111 4.01036 1.06944 4.01036C0.486111 4.01036 0.0972222 3.54404 0.0972222 2.98446C0.0972222 2.42487 0.486111 1.95855 1.06944 1.95855C1.45833 1.95855 1.75 1.95855 2.13889 1.95855C2.23611 1.95855 2.33333 1.95855 2.43056 1.77202C2.91667 0.65285 3.88889 0 5.25 0C6.61111 0 7.58333 0.65285 8.16667 1.77202C8.26389 1.95855 8.36111 1.95855 8.45833 1.95855C12.25 1.95855 15.9444 1.95855 19.7361 1.95855C19.9306 1.95855 20.0278 1.95855 20.2222 1.95855C20.7083 2.05181 21 2.6114 21 3.07772C20.9028 3.54404 20.5139 3.9171 19.9306 3.9171C18.2778 3.9171 16.7222 3.9171 15.0694 3.9171C14.6806 4.01036 14.3889 4.01036 14.0972 4.01036ZM5.25 4.01036C5.83333 4.01036 6.31944 3.54404 6.31944 2.98446C6.31944 2.42487 5.83333 1.95855 5.25 1.95855C4.66667 1.95855 4.18056 2.42487 4.18056 2.98446C4.18056 3.54404 4.66667 4.01036 5.25 4.01036Z" fill="#00A2D3"/>
<path d="M16.2361 16.0415C15.0694 16.0415 13.8056 16.0415 12.6389 16.0415C12.4444 16.0415 12.3472 16.1347 12.3472 16.228C11.7639 17.3472 10.7917 18 9.43056 18C8.06944 18 7.19444 17.3472 6.61111 16.228C6.51389 16.0415 6.41667 16.0415 6.31944 16.0415C4.56944 16.0415 2.91667 16.0415 1.16667 16.0415C0.486111 16.0415 0.0972222 15.6684 0.0972222 15.1088C0.0972222 14.5492 0.486111 14.0829 1.16667 14.0829C2.43056 14.0829 3.59722 14.0829 4.86111 14.0829C5.34722 14.0829 5.83333 14.0829 6.31944 14.0829C6.51389 14.0829 6.51389 14.0829 6.61111 13.8964C7.19444 12.7772 8.16667 12.1244 9.43056 12.1244C10.7917 12.1244 11.7639 12.7772 12.3472 13.8964C12.3472 13.9896 12.4444 13.9896 12.6389 13.9896C14.9722 13.9896 17.4028 13.9896 19.7361 13.9896C19.9306 13.9896 20.0278 13.9896 20.2222 13.9896C20.7083 14.0829 21 14.5492 21 15.1088C20.9028 15.5751 20.5139 15.9482 20.0278 15.9482C18.6667 16.0415 17.5 16.0415 16.2361 16.0415ZM9.43056 16.0415C10.0139 16.0415 10.5 15.5751 10.5 15.0155C10.5 14.456 10.0139 13.9896 9.43056 13.9896C8.84722 13.9896 8.36111 14.456 8.36111 15.0155C8.36111 15.5751 8.84722 16.0415 9.43056 16.0415Z" fill="#00A2D3"/>
</svg>
