<svg xmlns="http://www.w3.org/2000/svg" viewBox="0 0 29.7 29.7" style="enable-background:new 0 0 29.7 29.7" xml:space="preserve" fill="#0099b9"><path d="M13.8 0h.7c0 1.2-.1 2.4-.1 3.6-.1 1.6-.2 3.3-.7 4.8-.7 2.5-2.3 4.2-4.7 5.1-1.5.5-3 .8-4.6.8-1.4.2-2.9.2-4.4.2v-.7c.1-.5.1-1 .2-1.5C.7 9.4 2 6.9 4 4.7 6.3 2.3 9 .8 12.3.2c.5-.1 1-.1 1.5-.2zM0 15.4l5.7.3c1.5.1 3 .5 4.4 1.2 2 1.1 3.2 2.8 3.7 4.9.4 1.5.6 3 .6 4.6.1 1.1.1 2.2.1 3.3h-.7c-.5-.1-1-.1-1.5-.2-3.4-.6-6.3-2.2-8.6-4.7C1.8 22.7.6 20.2.1 17.4c-.1-.5-.2-1-.2-1.6.1-.1.1-.3.1-.4zM29.7 14.5c-1.4-.1-2.8-.1-4.2-.2-1.3-.1-2.6-.3-3.9-.6-2.9-.8-4.7-2.7-5.4-5.5-.4-1.5-.6-3-.6-4.5-.1-1.2-.1-2.5-.1-3.7h.4c.5.1 1 .1 1.5.2C20.2.7 22.8 2 24.9 4c2.4 2.3 3.9 5 4.5 8.3.1.5.2 1.1.2 1.6.1.2.1.4.1.6zM15.4 29.7c.1-1.4.1-2.8.2-4.2.1-1.4.3-2.8.7-4.2.8-2.6 2.6-4.3 5.3-5.1 1.5-.4 3.1-.6 4.7-.7 1.1-.1 2.3-.1 3.4-.1v.4c-.1.5-.1 1-.2 1.5-.5 2.9-1.8 5.5-3.8 7.6-2.3 2.4-5 3.9-8.3 4.5-.5.1-1.1.2-1.6.2-.1.1-.3.1-.4.1z"/></svg>