<svg width="22" height="22" viewBox="0 0 22 22" fill="none" xmlns="http://www.w3.org/2000/svg">
<path d="M20.5422 22C14.1807 22 7.81928 22 1.45783 22C1.43133 22 1.40482 21.9735 1.40482 21.9735C0.715663 21.841 0.26506 21.4434 0.0530121 20.7542C0.026506 20.6747 0.026506 20.5952 0 20.5157C0 14.1542 0 7.79277 0 1.43133C0 1.40482 0.026506 1.40482 0.026506 1.37831C0.13253 0.768675 0.450602 0.344578 1.00723 0.106024C1.13976 0.0795181 1.2988 0.0530121 1.45783 0C7.81928 0 14.1807 0 20.5422 0C20.5687 0 20.5952 0.026506 20.5952 0.026506C21.2843 0.159036 21.7349 0.583133 21.947 1.24578C21.9735 1.3253 21.9735 1.37831 22 1.45783C22 7.81928 22 14.1807 22 20.5422C22 20.5687 21.9735 20.5952 21.9735 20.5952C21.841 21.2843 21.4169 21.7349 20.7542 21.947C20.6747 21.9735 20.6217 21.9735 20.5422 22ZM20.5687 16.0361C20.5952 16.0361 20.5952 16.0096 20.6217 16.0096C20.6217 15.9831 20.6217 15.9566 20.6217 15.9036C20.6217 11.1855 20.6217 6.44096 20.6217 1.72289C20.6217 1.48434 20.5157 1.37831 20.2771 1.37831C14.1012 1.37831 7.8988 1.37831 1.72289 1.37831C1.48434 1.37831 1.37831 1.48434 1.37831 1.72289C1.37831 6.25542 1.37831 10.8145 1.37831 15.347C1.37831 15.3735 1.37831 15.4 1.37831 15.453C1.40482 15.4 1.43133 15.3735 1.45783 15.347C2.88916 13.2795 4.32048 11.2386 5.75181 9.17108C6.1494 8.58795 6.54699 8.00482 6.94458 7.44819C7.13012 7.18313 7.39518 7.07711 7.68675 7.15663C7.8988 7.20964 8.03133 7.34217 8.13735 7.52771C9.38313 9.56868 10.6289 11.6096 11.9012 13.6241C11.9277 13.6771 11.9542 13.7036 11.9807 13.7566C12.0337 13.7301 12.0602 13.7036 12.0867 13.6771C13.094 12.9349 14.1012 12.1928 15.0819 11.4506C15.4265 11.1855 15.7711 11.212 16.0627 11.5301C17.2024 12.6434 18.3157 13.7566 19.4554 14.8699C19.853 15.241 20.1976 15.6386 20.5687 16.0361ZM15.506 12.8289C15.453 12.8554 15.4265 12.8819 15.4265 12.8819C14.3663 13.6771 13.3325 14.4458 12.2723 15.241C12.1928 15.294 12.1133 15.347 12.0337 15.3735C11.7157 15.4795 11.3976 15.347 11.212 15.0289C10.0458 13.147 8.90602 11.2651 7.73976 9.38313C7.66024 9.27711 7.60723 9.14458 7.52771 9.03855C7.5012 9.06506 7.4747 9.09157 7.44819 9.11807C5.43374 12.0337 3.41928 14.8964 1.43133 17.7855C1.40482 17.8386 1.37831 17.8916 1.37831 17.9711C1.37831 18.7398 1.37831 19.5084 1.37831 20.3036C1.37831 20.5422 1.48434 20.6482 1.72289 20.6482C7.8988 20.6482 14.1012 20.6482 20.2771 20.6482C20.5157 20.6482 20.6217 20.5422 20.6217 20.3036C20.6217 19.5614 20.6217 18.8193 20.6217 18.0771C20.6217 17.9976 20.5952 17.9446 20.5422 17.8916C19.1374 16.5133 17.7325 15.1084 16.3277 13.7301C16.0627 13.412 15.7976 13.1205 15.506 12.8289Z" fill="#00A2D3"/>
<path d="M14.3663 3.31325C16.1687 3.31325 17.6265 4.77108 17.6265 6.57349C17.6265 8.3759 16.1687 9.83374 14.3663 9.80723C12.5639 9.80723 11.1326 8.3494 11.1326 6.54699C11.1061 4.77109 12.5639 3.31325 14.3663 3.31325ZM12.4579 6.57349C12.4579 7.60723 13.3061 8.45542 14.3398 8.45542C15.3735 8.45542 16.2217 7.60723 16.2217 6.57349C16.2217 5.53976 15.3735 4.69157 14.3398 4.69157C13.3061 4.69157 12.4579 5.53976 12.4579 6.57349Z" fill="#00A2D3"/>
</svg>
