<svg width="25" height="23" viewBox="0 0 25 23" fill="none" xmlns="http://www.w3.org/2000/svg">
<path d="M24.6923 12.0436C20.8714 8.43184 17.0506 4.83142 13.2297 1.21965C13.0735 1.072 12.8813 0.91299 12.6049 0.856201H12.4367H12.3887C12.1363 0.901632 11.9441 1.06064 11.7759 1.20829C9.30074 3.55935 6.81358 5.91041 4.32642 8.26147L2.09158 10.3627C1.49082 10.9305 0.878038 11.5098 0.277275 12.0777C0.03697 12.3048 -0.0471368 12.5547 0.0249548 12.8387C0.0970464 13.134 0.301306 13.3384 0.601687 13.4179C0.902069 13.4974 1.19044 13.4179 1.41873 13.2021C1.91135 12.7364 2.41599 12.2594 2.90862 11.7937V12.532C2.90862 15.1329 2.90862 17.7339 2.90862 20.3348C2.90862 20.4597 2.90862 20.5847 2.93265 20.7096C3.12489 21.9476 4.19425 22.8108 5.52794 22.8221C6.10468 22.8221 6.69342 22.8221 7.28217 22.8221C7.79883 22.8221 8.31549 22.8221 8.82013 22.8221H9.48097C10.0697 22.8221 10.4061 22.5041 10.4061 21.9362V17.3023H11.7038C12.9293 17.3023 14.1429 17.3023 15.3684 17.3023C15.6087 17.3023 15.825 17.2228 15.9932 17.0865C16.1615 16.9388 16.2456 16.7457 16.2456 16.5186C16.2456 16.0756 15.8731 15.7462 15.3805 15.7462C13.47 15.7462 11.5476 15.7462 9.63716 15.7462C9.12051 15.7462 8.77207 16.0756 8.77207 16.5754C8.77207 18.1427 8.77207 19.6987 8.77207 21.2661H7.87092C7.10194 21.2661 6.33297 21.2661 5.56399 21.2661C4.97524 21.2661 4.57874 20.8913 4.57874 20.3461C4.57874 16.6776 4.57874 13.3838 4.57874 10.2604C4.57874 10.2491 4.59075 10.2377 4.59075 10.2264C7.10194 7.84123 9.61313 5.4561 12.1363 3.08233L12.4968 2.74159L22.6737 12.3503C22.9861 12.6456 23.2865 12.9295 23.5989 13.2248C23.8272 13.4293 24.1156 13.4974 24.4159 13.4179C24.7163 13.327 24.9206 13.1226 24.9807 12.8273C25.0768 12.4071 24.7884 12.1345 24.6923 12.0436Z" fill="#00A2D3"/>
<path d="M22.085 16.3142C22.085 15.6441 22.085 14.9853 22.085 14.3152C22.085 13.9177 21.7726 13.5883 21.3761 13.5429C20.9555 13.4975 20.5831 13.736 20.4749 14.0994C20.4509 14.2016 20.4389 14.3039 20.4389 14.3947C20.4389 15.0648 20.4389 15.7463 20.4389 16.4164V17.8929C20.4389 18.6993 20.4389 19.5057 20.4389 20.3121C20.4389 20.8687 20.0424 21.2435 19.4536 21.2435C19.1893 21.2435 18.925 21.2435 18.6606 21.2435H17.4591C16.7742 21.2435 16.0894 21.2435 15.4165 21.2435C14.9719 21.2435 14.6235 21.5615 14.5995 21.9931C14.5875 22.402 14.8878 22.7427 15.3204 22.7995C15.4045 22.8108 15.4766 22.8108 15.5367 22.8108H15.825C16.3297 22.8108 16.8343 22.8108 17.3389 22.8108C18.0238 22.8108 18.7087 22.8108 19.4056 22.8108C19.5377 22.8108 19.706 22.8108 19.8742 22.7768C21.1598 22.5837 22.0609 21.5842 22.073 20.3462C22.073 19.6761 22.073 19.0173 22.073 18.3472V17.4159L22.085 16.3142Z" fill="#00A2D3"/>
</svg>
