<svg width="10" height="21" viewBox="0 0 10 21" fill="none" xmlns="http://www.w3.org/2000/svg">
<path d="M0.752377 9.73526C0.618649 9.46781 0.484921 9.20035 0.351193 8.99976C0.351193 8.9329 0.351193 8.86603 0.351193 8.86603C1.48788 7.72935 2.82516 6.86012 4.42989 6.59266C5.09853 6.45893 5.76717 6.5258 6.36894 6.79325C7.50563 7.19444 8.1074 8.13053 7.90681 9.40094C7.83995 10.0696 7.57249 10.6714 7.30504 11.2731C6.70326 12.8779 6.10149 14.4826 5.49971 16.1542C5.43285 16.4217 5.36598 16.6891 5.29912 16.9566C5.23226 17.4915 5.56658 17.6921 6.03462 17.4246C6.43581 17.224 6.77012 16.8897 7.17131 16.6222C7.43876 16.4216 7.70622 16.1542 8.04054 15.8867C8.17427 16.1542 8.30799 16.4216 8.44172 16.6222C8.44172 16.6891 8.44172 16.756 8.37486 16.756C7.17131 17.9595 5.90089 19.0962 4.36303 19.8317C3.56066 20.2329 2.62456 20.3666 1.75533 20.2329C0.551785 19.9654 -0.116854 19.0962 0.0168741 17.8927C0.150602 16.9566 0.418057 16.0873 0.752377 15.1512C1.42102 13.3459 2.15652 11.6075 2.89202 9.86899C2.95888 9.6684 3.09261 9.40094 3.09261 9.20035C3.15948 8.73231 2.89202 8.46485 2.49084 8.59858C2.29025 8.66544 2.02279 8.73231 1.88906 8.86603C1.62161 9.06663 1.22042 9.40094 0.752377 9.73526Z" fill="#00A2D3"/>
<path d="M7.23821 4.78732C5.43288 4.78732 4.36306 3.04886 5.16543 1.51099C5.56661 0.708628 6.30211 0.240581 7.17134 0.0399897C7.63939 -0.0268742 8.04057 -0.0268742 8.50862 0.173717C9.8459 0.641765 10.3808 2.04591 9.71217 3.31632C9.24412 4.25241 8.30803 4.78732 7.23821 4.78732Z" fill="#00A2D3"/>
</svg>
