<svg xmlns="http://www.w3.org/2000/svg" viewBox="0 0 33.8 33.9" style="enable-background:new 0 0 33.8 33.9" xml:space="preserve" fill="#0099b9"><path d="M16.9 0c4.6 0 5.2 0 7 .1 1.8.1 3 .4 4.1.8 1.1.4 2.1 1 3 1.9.9.9 1.5 1.9 1.9 3 .4 1.1.7 2.3.8 4.1.1 1.8.1 2.4.1 7s0 5.2-.1 7c-.1 1.8-.4 3-.8 4.1-.4 1.1-1 2.1-1.9 3-.9.9-1.9 1.5-3 1.9-1.1.4-2.3.7-4.1.8-1.8.1-2.4.1-7 .1s-5.2 0-7-.1c-1.8-.1-3-.4-4.1-.8-1.1-.4-2.1-1-3-1.9-.9-.9-1.5-1.9-1.9-3-.4-1.1-.7-2.3-.8-4.1-.1-1.8-.1-2.4-.1-7s0-5.2.1-7c.1-1.8.4-3 .8-4.1.4-1.1 1-2.1 1.9-3 .9-.9 1.9-1.5 3-1.9C6.9.5 8.1.2 9.9.1c1.8-.1 2.4-.1 7-.1zm6.8 3.1c-1.8 0-2.3-.1-6.8-.1s-5 0-6.8.1c-1.7.1-2.6.4-3.2.6C6.1 4 5.6 4.4 5 5c-.6.6-1 1.1-1.3 1.9-.2.6-.5 1.5-.6 3.1 0 1.8-.1 2.4-.1 6.9s0 5 .1 6.8c.1 1.6.4 2.5.6 3.1.3.8.7 1.4 1.3 2 .6.6 1.2 1 1.9 1.3.6.2 1.5.5 3.1.6 1.8.1 2.3.1 6.8.1s5 0 6.8-.1c1.6-.1 2.5-.4 3.1-.6.8-.3 1.4-.7 1.9-1.3.6-.6 1-1.2 1.3-1.9.2-.6.5-1.5.6-3.1.1-1.8.1-2.3.1-6.8s0-5-.1-6.8c-.1-1.6-.4-2.5-.6-3.1-.3-.8-.7-1.4-1.3-1.9-.6-.6-1.2-1-1.9-1.3-.4-.4-1.3-.7-3-.8zm-6.8 19.4c3.1 0 5.6-2.5 5.6-5.6 0-3.1-2.5-5.6-5.6-5.6-3.1 0-5.6 2.5-5.6 5.6 0 3.1 2.5 5.6 5.6 5.6zm0-14.3c4.8 0 8.7 3.9 8.7 8.7 0 4.8-3.9 8.7-8.7 8.7-4.8 0-8.7-3.9-8.7-8.7 0-4.8 3.9-8.7 8.7-8.7zm11-.3c0 1.1-.9 2-2 2s-2-.9-2-2 .9-2 2-2c1.1-.1 2 .9 2 2z" style="fill-rule:evenodd;clip-rule:evenodd"/></svg>