<svg width="23" height="23" viewBox="0 0 23 23" fill="none" xmlns="http://www.w3.org/2000/svg">
<path d="M6.44476 23C3.59584 22.9821 1.23069 21.2799 0.352721 18.7714C-0.52525 16.245 0.263132 13.4319 2.41326 11.8014C5.58471 9.34665 8.79199 6.96359 11.9993 4.56261C13.5044 3.43379 15.0095 2.28705 16.5325 1.15823C18.6468 -0.400614 21.4957 0.423603 22.3916 2.82459C22.8933 4.16842 22.6245 5.42266 21.7645 6.55148C18.8439 10.4576 15.9053 14.3457 12.9848 18.2518C12.3755 19.076 11.7843 19.9002 11.1392 20.6886C9.88498 22.2116 8.23654 22.9642 6.44476 23ZM12.6085 16.675C14.8124 13.7186 16.9804 10.8338 19.1843 7.89532C17.9659 7.93115 16.9983 7.59071 16.21 6.80233C15.4037 5.99603 15.0632 5.01055 15.099 3.82798C12.1426 6.03187 9.27577 8.182 6.31934 10.3859C9.81331 10.4934 12.501 13.2527 12.6085 16.675ZM6.2835 21.1007C8.72032 21.1007 10.6913 19.1298 10.6913 16.6929C10.6913 14.274 8.72032 12.3031 6.31934 12.3031C3.88252 12.3031 1.89365 14.2561 1.89365 16.675C1.87573 19.1298 3.84669 21.1007 6.2835 21.1007ZM18.8797 2.25122C17.8405 2.25122 16.9804 3.07543 16.9804 4.11466C16.9625 5.1539 17.8226 6.01395 18.8618 6.01395C19.901 6.01395 20.7611 5.18973 20.7611 4.1505C20.7611 3.11127 19.9189 2.25122 18.8797 2.25122Z" fill="#00A2D3"/>
<path d="M8.80992 16.7288C8.792 18.1264 7.66318 19.2373 6.26559 19.2193C4.88593 19.2014 3.77502 18.0726 3.77502 16.7109C3.77502 15.3312 4.92176 14.1845 6.30143 14.2024C7.6811 14.2024 8.80992 15.3312 8.80992 16.7288ZM5.02927 16.7109C5.02927 17.4097 5.60264 17.983 6.30143 17.983C6.98231 17.983 7.53776 17.4097 7.55568 16.7288C7.55568 16.0479 7.00022 15.4745 6.31935 15.4745C5.60264 15.4387 5.02927 16.0121 5.02927 16.7109Z" fill="#00A2D3"/>
</svg>
