<svg width="25" height="25" viewBox="0 0 25 25" fill="none" xmlns="http://www.w3.org/2000/svg">
<path d="M0.00157748 11.5427C-0.0215907 10.1909 0.210091 8.88271 0.71979 7.61811C1.13682 6.57154 1.71602 5.59038 2.48057 4.71824C3.29145 3.75888 4.21818 2.97396 5.30708 2.29805C6.41915 1.60033 7.64706 1.09885 8.94448 0.793604C9.57002 0.640979 10.1956 0.531962 10.8443 0.488355C11.7942 0.401141 12.7209 0.422944 13.6708 0.531962C15.7096 0.793604 17.5399 1.55673 19.1385 2.75592C20.4127 3.71528 21.4321 4.91447 22.2198 6.24448C23.077 7.66171 23.6562 9.18796 23.9806 10.8014C24.1659 11.6518 24.305 12.5021 24.444 13.3524C24.5598 14.0283 24.6525 14.7261 24.7452 15.402C24.8378 16.1215 24.8842 16.8628 24.9537 17.6041C24.9768 18.0184 24.9768 18.4109 25 18.8251C25 18.9559 25 19.065 24.9768 19.1958C24.9768 19.2176 24.9537 19.2612 24.9305 19.283C24.861 19.3702 24.7683 19.4574 24.6756 19.5446C23.1002 21.0273 21.5248 22.5099 19.9493 24.0144C19.903 24.058 19.8567 24.0798 19.7872 24.058C16.451 22.7934 13.1611 21.5506 9.84804 20.3078C7.20687 19.3266 4.58887 18.3236 1.9477 17.3425C1.66968 17.2335 1.39167 17.1244 1.11365 17.0372C1.04414 17.0154 1.02098 16.9936 0.997808 16.9282C0.789294 16.1215 0.557613 15.3366 0.3491 14.5298C0.163754 13.8539 0.0710819 13.1562 0.0247456 12.4803C0.0247456 12.1532 0.0247456 11.848 0.00157748 11.5427ZM22.243 19.3702C21.9186 19.283 21.5943 19.1958 21.2931 19.1086C19.6018 18.6071 17.9801 17.9312 16.451 17.1244C14.5512 16.1433 12.7672 14.9877 11.0759 13.7013C11.0064 13.6577 10.9601 13.6577 10.8906 13.6795C10.3577 13.8539 9.8017 13.8975 9.24567 13.8103C8.31894 13.6577 7.55439 13.2434 6.99836 12.5457C6.37282 11.7826 6.11797 10.9322 6.28014 9.97289C6.41915 9.10075 6.88252 8.38123 7.6239 7.85795C8.38844 7.29105 9.24567 7.07302 10.1956 7.16023C10.8906 7.22564 11.5161 7.50909 12.049 7.92336C12.0953 7.94516 12.1417 7.96696 12.188 7.96696C15.1304 7.96696 18.0727 7.96696 21.0382 7.96696C21.0614 7.96696 21.0846 7.96696 21.1309 7.96696C21.1078 7.92336 21.1078 7.90155 21.0846 7.87975C20.5285 6.74597 19.7872 5.7212 18.8836 4.82726C18.1654 4.12954 17.3545 3.54085 16.4278 3.08297C15.2926 2.51608 14.0878 2.21083 12.8136 2.12362C11.9332 2.05821 11.0759 2.10182 10.2187 2.23264C9.33834 2.36346 8.48112 2.6251 7.64706 2.97396C6.34965 3.51904 5.21441 4.28217 4.26452 5.28513C3.22195 6.3535 2.50374 7.5963 2.08671 8.99173C1.83186 9.86387 1.73919 10.7578 1.76236 11.6518C1.78552 12.2623 1.83186 12.8728 1.9477 13.4833C2.08671 14.2246 2.29522 14.9441 2.50374 15.6636C2.50374 15.7072 2.55007 15.729 2.57324 15.7508C2.73542 15.8162 2.92076 15.8816 3.10611 15.9471C5.86312 16.9718 8.59696 18.0184 11.354 19.0432C13.9951 20.0461 16.6363 21.0273 19.2775 22.0302C19.347 22.052 19.3701 22.052 19.4396 22.0084C20.3432 21.1581 21.2468 20.286 22.1735 19.4356C22.1967 19.4138 22.2198 19.392 22.243 19.3702ZM23.1697 17.8658C23.1697 17.8222 23.1697 17.8222 23.1697 17.8004C23.1465 17.4951 23.1465 17.168 23.1002 16.8628C23.0539 16.3395 22.9844 15.838 22.938 15.3147C22.8685 14.8133 22.799 14.3118 22.7064 13.7885C22.5905 13.0908 22.4747 12.4149 22.3357 11.7172C22.2198 11.0631 22.0576 10.409 21.8491 9.75485C21.826 9.66764 21.7796 9.64583 21.687 9.64583C18.9068 9.64583 16.1266 9.64583 13.3233 9.64583C13.2769 9.64583 13.2538 9.64583 13.2074 9.64583C13.5549 10.7578 13.2306 11.739 12.4892 12.6111C12.4892 12.6111 12.4892 12.6329 12.5124 12.6329C12.6514 12.7419 12.8136 12.851 12.9526 12.96C14.3427 13.9411 15.7559 14.8133 17.2387 15.5982C18.6751 16.3395 20.1579 16.9936 21.7333 17.4733C22.1967 17.6041 22.6832 17.7349 23.1697 17.8658ZM9.8017 8.8173C8.80547 8.8173 8.01775 9.55862 8.01775 10.4744C8.01775 11.4337 8.80547 12.175 9.77853 12.175C10.7748 12.175 11.5856 11.4337 11.5856 10.518C11.5856 9.55862 10.8211 8.8173 9.8017 8.8173Z" fill="#00A2D3"/>
<path d="M11 10.8449C11 11.3605 10.5587 11.7779 9.98754 11.7779C9.44236 11.7779 8.97507 11.3359 9.00103 10.8203C9.00103 10.3047 9.46832 9.88733 10.0135 9.88733C10.5587 9.88733 11 10.3293 11 10.8449Z" fill="#00A2D3"/>
</svg>
