<svg xmlns="http://www.w3.org/2000/svg" viewBox="0 0 80.1 100.6" style="enable-background:new 0 0 80.1 100.6" xml:space="preserve" fill="#001417"><path d="M80.1 87.2c-.1-2.5-.2-5-.4-7.6-.2-2.7-.4-5.4-.6-8-.1-1.6-.3-3.3-.4-4.9-.1-1.3-.2-2.5-.3-3.8-.1-1.2-.2-2.4-.3-3.5-.1-1.3-.2-2.6-.3-4-.1-1.3-.2-2.5-.4-3.8l-.3-3.6c-.1-1.2-.2-2.5-.3-3.7l-.3-3.6c-.1-1.1-.2-2.1-.3-3.2l-.3-3c-.1-1-.2-2-.3-3.1-.1-1-.2-2-.3-3.1V28c-.2-2-.4-4.1-.6-6.1-.2-1.5-1.5-2.5-3.3-2.5-3.7 0-7.4-.1-11.1-.1h-.1v-.1c-.4-3.1-1-6.5-2.8-9.4-1-1.7-2.4-3.1-3.7-4.5-2.5-2.5-5.5-4.1-9.4-5-.7-.2-1.4-.2-2.1-.3-.3 0-.6-.1-1-.1h-2.3c-.4.1-.7.1-1.1.2-.8.1-1.7.2-2.5.5-5.7 1.5-9.9 4.8-12.6 9.9-1.3 2.4-2.1 5-2.4 8v.2l-.3.7H8.8c-1.2 0-2.2.5-3 1.4-.3.3-.3.7-.3 1.1v.2c-.2 2.2-.4 4.5-.6 6.7-.1.9-.2 1.9-.2 2.8-.1 1.1-.2 2.2-.3 3.4-.1 1.1-.2 2.1-.3 3.2l-.3 3c-.1.9-.2 1.8-.2 2.7-.1.8-.1 1.6-.2 2.4-.1.9-.2 1.9-.3 2.8L1 71.9l-.3 3.6-.1 1.3-.3 3.3-.1 1.5c-.1 2.5-.2 5-.2 7.6 0 2.3 1.3 4.1 2.4 5.5 2.3 2.8 5.3 4.6 9 5.5 1 .2 2 .3 2.9.3H61.6c.9 0 1.9 0 2.8-.1h1c1.1 0 2.1-.1 3.2-.3 2.2-.4 4.4-1.4 6.7-3.2 1.9-1.4 3.3-3.4 4.3-5.7.6-1.2.6-2.6.5-4zM25.9 19.4c.5-4.8 2.5-8.5 6.1-10.9 4.8-3.2 9.8-3.5 14.8-.7 5.2 2.9 7.1 8.5 7.2 11.7H25.9zM10.3 34.9c.1-1.4.2-2.7.4-4.1l.4-5.1h.3c.8 0 1.8-.1 2.8-.1H20V29c0 .7.1 1.4.1 2.2 0 .9.1 1.7.1 2.6 0 .8.3 1.5.9 2.1.6.5 1.3.9 2.1.8 1.6 0 2.8-1.3 2.8-3l.1-8h28.1v8.1c0 1 .5 1.9 1.3 2.4.9.6 2.1.7 3.2.2.7-.3 1.1-.9 1.2-1.7.1-1.1.3-2.1.3-3.1V25.7H69l.1 1.3c.1 1.3.2 2.7.4 4l.2 2.3c.1.9.2 1.9.3 2.8.1 1 .2 1.9.2 2.9l1.2 13.9c.1.9.2 1.9.3 2.8l.3 3 1.3 15 .3 3 .1.9c.1 1 .2 2 .2 3.1.1 2 .2 4.7.3 7.3 0 .5-.1 1.1-.3 1.8-.2.9-.9 1.5-1.6 2.2l-.3.1c-1 .9-2.2 1.5-3.6 2.1l-.6.3H12.5c-.2 0-.4-.1-.6-.2-1.2-.5-2.5-1.1-3.6-2-2.1-1.8-2.9-3.8-2.5-6.3.1-.9.2-1.9.3-2.8 0-.5.1-.9.1-1.3l4.1-47z"/><path d="M26.6 65.3c2.2 2.2 4 4.1 5.9 5.9.7.6 1.5 1.2 2.3 1.6.3.2.7.3 1 .3.5 0 1-.2 1.4-.6l.6-.6c.3-.2.5-.5.8-.7l1.8-1.8c3.6-3.6 7.3-7.2 10.9-10.8 1.1-1.1 2.1-2.2 2.9-3.2.9-1 .9-2.2.2-3.3-.5-.7-1.2-1.1-1.9-1.2-.8-.1-1.5.2-2.2.7l-.1.1c-.7.6-1.3 1.2-2 1.8-4.2 4.1-8.3 8.3-12.4 12.4l-.1.1c-.2-.3-.5-.5-.7-.8-1.6-1.5-3.2-3-4.8-4.6l-.2-.1c-.5-.5-1.2-1-2.4-.9-1 .1-1.8.7-2.3 1.6-.4.8-.4 1.8 0 2.5.5.6.9 1.2 1.3 1.6z"/></svg>