<svg width="32" height="19" viewBox="0 0 32 19" fill="none" xmlns="http://www.w3.org/2000/svg">
<path d="M20.3113 13.1025C20.2598 13.1025 20.1912 13.182 20.174 13.2296C20.1054 13.4204 20.054 13.627 19.9853 13.8336C19.8824 14.1674 19.6594 14.3422 19.282 14.3422C17.3092 14.3422 15.3365 14.3422 13.3637 14.3422C12.9863 14.3422 12.7633 14.1674 12.6604 13.8336C12.6089 13.627 12.5403 13.4363 12.4717 13.2296C12.4545 13.182 12.403 13.1025 12.3687 13.1025C11.957 13.0866 11.5453 13.1025 11.1165 13.1025C11.9399 15.5819 10.1558 18.0614 7.65124 18.57C5.30107 19.0468 2.89944 17.7753 2.1961 15.6455C1.85301 14.5647 1.90448 13.4998 2.43627 12.4985C3.17391 11.0999 4.40904 10.3052 6.07303 10.0509C5.95294 9.87605 5.83286 9.71711 5.72994 9.55818C5.66132 9.43103 5.55839 9.39924 5.404 9.39924C3.86009 9.39924 2.31619 9.39924 0.789433 9.39924C0.17187 9.39924 -0.102603 9.06547 0.0346335 8.50919C0.240488 7.7145 0.532115 6.96749 0.926669 6.23637C1.23545 5.6483 1.61285 5.10791 2.16179 4.66289C2.29903 4.55163 2.52204 4.47216 2.69358 4.45627C3.43123 4.44037 4.16887 4.45627 4.90652 4.47216C6.60482 4.51984 8.2688 4.66289 9.94995 4.93308C11.2365 5.1397 12.5231 5.34632 13.8097 5.60062C14.5302 5.74367 15.1821 5.6483 15.7825 5.26685C16.2628 4.96487 16.7431 4.64699 17.1892 4.31322C17.8925 3.78873 18.6644 3.40728 19.5565 3.28013C19.8996 3.23245 20.2598 3.21655 20.6372 3.18477C20.3627 2.851 20.0883 2.51723 19.831 2.18346C19.7109 2.04041 19.5908 1.97684 19.3849 1.97684C18.6988 1.99273 18.0297 1.99273 17.3435 1.97684C16.949 1.97684 16.6745 1.75432 16.6574 1.42055C16.6231 1.0391 16.8975 0.753015 17.3435 0.737122C18.2013 0.737122 19.0418 0.737122 19.8996 0.737122C20.2084 0.737122 20.4142 0.848378 20.6029 1.07089C21.1862 1.80201 21.7694 2.51723 22.3527 3.23245C22.4213 3.31192 22.4899 3.37549 22.5757 3.42317C23.4163 3.83641 24.171 4.3768 24.8572 4.99666C24.943 5.07613 25.0802 5.1397 25.2003 5.17149C26.6928 5.48937 28.1852 5.77545 29.6777 6.09333C30.6383 6.28405 31.3245 6.9357 31.4789 7.82575C31.6504 8.84295 31.8048 9.86016 31.9764 10.8774C32.0278 11.1793 31.9935 11.4495 31.8906 11.7356C31.719 12.1965 31.5475 12.6416 31.3931 13.1184C31.273 13.4839 31.0843 13.7541 30.6383 13.77C31.0672 16.3607 28.8199 18.7289 25.9894 18.6971C24.6685 18.6812 23.5535 18.2521 22.6443 17.362C21.4263 16.17 21.0832 14.7396 21.5293 13.1343C21.1175 13.1025 20.7058 13.1025 20.3113 13.1025ZM13.0206 10.9886C13.2951 11.6403 13.5181 12.2919 13.7583 12.9436C13.8097 13.0548 13.844 13.1025 13.9813 13.1025C15.5423 13.1025 17.1205 13.1025 18.6816 13.1025C18.8531 13.1025 18.8875 13.023 18.9218 12.8959C19.4021 11.3224 20.0368 9.81248 20.946 8.41382C21.615 7.36483 22.4384 6.44299 23.4677 5.68009C23.502 5.6642 23.5192 5.63241 23.5706 5.60062C23.0388 5.17149 22.4899 4.77414 21.8552 4.47216C21.838 4.47216 21.8209 4.45627 21.8209 4.45627C20.8259 4.42448 19.8138 4.32912 19.1105 5.18738C18.7159 5.68009 18.3385 6.1728 17.9783 6.6814C17.5666 7.23768 17.1892 7.80986 16.7431 8.33435C16.1427 9.04957 15.3365 9.44692 14.3072 9.39924C13.6382 9.36745 12.952 9.39924 12.2487 9.39924C12.5231 9.95552 12.7976 10.4641 13.0206 10.9886ZM22.1297 11.8628C22.1983 11.8628 22.2669 11.7833 22.3012 11.7197C23.2447 10.6231 24.4627 10.0191 25.9723 10.0191C27.7563 10.0191 29.0944 10.7661 30.0379 12.1648C30.0894 12.2442 30.1408 12.3237 30.2094 12.4508C30.3638 12.0217 30.5354 11.6403 30.6383 11.2429C30.6898 11.084 30.604 10.9091 30.5868 10.7343C30.5525 10.5277 30.5182 10.337 30.5011 10.1304C30.4839 10.0032 30.4325 9.93963 30.2952 9.90784C29.712 9.73301 29.1459 9.55818 28.5798 9.38334C28.271 9.28798 28.0823 9.12904 28.0137 8.82706C27.8421 8.23899 27.6363 7.65092 27.4647 7.04696C27.4304 6.90391 27.3446 6.84034 27.2074 6.82444C26.4698 6.6814 25.7321 6.50657 24.9945 6.36352C24.8915 6.34763 24.7371 6.37942 24.6514 6.4271C24.0167 6.80855 23.5192 7.31715 23.0389 7.85754C22.0096 9.01779 21.2548 10.337 20.7058 11.7515C20.7058 11.7674 20.7058 11.7992 20.6887 11.8469C21.1519 11.8787 21.6493 11.8787 22.1297 11.8628ZM11.4424 10.6866C10.8591 9.65354 10.2587 8.62044 9.64117 7.60324C9.57255 7.49198 9.45247 7.41251 9.33239 7.36483C7.59978 6.71319 5.81571 6.1569 3.96302 5.85492C3.67139 5.80724 3.37977 5.77545 3.10529 5.74367C3.03668 5.74367 2.9509 5.75956 2.89944 5.79135C2.43627 6.1569 1.66431 7.53966 1.56139 8.15952C1.64716 8.15952 1.73293 8.15952 1.83586 8.15952C3.17391 8.15952 4.51196 8.15952 5.85002 8.15952C6.19311 8.15952 6.45043 8.27078 6.63913 8.54097C6.98222 9.03368 7.34246 9.52639 7.70271 10.0032C7.77132 10.0827 7.87425 10.1621 7.97718 10.1939C8.95499 10.48 9.76125 10.9886 10.3788 11.7515C10.4646 11.8628 10.5504 11.8946 10.6876 11.8787C11.0993 11.8628 11.5282 11.8787 12.0085 11.8787C11.8026 11.4495 11.6482 11.0522 11.4424 10.6866ZM29.3517 14.3263C29.3346 12.578 27.825 11.2429 25.9208 11.2588C24.0853 11.2747 22.6443 12.6893 22.6786 14.4217C22.6958 16.1064 24.2054 17.4574 26.0409 17.4415C27.8936 17.4097 29.3689 16.0269 29.3517 14.3263ZM10.0014 14.3263C10.0014 12.6098 8.50897 11.2588 6.65628 11.2588C4.80359 11.2588 3.3283 12.6416 3.3283 14.3581C3.3283 16.0587 4.82075 17.4415 6.67343 17.4415C8.52612 17.4256 10.0014 16.0587 10.0014 14.3263ZM15.2679 6.85623C14.6331 7.01517 13.9813 6.90391 13.3637 6.79266C12.3344 6.61782 11.288 6.44299 10.2587 6.25227C10.1901 6.23637 10.1215 6.23637 10.0357 6.25227C10.4817 6.33174 10.6361 6.66551 10.8248 6.96749C11.0478 7.31715 11.2708 7.66681 11.4767 8.01648C11.5453 8.11184 11.5968 8.15952 11.734 8.15952C12.7118 8.15952 13.6896 8.15952 14.6674 8.14363C14.8733 8.14363 15.0963 8.06416 15.2679 7.9688C15.8854 7.57145 16.2113 6.95159 16.6059 6.39531C16.1427 6.55425 15.7139 6.74497 15.2679 6.85623ZM29.2316 8.27078C29.2488 8.30257 29.3003 8.33435 29.3346 8.33435C29.6262 8.42972 29.935 8.50919 30.2266 8.60455C30.2266 7.6986 30.0207 7.30126 28.8885 7.20589C29.0086 7.57145 29.1287 7.92112 29.2316 8.27078Z" fill="#00A2D3"/>
</svg>
