<svg width="17" height="21" viewBox="0 0 17 21" fill="none" xmlns="http://www.w3.org/2000/svg">
<path d="M16.9579 8.15649C16.9579 10.0386 16.3305 11.7115 15.2152 13.1754C13.3331 15.6151 11.5207 18.1246 9.63866 20.634C9.29013 21.122 8.66276 21.122 8.24452 20.634C6.36243 18.0549 4.48035 15.5454 2.59826 12.9663C1.83148 11.9207 1.27383 10.6659 1.0647 9.34151C0.576755 5.99557 2.31943 2.44052 5.45624 0.83726C6.85038 0.14019 8.31423 -0.138638 9.91749 0.0704831C12.7058 0.419018 15.1455 2.2314 16.2608 4.88026C16.6791 5.92587 16.9579 6.97147 16.9579 8.15649ZM8.94159 18.8217C8.94159 18.7519 9.0113 18.7519 9.0113 18.7519C10.4054 16.8699 11.8693 14.9878 13.2634 13.036C13.612 12.548 14.0302 12.0601 14.309 11.5721C15.0061 10.3871 15.3546 9.13239 15.2849 7.73825C15.2152 6.55323 14.797 5.43792 14.0999 4.39231C12.3572 1.88286 9.42954 1.11609 6.85038 1.95257C5.66536 2.44052 4.61976 3.2073 3.85298 4.32261C2.94679 5.57733 2.52855 6.97147 2.66796 8.57473C2.73767 9.82946 3.22562 11.0145 3.9924 12.0601C5.66536 14.2907 7.26862 16.5213 8.94159 18.6822C8.94159 18.7519 8.94159 18.7519 8.94159 18.8217Z" fill="#00A2D3"/>
<path d="M8.94165 11.0842C7.05956 11.0842 5.4563 9.55065 5.4563 7.59886C5.4563 5.71677 6.98985 4.11351 8.94165 4.11351C10.8934 4.11351 12.427 5.64706 12.427 7.59886C12.427 9.55065 10.8237 11.1539 8.94165 11.0842ZM8.94165 9.48095C9.91754 9.48095 10.754 8.64446 10.8237 7.66857C10.8237 6.62296 9.98725 5.78648 9.01135 5.78648C7.96575 5.78648 7.12927 6.62296 7.12927 7.59886C7.12927 8.64446 7.89604 9.48095 8.94165 9.48095Z" fill="#00A2D3"/>
</svg>
