<svg width="31" height="15" viewBox="0 0 31 15" fill="none" xmlns="http://www.w3.org/2000/svg">
<path d="M30.9843 3.00476C30.9605 1.95306 30.4122 1.17571 29.3872 0.741315C28.3859 0.329779 27.4324 0.466958 26.6219 1.12999C26.1689 1.51866 25.7637 1.93019 25.3346 2.31887L25.1677 2.50177C25.0485 2.61609 24.9293 2.66181 24.7624 2.66181C18.6121 2.66181 12.4378 2.66181 6.28746 2.66181C6.09675 2.66181 6.00139 2.61609 5.8822 2.50177C5.763 2.38746 5.66765 2.27314 5.54846 2.15883C5.1432 1.81588 4.76178 1.42721 4.35652 1.10712C3.52217 0.444095 2.56862 0.329779 1.56739 0.787041C0.566169 1.22144 0.017879 2.02165 0.017879 3.05049C-0.00595967 4.53659 -0.00595967 6.15986 0.017879 8.03464C0.017879 8.99489 0.518492 9.77223 1.40052 10.2752C2.23488 10.7325 3.09307 11.1897 3.92742 11.647C4.7141 12.0814 5.50078 12.4929 6.26362 12.9273C6.38281 12.9959 6.47817 13.0645 6.54968 13.156C7.31252 14.1619 8.38526 14.6878 9.69639 14.6878C11.0075 14.6878 12.3186 14.6878 13.6298 14.6878H15.4654H17.2294C17.8015 14.6878 18.3737 14.6878 18.9458 14.6878C19.7563 14.6878 20.543 14.6878 21.3535 14.6878C22.5931 14.6878 23.6182 14.1848 24.4049 13.2017C24.5002 13.0874 24.5956 12.9959 24.7148 12.9273C25.5014 12.4929 26.2881 12.0585 27.0748 11.6241C27.9092 11.1669 28.7673 10.7096 29.6017 10.2295C30.4837 9.74937 30.9367 8.99489 30.9605 8.03464C31.0082 6.137 31.0082 4.53658 30.9843 3.00476ZM29.7447 3.14194C29.7447 4.74235 29.7447 6.36563 29.7447 7.96605C29.7447 8.51476 29.5302 8.90343 29.0772 9.15493C28.0999 9.70364 27.0986 10.2524 26.1212 10.7782L25.12 11.3269C25.12 11.2126 25.12 11.0983 25.1439 11.0068L25.3346 8.97202C25.5014 7.30302 25.6445 5.61115 25.8113 3.94215C25.8352 3.62206 25.9305 3.43916 26.1451 3.25625C26.4073 3.02762 26.6695 2.75327 26.9318 2.52463C27.051 2.41032 27.1702 2.296 27.2893 2.18169C27.5992 1.88447 27.9568 1.72443 28.3382 1.72443C28.529 1.72443 28.6958 1.77015 28.8865 1.83874C29.411 2.04451 29.7447 2.52463 29.7447 3.14194ZM22.9269 9.42928C21.8064 9.58932 20.6383 9.77223 19.4941 9.88655C18.6836 9.978 17.8492 9.978 17.0625 10.0009H16.7288C15.8706 10.0237 14.8455 10.0466 13.8205 10.0009C11.7942 9.95513 9.72023 9.7265 7.45555 9.31497C6.9311 9.22352 6.9311 9.22352 6.88342 8.69767C6.85958 8.35472 6.81191 8.03464 6.78807 7.69169L6.76423 7.34874H24.2142L24.095 8.53762C24.095 8.56049 24.095 8.56049 24.095 8.58335C24.095 8.60621 24.095 8.62908 24.095 8.65194C24.0234 9.24638 24.0234 9.24638 23.4275 9.33783L22.9269 9.42928ZM23.9043 10.5038C23.8804 11.6927 23.6659 12.6073 22.6408 13.156C22.2594 13.3617 21.8303 13.476 21.4489 13.476C17.587 13.4989 13.6536 13.4989 9.86326 13.4989H9.5772C8.33758 13.4989 7.31252 12.6073 7.16949 11.3955C7.14565 11.1669 7.12181 10.9611 7.09797 10.7325C7.09797 10.6639 7.09797 10.5953 7.07413 10.5267C12.6285 11.4641 18.2783 11.4641 23.9043 10.5038ZM23.6659 6.137H6.9311C6.81191 6.137 6.69271 6.137 6.66887 6.11414C6.64504 6.09127 6.64504 5.97696 6.6212 5.86264C6.59736 5.56542 6.57352 5.24534 6.52584 4.94812C6.502 4.69663 6.47817 4.44513 6.45433 4.17078C6.45433 4.07932 6.45433 3.98787 6.43049 3.89642V3.87356H24.5479L24.5002 4.30795C24.4764 4.71949 24.4287 5.10816 24.381 5.49683C24.3333 6.137 24.3333 6.137 23.6659 6.137ZM1.25749 3.21053C1.25749 2.52463 1.56739 2.06737 2.21104 1.81588C2.35407 1.74729 2.52094 1.72443 2.66397 1.72443C3.04539 1.72443 3.45065 1.88447 3.76055 2.20455C3.87975 2.31887 4.02278 2.43318 4.14197 2.57036C4.42804 2.84472 4.73794 3.11907 5.024 3.41629C5.11936 3.50775 5.16704 3.62206 5.19088 3.71351C5.40542 5.99982 5.61997 8.28613 5.83452 10.5496L5.90604 11.3269C5.90604 11.3498 5.90604 11.3498 5.90604 11.3726L3.33146 9.95513C3.18843 9.88655 3.04539 9.79509 2.9262 9.7265C2.64014 9.56646 2.37791 9.42928 2.09185 9.26924C1.51972 8.97202 1.23365 8.51476 1.23365 7.87459C1.23365 6.84576 1.23365 5.81692 1.23365 4.78808L1.25749 3.21053Z" fill="#00A2D3"/>
</svg>
