<svg width="31" height="18" viewBox="0 0 31 18" fill="none" xmlns="http://www.w3.org/2000/svg">
<path d="M23.0589 6.94631C22.7195 7.58278 22.4111 8.14692 22.118 8.71106C21.3159 10.2299 20.5138 11.7343 19.7272 13.2531C19.6038 13.499 19.465 13.5713 19.1719 13.5713C16.9816 13.5569 14.7759 13.5713 12.5856 13.5713C12.416 13.5713 12.2617 13.5713 12.092 13.5713C11.3208 16.7103 8.46727 17.636 6.40039 17.2599C4.2101 16.8549 2.52883 14.9166 2.59052 12.7758C2.66765 10.606 4.42604 8.73999 6.67803 8.46515C8.91458 8.20478 11.4751 9.34752 12.1075 12.2984C12.2926 12.2984 12.4931 12.2984 12.6782 12.2984C14.5445 12.2984 16.4109 12.2839 18.2773 12.3129C18.6475 12.3129 18.8326 12.2116 18.956 11.9078C19.0794 11.6185 19.2336 11.3582 19.4187 11.011C19.1873 11.011 19.0331 11.011 18.8634 11.011C17.2593 11.011 15.6551 10.9965 14.051 11.011C13.7425 11.011 13.5111 10.9387 13.3106 10.7217C12.4777 9.83934 11.6293 8.97143 10.7501 8.11799C10.5804 7.94441 10.2719 7.81422 10.0252 7.79976C8.34388 7.77083 6.6626 7.75636 4.98133 7.77083C4.74996 7.77083 4.50317 7.82869 4.28722 7.92994C2.4517 8.73999 1.51081 10.1142 1.26402 12.2839C0.862977 12.2839 0.446515 12.2839 0.0146278 12.2839C-0.0779194 11.1557 0.276845 10.1576 0.847553 9.2318C1.46453 8.21924 2.34373 7.43813 3.43887 6.90292C3.67024 6.7872 3.76279 6.65701 3.74736 6.41111C3.73194 5.65892 3.74736 4.90673 3.74736 4.11115C4.05586 4.11115 4.3335 4.11115 4.59571 4.11115C5.8451 4.11115 7.07906 4.09669 8.32845 4.12562C8.5444 4.12562 8.80661 4.22687 8.94543 4.37153C9.85548 5.22497 10.7347 6.10734 11.6139 6.98971C11.691 7.06204 11.7681 7.1199 11.799 7.16329C11.9841 6.70041 12.1229 6.22306 12.3697 5.80357C12.8324 5.02246 13.6345 4.5885 14.5137 4.38599C16.2412 3.98097 17.9996 3.66273 19.7426 3.35897C20.3133 3.25771 20.8532 3.48915 21.3159 3.80739C21.5164 3.93757 21.6861 4.09669 21.9483 4.2992C21.5781 3.41683 21.2696 2.60678 20.8994 1.82567C20.8532 1.72441 20.6218 1.62315 20.483 1.62315C19.7735 1.60869 19.0639 1.60869 18.339 1.60869C18.339 1.1892 18.339 0.813109 18.339 0.350225C18.4932 0.350225 18.6475 0.350225 18.8017 0.350225C19.6192 0.350225 20.4367 0.379155 21.2542 0.33576C21.6707 0.321295 21.8249 0.465946 21.9637 0.813109C22.3802 1.88353 22.8275 2.92501 23.2748 3.98097C23.3211 4.11115 23.3982 4.24134 23.4599 4.40046C24.4317 3.95204 25.3726 3.51808 26.3597 3.0552C26.3597 4.54511 26.3597 5.96269 26.3597 7.42366C25.8199 7.42366 25.3109 7.42366 24.7093 7.42366C24.879 7.82869 25.0178 8.17585 25.1566 8.52301C26.7299 8.26264 28.149 8.53748 29.3521 9.49217C30.9254 10.7362 31.4498 12.9204 30.5861 14.6996C29.7069 16.5078 27.64 17.5926 25.6348 17.3033C23.4599 16.9851 21.8249 15.4807 21.5627 13.5135C21.3159 11.7053 22.0254 10.2588 23.5987 9.20287C23.8455 9.02929 23.8918 8.91357 23.7684 8.6532C23.5216 8.11799 23.3211 7.56831 23.0589 6.94631ZM24.4162 10.2154C22.9046 11.0544 22.4111 12.9349 23.2594 14.3958C24.1232 15.9002 26.1129 16.4933 27.7634 15.7411C29.3984 14.9889 30.1233 13.1229 29.3829 11.5751C28.7351 10.201 26.9304 9.31859 25.6965 9.78148C26.1438 10.8808 26.6065 11.9657 27.0693 13.094C26.6374 13.2531 26.2363 13.3978 25.8199 13.5424C25.3417 12.4141 24.879 11.3292 24.4162 10.2154ZM10.6421 12.2984C10.565 10.9098 8.91458 9.62236 7.27958 9.66576C5.44406 9.70915 3.94788 11.1123 3.93246 12.8047C3.91704 14.5694 5.35152 16.0015 7.21789 16.0593C8.86831 16.1172 10.5033 14.9166 10.6113 13.5569C9.74751 13.5569 8.88374 13.5569 8.01996 13.5569C7.88114 13.5569 7.68062 13.5569 7.58807 13.4701C6.95567 12.8915 6.33869 12.2984 5.76798 11.7632C6.09189 11.4305 6.38496 11.1412 6.6626 10.8808C7.10991 11.2858 7.55723 11.6909 8.00454 12.0959C8.11251 12.1827 8.25133 12.2984 8.37473 12.2984C9.13053 12.3129 9.88633 12.2984 10.6421 12.2984ZM13.2952 7.1199C13.4494 7.13436 13.5882 7.14883 13.7116 7.14883C15.871 7.14883 18.0151 7.14883 20.1745 7.14883C20.8686 7.14883 21.3313 6.7872 21.393 6.23752C21.4702 5.41301 20.4367 4.50171 19.5575 4.64636C18.5703 4.80548 17.5832 4.93566 16.6114 5.16711C15.7631 5.36962 14.9302 5.62999 14.1281 5.94822C13.6499 6.1218 13.2952 6.51236 13.2952 7.1199ZM20.7761 8.40729C18.123 8.40729 15.5317 8.40729 12.8633 8.40729C13.2952 8.84124 13.6653 9.2318 14.051 9.60789C14.1281 9.68022 14.2669 9.72362 14.3594 9.72362C16.1795 9.73808 17.9996 9.73808 19.8197 9.72362C19.9277 9.72362 20.0819 9.68022 20.1282 9.60789C20.3442 9.2318 20.5447 8.82678 20.7761 8.40729ZM5.10472 6.4979C6.49293 6.4979 7.83487 6.4979 9.26935 6.4979C8.88373 6.1218 8.57524 5.78911 8.25133 5.48534C8.18963 5.42748 8.09708 5.38408 8.01996 5.38408C7.06364 5.38408 6.09189 5.38408 5.12015 5.38408C5.10472 5.76018 5.10472 6.10734 5.10472 6.4979ZM23.9535 5.57213C24.2003 6.25199 24.262 6.28092 24.9869 6.10734C24.9869 5.78911 24.9869 5.45641 24.9869 5.09478C24.6322 5.26836 24.3083 5.41301 23.9535 5.57213Z" fill="#00A2D3"/>
</svg>
