<svg width="26" height="23" viewBox="0 0 26 23" fill="none" xmlns="http://www.w3.org/2000/svg">
<path d="M4.9112 23C4.84637 23 4.79774 23 4.73291 23C4.73291 22.9514 4.74912 22.919 4.74912 22.8703C4.74912 21.2819 4.74912 19.6772 4.74912 18.0888C4.74912 18.024 4.70049 17.9267 4.63566 17.8943C3.5821 17.1973 2.65821 16.3707 1.89641 15.3982C0.940099 14.1663 0.324172 12.821 0.0972516 11.346C0.0648344 11.0867 0.0324172 10.8111 0 10.5518C0 10.2276 0 9.90345 0 9.56307C0.0162086 9.53065 0.0162086 9.49824 0.0324172 9.46582C0.081043 9.12544 0.0972516 8.78506 0.162086 8.46089C0.502466 6.80761 1.28048 5.34884 2.49612 4.06836C4.60324 1.84778 7.29387 0.615927 10.4383 0.129669C10.7625 0.081043 11.0867 0.0486258 11.3946 0C12.2375 0 13.0641 0 13.907 0C13.9394 0.0162086 13.988 0.0162086 14.0204 0.0324172C14.8795 0.0972516 15.7223 0.243129 16.549 0.453841C18.802 1.03735 20.7794 2.05849 22.4165 3.61452C24.0373 5.15433 25.0423 6.9859 25.3016 9.10923C25.5123 10.8436 25.1882 12.513 24.3129 14.0853C23 16.4517 20.9415 18.0726 18.2995 19.1261C16.938 19.6772 15.4954 20.0014 14.0042 20.1149C12.9183 20.1959 11.8323 20.1959 10.7463 20.05C10.5032 20.0176 10.2925 20.0014 10.0493 20.1311C8.59056 20.9577 7.09937 21.7681 5.64059 22.5786C5.38125 22.7245 5.15433 22.8703 4.9112 23ZM6.27273 20.5039C6.38619 20.4552 6.46723 20.4066 6.53206 20.3742C7.61804 19.7745 8.72023 19.1748 9.8062 18.5751C9.90345 18.5264 10.0331 18.4778 10.1304 18.5102C11.3622 18.7371 12.5941 18.802 13.8583 18.6885C15.4954 18.5588 17.0352 18.1536 18.4778 17.4567C20.3904 16.5328 21.8978 15.2523 22.8703 13.4693C23.6646 12.0106 23.9401 10.4708 23.6483 8.8661C23.2755 6.88865 22.1896 5.30021 20.5525 4.00352C18.5102 2.39887 16.0951 1.60465 13.4207 1.45877C11.2488 1.34531 9.17407 1.68569 7.21283 2.56096C5.52713 3.30655 4.10077 4.3439 3.06342 5.77026C1.34531 8.16913 1.08598 10.6977 2.39887 13.3235C3.2093 14.9281 4.5222 16.1438 6.15927 17.0839C6.27273 17.1487 6.32135 17.2135 6.32135 17.327C6.30514 18.3157 6.28894 19.3044 6.27273 20.2932C6.27273 20.358 6.27273 20.4228 6.27273 20.5039Z" fill="#00A2D3"/>
<path d="M6.33758 8.63919C7.19663 8.63919 7.90981 9.27133 7.92602 10.0331C7.92602 10.8922 7.24526 11.5243 6.32137 11.5243C5.49473 11.5243 4.78155 10.876 4.76535 10.098C4.73293 9.30374 5.44611 8.6554 6.33758 8.63919Z" fill="#00A2D3"/>
<path d="M14.2473 10.0818C14.2473 10.8922 13.5341 11.5243 12.6427 11.5243C11.7836 11.5243 11.0704 10.876 11.0704 10.0818C11.0704 9.27133 11.7836 8.63919 12.6589 8.63919C13.5503 8.63919 14.2473 9.28753 14.2473 10.0818Z" fill="#00A2D3"/>
<path d="M18.9803 11.5243C18.0726 11.5081 17.408 10.8436 17.4242 10.0007C17.4404 9.25512 18.186 8.62298 19.0451 8.63919C19.9366 8.6554 20.6173 9.30374 20.6011 10.1142C20.5687 10.9084 19.8393 11.5405 18.9803 11.5243Z" fill="#00A2D3"/>
</svg>
