<svg width="18" height="23" viewBox="0 0 18 23" fill="none" xmlns="http://www.w3.org/2000/svg">
<path d="M17.3094 15.5982V12.4756C17.3094 10.2782 17.3094 8.10003 17.3094 5.90262C17.3094 5.70987 17.2901 5.55566 17.2516 5.42073C17.0781 4.76537 16.4998 4.28348 15.8059 4.28348C14.9578 4.28348 14.1097 4.28348 13.2808 4.28348H13.0302C13.011 4.28348 13.011 4.28348 13.011 4.28348C13.011 4.28348 13.011 4.2642 13.011 4.24493L12.9917 4.11C12.9724 3.85942 12.9339 3.60884 12.876 3.35825C12.3556 1.12229 10.1775 -0.323368 7.90296 0.0621421C5.87903 0.428377 4.35627 2.18245 4.29844 4.24493C4.29844 4.2642 4.29844 4.28348 4.29844 4.28348C4.29844 4.28348 4.27916 4.28348 4.25989 4.28348C3.73945 4.28348 3.19973 4.28348 2.6793 4.28348C2.33234 4.28348 1.9661 4.28348 1.61914 4.28348C1.31073 4.28348 1.11798 4.32203 0.925225 4.41841C0.308408 4.70754 0 5.2087 0 5.88335V21.4001C0 21.458 0 21.5158 0 21.5736C0.0578265 22.3061 0.578265 22.8843 1.29146 22.9807C1.42639 23 1.58059 23 1.71552 23H1.77335C3.54669 23 5.32004 23 7.09339 23H10.6594C12.3556 23 14.0326 23 15.7288 23C16.0951 23 16.4035 22.9036 16.654 22.7109C17.0781 22.4025 17.3094 21.9591 17.3094 21.4001C17.2901 19.4726 17.3094 17.5258 17.3094 15.5982ZM5.91758 4.2642C5.93686 3.60884 6.24527 2.91492 6.72715 2.41375C7.09339 2.04752 7.71021 1.62346 8.65471 1.62346C9.57993 1.62346 10.216 2.04752 10.563 2.41375C11.0641 2.91492 11.3533 3.60884 11.3918 4.2642H5.91758ZM15.671 5.90262V21.3809H1.61914V5.90262H15.671Z" fill="#00A2D3"/>
<path d="M6.57293 8.75539C7.0741 8.75539 7.55599 8.75539 8.05715 8.75539H8.55831H10.6979C10.7557 8.75539 10.8135 8.75539 10.8714 8.75539C11.1798 8.71684 11.4111 8.56264 11.5267 8.27351C11.6424 8.02292 11.6231 7.75307 11.4689 7.52176C11.3147 7.29045 11.0449 7.15553 10.7557 7.15553C10.1582 7.15553 9.56064 7.15553 8.9631 7.15553H8.1728H7.67164C7.28613 7.15553 6.90062 7.15553 6.51511 7.15553C6.22597 7.15553 5.95612 7.29045 5.80191 7.54104C5.64771 7.77234 5.62843 8.0422 5.74409 8.29278C5.91757 8.58191 6.18742 8.75539 6.57293 8.75539Z" fill="#00A2D3"/>
</svg>
