<?xml version="1.0" encoding="utf-8"?>
<!-- Generator: Adobe Illustrator 24.0.2, SVG Export Plug-In . SVG Version: 6.00 Build 0)  -->
<svg fill="#fff" version="1.1" id="Layer_1" xmlns="http://www.w3.org/2000/svg" xmlns:xlink="http://www.w3.org/1999/xlink" x="0px" y="0px"
	 viewBox="0 0 93.3 93.3" style="enable-background:new 0 0 93.3 93.3;" xml:space="preserve">
<path d="M47.3,0c0.7,0.7,1.6,1.3,1.1,2.5c-0.6,1.4-1.8,1.2-2.9,1.3c-14.4,0.6-25.8,6.8-34,18.5c-17.8,25.3-3,61.2,27.6,66.6
	C62.7,93.1,85.3,77.4,89,53.5c2.5-16.2-2.9-29.7-15.4-40.3c-0.4-0.4-0.9-0.7-1.3-1c-0.9-0.8-1.2-1.7-0.4-2.6c0.8-1,1.8-0.9,2.7-0.2
	c2,1.7,4,3.3,5.8,5.2c7.5,7.9,11.7,17.2,12.7,28c0,0.4,0.2,0.8,0.3,1.1c0,2,0,4,0,6c-0.1,0.3-0.2,0.6-0.3,1
	c-1.8,20.4-16.5,37.1-36.5,41.5c-2.4,0.5-4.8,0.8-7.2,1.2c-1.8,0-3.6,0-5.4,0c-0.4-0.1-0.8-0.2-1.2-0.2C22.3,91.3,5.6,76.6,1.2,56.5
	c-0.5-2.3-0.8-4.6-1.2-6.9c0-2,0-4,0-6c0.1-0.3,0.2-0.6,0.3-1C2.1,22.2,16.7,5.6,36.8,1.2c2.3-0.5,4.6-0.8,6.9-1.2
	C44.9,0,46.1,0,47.3,0z"/>
<path d="M65.8,46.7C56.3,41.1,47,35.5,37.5,29.9c0,1,0,1.5,0,2.1c0,11.5,0,23,0,34.5c0,0.3,0,0.7,0,1c0,1.8-0.6,2.5-1.8,2.5
	c-1.2,0-1.8-0.8-1.8-2.6c0-13.4,0-26.7,0-40.1c0-2.5,1.3-3.2,3.4-2c10.8,6.4,21.6,12.8,32.4,19.3c2,1.2,2,2.6,0,3.8
	c-7.3,4.7-14.6,9.4-21.9,14.1c-0.3,0.2-0.7,0.6-1,0.6c-0.8-0.1-1.8-0.2-2.1-0.7c-0.3-0.5,0-1.5,0.3-2.2c0.1-0.4,0.8-0.6,1.2-0.9
	c6-3.9,12.1-7.8,18.1-11.7C64.6,47.5,65.1,47.2,65.8,46.7z"/>
</svg>
