<svg width="26" height="26" viewBox="0 0 26 26" fill="none" xmlns="http://www.w3.org/2000/svg">
<path d="M13.1686 0C13.4047 0.168612 13.6407 0.337224 13.8431 0.522698C14.4501 1.11284 15.0402 1.70298 15.6472 2.30999C15.7484 2.41115 15.8327 2.42802 15.9844 2.39429C16.9118 2.14137 17.8392 1.90532 18.7834 1.66926C19.323 1.53437 19.7108 1.77043 19.8625 2.30999C20.1154 3.23735 20.3684 4.14786 20.6213 5.07523C20.655 5.17639 20.7562 5.29442 20.8573 5.32815C21.7341 5.58106 22.6109 5.81712 23.5045 6.05318C24.1958 6.23865 24.4319 6.64332 24.2464 7.33463C24.0104 8.21141 23.7912 9.10506 23.5383 9.98184C23.5045 10.1336 23.5214 10.2179 23.6226 10.3191C24.297 10.9935 24.9715 11.668 25.6291 12.3593C26.0337 12.7639 26.0337 13.2361 25.6291 13.6576C24.9715 14.332 24.3139 15.0065 23.6563 15.6641C23.5214 15.799 23.4877 15.917 23.5383 16.1025C23.7912 17.013 24.0272 17.9235 24.2464 18.834C24.3813 19.3567 24.1453 19.7613 23.6226 19.9131C22.7121 20.166 21.8016 20.4189 20.8742 20.6719C20.7056 20.7224 20.6213 20.7899 20.5875 20.9585C20.3515 21.869 20.0986 22.7795 19.8288 23.69C19.677 24.2127 19.2892 24.4656 18.7497 24.3307C17.8223 24.0947 16.8781 23.8586 15.9507 23.6057C15.799 23.572 15.7147 23.5888 15.6135 23.69C14.9728 24.3307 14.332 24.9715 13.6744 25.5953C13.5058 25.7471 13.3035 25.8651 13.118 26C12.9831 26 12.8482 26 12.7134 26C12.4099 25.7471 12.0895 25.5279 11.8197 25.2581C11.2802 24.7523 10.7575 24.2127 10.2348 23.69C10.1336 23.5888 10.0493 23.5551 9.89754 23.6057C8.97017 23.8586 8.02594 24.0947 7.09857 24.3307C6.57588 24.4656 6.17121 24.2296 6.01946 23.69C5.76654 22.7626 5.51362 21.8521 5.2607 20.9248C5.22698 20.773 5.14267 20.7056 5.00778 20.6719C4.09728 20.4189 3.18677 20.166 2.2594 19.9131C1.70298 19.7613 1.46693 19.3735 1.60182 18.834C1.83787 17.9066 2.07393 16.9792 2.32685 16.0519C2.36057 15.9001 2.36057 15.8158 2.24254 15.6978C1.6524 14.9896 1.01167 14.332 0.354086 13.6744C-0.118029 13.2023 -0.118029 12.7471 0.354086 12.275C0.994812 11.6174 1.63554 10.9598 2.29313 10.3191C2.41115 10.201 2.42802 10.083 2.39429 9.9144C2.14137 9.00389 1.90532 8.09339 1.66926 7.16602C1.53437 6.62646 1.75357 6.23865 2.29313 6.0869C3.0856 5.85084 3.89494 5.61479 4.70428 5.44617C5.14267 5.34501 5.34501 5.15953 5.42931 4.72114C5.61479 3.9118 5.85084 3.10246 6.0869 2.29313C6.22179 1.80415 6.64332 1.55123 7.1323 1.66926C8.07652 1.90532 9.02075 2.15824 9.94812 2.41115C10.0999 2.44488 10.1842 2.42802 10.2853 2.32685C10.9429 1.66926 11.6005 1.01167 12.275 0.370947C12.4267 0.236057 12.6122 0.13489 12.7808 0.0168612C12.8988 0 13.0337 0 13.1686 0ZM12.882 23.9261C12.9326 23.9261 12.9831 23.9261 13.0506 23.9429C13.6576 23.3191 14.2477 22.6952 14.8379 22.0545C15.1414 21.7341 15.4786 21.6667 15.917 21.7847C16.7432 22.0208 17.5863 22.2231 18.4293 22.4423C18.4462 22.358 18.4799 22.2737 18.4968 22.2062C18.716 21.4306 18.9352 20.6381 19.1375 19.8625C19.2387 19.4916 19.4578 19.2724 19.8288 19.1712C20.0649 19.1038 20.3178 19.0363 20.5538 18.9689C21.1777 18.8003 21.8016 18.6316 22.4254 18.4462C22.2062 17.5863 21.987 16.7432 21.751 15.9001C21.6498 15.4955 21.7173 15.1582 22.0208 14.8716C22.24 14.6524 22.4591 14.4163 22.6783 14.214C23.083 13.8262 23.5045 13.4384 23.9767 13C23.2853 12.3424 22.6783 11.7523 22.0545 11.1621C21.7173 10.8418 21.6161 10.5045 21.751 10.0493C21.987 9.22309 22.1894 8.38003 22.4086 7.53697C22.3243 7.50324 22.2399 7.48638 22.1556 7.46952C21.38 7.25032 20.5875 7.03113 19.8119 6.82879C19.4578 6.72763 19.2387 6.50843 19.1375 6.15435C19.0532 5.85084 18.9689 5.54734 18.8846 5.22698C18.7328 4.67056 18.5811 4.09728 18.4125 3.54086C17.5357 3.77691 16.6926 3.97925 15.8495 4.2153C15.4617 4.31647 15.1245 4.24903 14.8379 3.94553C14.5681 3.65888 14.2815 3.38911 13.9948 3.10246C13.6407 2.76524 13.3035 2.42802 12.8988 2.02335C12.3087 2.64721 11.7017 3.25422 11.1115 3.87808C10.808 4.19844 10.4708 4.28275 10.0324 4.16472C9.20623 3.92866 8.36316 3.72633 7.5201 3.50713C7.48638 3.59144 7.46952 3.67575 7.45266 3.74319C7.23346 4.53567 7.01427 5.32815 6.79507 6.12062C6.6939 6.45785 6.47471 6.6939 6.13748 6.77821C5.88457 6.84566 5.63165 6.9131 5.37873 6.98055C4.75486 7.14916 4.131 7.31777 3.50713 7.48638C3.72633 8.3463 3.94553 9.18936 4.18158 10.0324C4.28275 10.4371 4.2153 10.7743 3.9118 11.061C3.64202 11.3139 3.38911 11.6005 3.11933 11.8534C2.74838 12.2075 2.37743 12.5447 2.00648 12.8988C2.12451 13.0169 2.1751 13.0843 2.24254 13.1349C2.76524 13.6744 3.28794 14.214 3.8275 14.7367C4.19844 15.0908 4.29961 15.4955 4.14786 15.9844C3.9118 16.7769 3.72633 17.5863 3.50713 18.3956C3.59144 18.4125 3.65888 18.4462 3.72633 18.463C4.51881 18.6822 5.31128 18.9014 6.10376 19.1206C6.47471 19.2218 6.71077 19.441 6.79507 19.8119C6.82879 19.93 6.86252 20.048 6.89624 20.1829C7.09857 20.9248 7.30091 21.6667 7.5201 22.4086C8.38003 22.1894 9.20623 21.987 10.0493 21.751C10.4708 21.6329 10.808 21.7004 11.1115 22.0208C11.6848 22.6615 12.2918 23.3022 12.882 23.9261Z" fill="#00A2D3"/>
<path d="M16.9624 8.16083C17.2828 8.19455 17.5526 8.3463 17.7043 8.68353C17.8561 8.98703 17.7718 9.34111 17.5188 9.61089C16.8781 10.2516 16.2374 10.9092 15.5967 11.5499C13.6239 13.5227 11.6511 15.4955 9.67838 17.4682C9.42546 17.7211 9.15568 17.8392 8.78473 17.738C8.44751 17.6368 8.24517 17.4008 8.17773 17.0636C8.11028 16.7432 8.26203 16.4734 8.48123 16.2542C9.50976 15.2257 10.5383 14.1971 11.5837 13.1517C13.1181 11.6342 14.6524 10.0999 16.1868 8.5655C16.3891 8.3463 16.6083 8.16083 16.9624 8.16083Z" fill="#00A2D3"/>
<path d="M19.205 16.3722C19.1544 17.9572 17.9404 19.1881 16.3386 19.1881C14.8042 19.1881 13.5227 17.8729 13.5396 16.3385C13.5565 14.8041 14.8548 13.5058 16.3891 13.5058C17.9235 13.5396 19.2218 14.8547 19.205 16.3722ZM15.2426 16.3722C15.2426 16.9961 15.7316 17.4851 16.3386 17.4851C16.9961 17.4851 17.4851 17.013 17.4683 16.3385C17.4683 15.7146 16.9793 15.2425 16.3386 15.2425C15.7147 15.2425 15.2426 15.7315 15.2426 16.3722Z" fill="#00A2D3"/>
<path d="M12.4099 9.57717C12.4099 11.1115 11.1284 12.4099 9.57717 12.4099C8.0428 12.4099 6.72762 11.0947 6.74448 9.57717C6.74448 8.02594 8.02594 6.72762 9.57717 6.74449C11.1958 6.76135 12.3761 8.02594 12.4099 9.57717ZM9.57717 10.69C10.2179 10.69 10.69 10.201 10.69 9.57717C10.69 8.93644 10.201 8.44747 9.57717 8.46433C8.91958 8.46433 8.44747 8.93644 8.44747 9.59403C8.46433 10.2179 8.9533 10.69 9.57717 10.69Z" fill="#00A2D3"/>
</svg>
