<?xml version="1.0" encoding="utf-8"?>
<!-- Generator: Adobe Illustrator 24.0.2, SVG Export Plug-In . SVG Version: 6.00 Build 0)  -->
<svg version="1.1" id="Layer_1" xmlns="http://www.w3.org/2000/svg" xmlns:xlink="http://www.w3.org/1999/xlink" x="0px" y="0px"
	 viewBox="0 0 197.1 291.3" style="enable-background:new 0 0 197.1 291.3;" xml:space="preserve" fill="#fff">
<path d="M0,98.3C0.1,43.9,44.6-1.1,100.7,0c53.2,1.1,97.3,44.8,96.4,100.4c-0.9,53.2-44.6,97.7-100.6,96.6C43.3,196,0,152.7,0,98.3z
	 M12.4,130.6c1.1-1.2,1.9-2.1,2.8-3c1.7-1.7,3.4-1.7,4.9-0.3c1.4,1.4,1.4,3.2-0.2,4.9c-1.1,1.2-2.3,2.4-3.5,3.5
	c-1.1,0.9-1.4,1.8-0.6,3.1c2.9,4.6,5.6,9.4,8.5,14c1.6,2.4,3.6,4.5,5.6,7.1c0.3-1.3,0.5-2.2,0.6-3.1c0.2-0.9,0.3-1.7,0.5-2.6
	c0.5-2.1,2-3.3,3.7-3c2.1,0.4,3.1,1.9,2.7,4.3c-0.5,2.8-1.1,5.6-1.7,8.4c-0.2,1.1-0.1,1.9,0.9,2.6c4.8,3.5,9.4,7.2,14.3,10.6
	c2.5,1.8,5.4,3,8.6,4.8c-0.5-1.3-0.7-2-1-2.7c-0.9-2.4-0.4-4.3,1.4-5.1c1.9-0.8,3.7,0.2,4.7,2.7c1,2.3,1.8,4.7,2.8,7
	c0.4,0.8,1.2,1.6,1.9,1.8c5.5,1.4,11,2.7,16.5,3.9c2.4,0.5,4.9,0.5,7.9,0.8c-1-1.4-1.6-2.2-2.2-3.1c-1-1.6-0.6-3.4,0.8-4.4
	c1.4-1,3.2-0.8,4.4,0.5c0.5,0.5,0.9,1,1.2,1.6c2.3,5.1,6.2,5.8,11.3,4.9c6.8-1.2,13.5-2.4,20.2-4.9c-1.4-1-2.6-1.9-3.7-2.8
	c-1.7-1.4-2.1-3.3-1-4.9c1.1-1.5,3.2-1.7,4.9-0.4c1.9,1.4,3.8,2.7,5.5,4.2c1.1,0.9,2,0.9,3.1,0.3c2-1.1,4.2-2,6.1-3.3
	c5.1-3.4,10.1-6.9,15.1-10.4c-0.1-0.2-0.2-0.4-0.3-0.6c-0.9-0.2-1.7-0.4-2.6-0.6c-0.9-0.2-1.7-0.3-2.6-0.5c-2.2-0.5-3.3-2-2.9-4
	c0.4-1.9,1.9-2.9,4.2-2.4c2.8,0.5,5.6,1.2,8.4,1.6c0.8,0.1,1.9-0.2,2.4-0.8c3.7-4.7,7.3-9.4,10.7-14.2c1.8-2.5,3-5.3,4.7-8.4
	c-2.2,0.4-3.8,0.8-5.4,1c-2.4,0.4-4-0.5-4.4-2.3c-0.4-2.1,0.7-3.6,3.2-4.2c2.7-0.6,5.5-1,8.2-1.7c0.7-0.2,1.6-0.9,1.7-1.6
	c1.6-6.2,3.1-12.4,4.5-18.7c0.4-1.9,0.4-3.8,0.7-6.1c-1.5,1.1-2.6,2-3.7,2.7c-1.9,1.3-3.7,1.1-4.9-0.4c-1.2-1.6-0.7-3.5,1.2-4.9
	c2.2-1.6,4.4-3.2,6.5-5c0.6-0.5,1.1-1.5,1-2.2c-0.4-4.5-0.8-9-1.6-13.4c-0.9-4.8-2.4-9.6-3.6-14.3c-0.6,0.1-0.7,0-0.7,0.1
	c-0.9,0.8-1.8,1.7-2.7,2.5c-1.6,1.5-3.3,1.6-4.7,0.3c-1.5-1.4-1.5-3.3,0.1-4.9c1.3-1.4,2.8-2.7,4-4.1c0.4-0.4,0.6-1.3,0.4-1.7
	c-3.7-7.8-8.4-15.1-14.3-21.6c-0.2,0.2-0.3,0.3-0.3,0.4c-0.3,1.5-0.6,3.1-1,4.6c-0.5,2.4-2.1,3.7-3.9,3.3c-2.1-0.5-3-1.9-2.5-4.4
	c0.5-2.8,1.2-5.6,1.6-8.4c0.1-0.8-0.2-1.9-0.8-2.4c-4.4-3.5-8.7-7-13.3-10.2c-2.9-2-6.1-3.5-9.1-5.2c0,1.1,0.3,1.9,0.6,2.6
	c0.9,2.3,0.2,4.3-1.7,5c-1.8,0.7-3.5-0.3-4.5-2.5c-1-2.3-1.8-4.7-2.9-7c-0.4-0.9-1.4-1.9-2.3-2.2c-2.8-1-5.7-1.9-8.7-2.4
	c-5.4-1-10.9-1.7-16.9-2.6c0.8,1.7,1.3,2.6,1.7,3.6c0.9,1.9,0.3,3.7-1.3,4.6c-1.7,0.9-3.6,0.2-4.6-1.7C96.7,11.1,96,9.5,95.1,8
	c-0.4-0.6-1.3-1.2-2-1.1c-2.4,0.1-4.8,0.3-7.1,0.6C79.7,8.3,73.6,9.7,67.4,12c1.3,1,2.4,1.9,3.6,2.7c1.9,1.5,2.4,3.3,1.2,4.9
	c-1.4,1.7-3.1,1.8-5.2,0.3c-1.8-1.3-3.6-2.7-5.4-4.1c-1-0.8-1.9-0.9-2.9-0.3c-5.6,3.5-11.3,6.9-16.8,10.5c-1.9,1.3-3.6,3-5.7,4.8
	c2,0.4,3.4,0.7,4.8,1c2.9,0.7,4.2,2,3.8,4.1c-0.4,2.1-2.2,2.9-5.1,2.3c-2.5-0.5-5-0.9-7.4-1.5c-1.3-0.3-2.1,0-2.8,0.9
	c-3,4-6.1,7.9-8.9,12c-2.1,3.1-3.7,6.6-5.9,10.3c2.1-0.4,3.5-0.7,4.9-1c2.5-0.4,4,0.5,4.4,2.5c0.4,2-0.8,3.5-3.2,4
	c-2.3,0.5-4.7,1-7,1.4c-1.4,0.2-2.1,0.9-2.5,2.2c-0.9,3.2-1.9,6.4-2.6,9.7c-0.9,4.4-1.4,8.8-2.1,13.2c0.2,0.1,0.4,0.1,0.6,0.2
	c1-0.8,2-1.5,3.1-2.3c2.1-1.5,4-1.4,5.2,0.3c1.1,1.6,0.7,3.5-1.3,4.9c-2.1,1.6-4.3,3.1-6.4,4.8c-0.6,0.5-1.1,1.5-1.1,2.3
	c0.1,2.8,0.4,5.6,0.7,8.3C8.3,117.4,9.8,123.9,12.4,130.6z"/>
<path d="M98.7,32.8c36,0.2,64.6,28.7,65.5,64c0.9,37.7-29.7,68.4-67.6,67.4c-35.2-1-64.8-29.9-63.7-67.7
	C33.9,61.3,62.7,32.8,98.7,32.8z M136.3,98.6c0-20.8-16.9-37.9-37.5-37.9c-21.1,0-38.1,16.8-38.1,37.7c0,21,16.9,37.9,37.9,37.9
	C119.3,136.3,136.3,119.3,136.3,98.6z M41.6,83.5c-6.2,19.9,1,46.5,19.7,60.7c2.8-3.9,5.7-7.8,8.5-11.7c-13.2-12.2-18-27-14.5-44.5
	C50.8,86.5,46.3,85,41.6,83.5z M127.3,132.5c2.9,3.9,5.7,7.8,8.7,11.9c10.5-8.7,17.2-19.5,20.2-32.5c2.2-9.4,2.1-18.8-0.5-28.4
	c-4.9,1.6-9.4,3.1-13.9,4.5C145.2,105.6,140.4,120.4,127.3,132.5z M75.1,136.3c-2.9,4-5.7,7.8-8.5,11.7c18.6,13,46.4,12.5,63.8,0
	c-2.8-3.9-5.7-7.8-8.5-11.7C106.3,145.1,90.9,145.1,75.1,136.3z M95.2,39.6c-23.7,0.9-44.7,17.7-51.6,37.6c4.6,1.5,9.2,3,13.8,4.5
	C65,65.3,77.6,56.3,95.2,54.2C95.2,49.3,95.2,44.5,95.2,39.6z M101.9,54.2c17.9,2.1,30.3,11.3,37.8,27.5c4.7-1.5,9.2-3,13.8-4.5
	c-8-22.5-31.5-37.5-51.6-37.4C101.9,44.6,101.9,49.3,101.9,54.2z"/>
<path d="M98.5,131.4c-17.7,0-32.6-14.7-32.8-32.1C65.5,80.6,79.9,66,97.9,65.7c18.8-0.3,33.2,14.4,33.4,32.1
	C131.6,116.7,117,131.3,98.5,131.4z M98.7,72.3c-14.5,0-26.4,11.7-26.4,26c0,14.7,11.7,26.5,26.3,26.5c14.4,0,26.3-11.8,26.3-26.1
	C124.8,84.1,113.1,72.3,98.7,72.3z"/>
<path d="M111.7,98.5c0,7.4-5.9,13.2-13.3,13.1c-7.1,0-12.9-6-12.9-13.1c0-7.2,5.9-13.1,13.1-13.1C105.8,85.4,111.7,91.3,111.7,98.5z
	 M92,98.5c0,3.7,3,6.6,6.6,6.6c3.6,0,6.5-3,6.5-6.5c0-3.7-2.9-6.6-6.6-6.6C95,92,92,95,92,98.5z"/>
<path d="M80.5,88.7c1.8,0,3.3,1.4,3.3,3.2c0,1.9-1.5,3.4-3.4,3.3c-1.8,0-3.2-1.5-3.2-3.3C77.2,90.1,78.7,88.7,80.5,88.7z"/>
<path d="M119.9,92c0,1.8-1.5,3.2-3.3,3.3c-1.9,0-3.4-1.5-3.3-3.4c0.1-1.8,1.6-3.2,3.4-3.2C118.5,88.7,119.9,90.2,119.9,92z"/>
<path d="M113.3,113.5c-0.1,1.8-1.6,3.2-3.4,3.1c-1.8-0.1-3.2-1.6-3.2-3.3c0-1.9,1.6-3.4,3.5-3.2C112,110.1,113.4,111.7,113.3,113.5z
	"/>
<path d="M101.8,78.9c0,1.8-1.5,3.2-3.3,3.2c-1.7,0-3.3-1.5-3.3-3.3c0-1.9,1.6-3.4,3.4-3.3C100.5,75.6,101.9,77.1,101.8,78.9z"/>
<path d="M87,116.6c-1.8-0.1-3.2-1.6-3.2-3.3c0-1.9,1.6-3.4,3.5-3.2c1.8,0.1,3.2,1.7,3.1,3.4C90.3,115.2,88.7,116.6,87,116.6z"/>
<g>
	<polygon points="98.6,251.9 98.8,252.3 150.1,218.9 146.8,213.9 98.6,245.3 50.3,213.9 47,218.9 98.3,252.3 	"/>
	<polygon points="98.6,284.3 50.3,252.9 47,257.9 98.3,291.3 98.6,290.9 98.8,291.3 150.1,257.9 146.8,252.9 	"/>
</g>
</svg>
