<svg xmlns="http://www.w3.org/2000/svg" xml:space="preserve" fill="#001417" style="enable-background:new 0 0 102.2 113.9" viewBox="0 0 102.2 113.9"><path d="M70.6 51.7c.1 1.8.3 3.5.4 5.2l.9 10.8c.1 1.2-.3 2.3-1.2 3.1-1.8 1.7-3.5 3.4-5.4 5.2 3.8 1.2 5.7 4.3 8.1 6.7 1.4 1.4 1.1 3.7-.4 5.2-1.2 1.3-2.5 2.6-3.8 3.8l-20 20c-.4.4-.7.8-1.1 1.1-1.7 1.5-3.9 1.5-5.5-.1l-4.8-4.8c-1-1-1.4-2.3-1.1-3.8h-.9c-1.2 0-2.2-.4-3.1-1.3-1.8-1.9-3.7-3.7-5.5-5.6-.7-.8-1.4-1.6-2.1-2.6-1.2 1.2-2.4 2.5-3.7 3.8-2 2-4.4 3.3-7.3 3.7-6.6 1-12.9-3.8-13.8-10.3C-.3 87.6.9 84 3.9 81c1.1-1.2 2.3-2.3 3.6-3.6-.5-.2-.7-.4-.9-.7L3 73.1c-2-2-2-4.3.1-6.3 1.2-1.2 2.3-2.5 3.6-3.6 2.5-2 4.3-4.8 6.8-6.8.5-.4 1-.7 1.5-1.1.2-.1.4-.2.5-.3 1.7-1.8 3.2-3.9 5-5.5 2.4-2.1 4.3-4.6 6.6-6.7 2.3-2.1 4.5-2.2 6.7 0l4.1 4.1c.2-.2.4-.3.6-.5l12.2-12.2c.4-.4.5-.8.3-1.4-2.7-11 1.4-22.1 10.5-28.2C68.3 0 75.8-1.2 83.8 1.2c2.3.7 2.7 2.5 1 4.2L72.6 17.6c-.3.3-.5.6-.8.8 4 4 7.9 7.9 12 11.9.2-.2.4-.4.7-.6l12.4-12.4c1.7-1.7 3.5-1.2 4.1 1.1 4.7 15.2-5.1 30.9-20.8 33.5-2.9.5-5.7.5-8.6-.1-.2-.1-.6-.1-1-.1zm8.6-46.6-.3-.6c-2.2.1-4.4 0-6.6.4C59.4 7.1 51.5 20.5 55.7 33c.4 1.3.2 2.2-.7 3.2-2.6 2.5-5.1 5.1-7.7 7.6-.2.2-.4.5-.6.7 1.2 0 2.3-.1 3.4 0 4.1.3 8.2.7 12.2 1 2.8.2 5.6.7 8.3 1.5 3.2.9 6.4 1 9.6.4 9.6-2 16.2-9.1 17.4-18.8.2-1.7 0-3.5 0-5.2-.5.2-.8.4-1 .6L85.7 34.9c-1.5 1.5-2.5 1.5-4 0L67.3 20.5c-1.3-1.3-1.3-2.5.1-3.9L78.2 5.8c.2-.3.7-.5 1-.7zM35.7 99.4c.1-.1.3-.2.4-.4l30.6-30.6c.6-.6.7-1.2.7-2-.4-4.9-.8-9.8-1.2-14.8-.1-.9-.5-1.4-1.5-1.5-4.1-.3-8.2-.7-12.2-1-1.2-.1-2.3-.2-3.6-.2-.1 1.8-.3 3.4-.4 5.1.4.1.8.2 1.1.2 3.2.3 6.3.5 9.5.8 1.5.1 2.2.8 2.3 2.3.1.9.1 1.9.2 2.8.2 1.1-.2 2-1 2.7L30.8 92.6c-.3.3-.6.7-.9.9 2 2.1 3.9 4 5.8 5.9zM10.4 80.6c-1.6 1.7-3.2 3.2-4.5 4.9-1.5 1.8-1.8 4.1-1.2 6.3.7 2.9 2.5 4.9 5.4 5.7 3 .8 5.8.2 8-2.1l33.6-33.6c.8-.8 1.6-1.5 2.5-2.2-.1-.1-.1-.2-.2-.3-.2 0-.5-.1-.7-.1-1.7-.1-3.3-.2-5-.4-1.2-.2-2.1-.1-2.5 1.2-.1.4-.6.7-1 1.1-2 2.3-4.5 4.1-6.5 6.4-1.6 1.8-3.6 3.3-5.4 5-.1.1-.2.2-.3.4-.6.7-1.1 1.4-1.7 2.1-1.9 2-4.4 3.7-6.2 6-1.1 1.3-2.4 2.5-3.7 3.7-2.1 2.1-4.4 2.1-6.5 0-1.3-1.3-2.6-2.7-4.1-4.1zm34.8 28.3c8-8 16.1-16.1 24.1-24l-3.8-3.8c-8 8-16.1 16-24.1 24 1.3 1.2 2.6 2.6 3.8 3.8zM26.8 49.2c4 4 7.8 7.9 11.7 11.8 1-1 2.1-2.1 3.1-3.2.2-.2.1-.8-.1-.9-3.5-3.6-7.1-7.1-10.6-10.6-.2-.3-.7-.3-.9-.2-1.1 1-2.2 2.1-3.2 3.1zm-5.5 28.6-11-11c-.4-.4-.7-.4-1.1 0-.8.8-1.6 1.7-2.4 2.4-.6.6-.7.9 0 1.5 3.2 3.1 6.4 6.3 9.5 9.5.4.4.8 1 1.1 1.4 1.5-1.4 2.7-2.5 3.9-3.8zm3.4-3.1c1-1 2-2.1 3-3 .5-.5.5-.8 0-1.3-1.1-1-2.1-2.1-3.2-3.2-2.4-2.4-4.8-4.8-7.2-7.1-.2-.2-.8-.5-.8-.4-1.2 1.1-2.3 2.2-3.4 3.3 3.9 4 7.7 7.8 11.6 11.7zm-4.6-18.4c3.8 3.8 7.6 7.6 11.4 11.3 1.1-1.1 2.3-2.3 3.5-3.4L23.6 52.8c-1.2 1.1-2.3 2.3-3.5 3.5zm24.5-9.4c-1 .9-2.2 2-3.1 3l2.6 2.6c.1-1.9.3-3.9.5-5.6z"/></svg>