<svg width="26" height="27" viewBox="0 0 26 27" fill="none" xmlns="http://www.w3.org/2000/svg">
<path d="M25.8384 11.1754C25.6478 10.522 25.076 10.0591 24.3954 10.0047C24.1775 10.0047 23.9869 9.97746 23.7691 9.97746C23.5785 9.97746 23.388 9.95024 23.1974 9.95024C23.0612 9.62351 22.9251 9.26956 22.789 8.94284C22.6801 8.64334 22.5439 8.34385 22.4078 8.04435C22.5167 7.93544 22.6256 7.82653 22.7073 7.71763C22.8434 7.58149 22.9795 7.41813 23.1157 7.28199C23.6602 6.73745 23.7419 5.86619 23.3063 5.21275C22.6528 4.20535 21.836 3.36131 20.8831 2.76232C20.1752 2.29946 19.4945 2.35392 18.8411 2.92568C18.596 3.1435 18.351 3.36131 18.0515 3.68804C18.0515 3.68804 18.0515 3.68804 17.997 3.66081C17.4253 3.41577 16.799 3.17072 16.0911 2.87123V2.68064C16.0911 2.38114 16.0911 2.08165 16.0639 1.80938C16.0367 0.992568 15.6283 0.475255 14.8115 0.230213H14.7842C14.7298 0.202986 14.6753 0.202986 14.5936 0.175759L14.1852 0.148532C13.7496 0.0940781 13.3412 0.0396242 12.9056 0.0123973C12.2794 -0.0420567 11.7076 0.0940781 11.1903 0.202986C10.4824 0.366348 10.0195 0.910887 9.96507 1.64601C9.93784 1.99996 9.93784 2.38114 9.91061 2.73509V2.87123C9.28439 3.11627 8.63094 3.38854 7.9775 3.66081L7.81414 3.52467C7.62355 3.27963 7.35128 3.06182 7.10624 2.844C6.5617 2.38114 5.82657 2.32669 5.22758 2.70787C4.5469 3.11627 3.92068 3.63358 3.4306 4.2598C3.15833 4.5593 2.85883 4.94048 2.64101 5.34888C2.28706 5.9751 2.36875 6.60132 2.80438 7.11863C3.04942 7.3909 3.29446 7.66317 3.62119 8.01712C3.64841 8.04435 3.64841 8.04435 3.64841 8.04435C3.64841 8.04435 3.64841 8.07158 3.62119 8.0988C3.34892 8.72502 3.10387 9.37847 2.85883 9.97746C2.74992 9.97746 2.64101 9.97746 2.53211 9.97746H2.28706C2.15093 9.97746 2.01479 9.97746 1.90589 9.97746C0.98017 10.0047 0.435631 10.4403 0.217816 11.3116C0 11.965 0 12.6185 0 13.2447C0 13.2719 0 13.2992 0 13.3264C0 13.4081 0 13.4897 0 13.5986C0.027227 13.7076 0.027227 13.8437 0.027227 13.9526C0.0544539 14.2793 0.108908 14.606 0.190589 14.9328C0.408404 15.6134 0.925716 16.0218 1.63362 16.0763C1.93311 16.1035 2.25984 16.1035 2.55933 16.1035H2.8316C3.10387 16.7842 3.37614 17.4376 3.62119 18.0366L3.5395 18.1183C3.29446 18.3634 3.07665 18.6084 2.8316 18.8807C2.28706 19.5069 2.23261 20.1603 2.66824 20.8682C3.24001 21.794 4.02959 22.6108 5.03699 23.2914C5.77211 23.7815 6.48001 23.7543 7.16069 23.1553C7.43296 22.9375 7.678 22.6925 7.95027 22.4474C7.9775 22.4202 7.9775 22.4202 7.9775 22.4202C7.9775 22.4202 8.00472 22.4202 8.03195 22.4474C8.6854 22.7197 9.31162 22.9647 9.91061 23.2098V23.3459C9.91061 23.6454 9.91061 23.9449 9.93784 24.2444C9.96507 25.1157 10.4007 25.633 11.2447 25.8508C11.7893 25.9869 12.361 26.0414 12.9873 26.0414C13.0962 26.0414 13.2323 26.0414 13.3412 26.0414C13.913 26.0141 14.4575 25.9869 14.9748 25.7691C15.601 25.5241 15.955 25.0612 16.0094 24.435C16.0094 24.2172 16.0367 23.9993 16.0367 23.7815C16.0367 23.5637 16.0639 23.3731 16.0639 23.1553C16.4451 22.9919 16.799 22.8558 17.1802 22.7197C17.4525 22.6108 17.7247 22.5019 17.997 22.393C18.0787 22.4746 18.1876 22.5563 18.2693 22.638C18.4326 22.8014 18.596 22.9375 18.7594 23.1009C19.3311 23.6454 20.1752 23.7271 20.8286 23.2914C21.8632 22.6108 22.6801 21.794 23.279 20.841C23.7147 20.1331 23.6602 19.4797 23.1157 18.8534C22.8979 18.5812 22.6528 18.3361 22.4078 18.0911C22.3533 18.0366 22.3533 18.0366 22.3806 17.9277C22.6528 17.3287 22.8706 16.7025 23.1157 16.0763C23.5241 16.0491 23.9325 16.0491 24.3681 16.0218C24.9399 15.9946 25.4028 15.6679 25.675 15.1234C25.7295 15.0144 25.7839 14.8783 25.8112 14.715C25.9473 14.1432 25.9745 13.5714 25.9745 13.0541C26.029 12.4007 26.0017 11.8017 25.8384 11.1754ZM21.7816 15.4501C21.6182 15.8313 21.4821 16.1852 21.3187 16.5664C21.1826 16.8931 21.0464 17.1926 20.9103 17.5193C20.6653 18.0911 20.8014 18.6629 21.237 19.1529L21.2915 19.2074C21.5093 19.4252 21.7271 19.6703 21.9177 19.8881C21.9722 19.9425 21.9994 19.997 22.0266 19.997C22.0266 20.0242 21.9994 20.0514 21.9449 20.1059C21.4276 20.841 20.7742 21.4945 20.039 22.0118C19.9846 22.039 19.9574 22.0662 19.9301 22.0662C19.9029 22.039 19.8757 22.039 19.8212 21.9845C19.5217 21.7123 19.2495 21.4672 18.9772 21.2222C18.5416 20.8138 17.997 20.7049 17.398 20.9772C17.2619 21.0316 17.1258 21.0861 16.9896 21.1677C16.8535 21.2222 16.7446 21.2766 16.6084 21.3311C16.2545 21.4672 15.8461 21.6306 15.4377 21.794C14.8659 21.9845 14.5664 22.4202 14.4847 22.9919C14.4575 23.1553 14.4575 23.3187 14.4575 23.5093C14.4575 23.5909 14.4575 23.6998 14.4575 23.7815C14.4575 23.8904 14.4575 24.0266 14.4575 24.1355C14.4575 24.2988 14.4303 24.3533 14.4303 24.3533C14.4303 24.3533 14.3758 24.3805 14.2397 24.4077C13.3957 24.5711 12.5244 24.5711 11.6804 24.4077C11.6531 24.4077 11.6531 24.4077 11.6259 24.4077C11.517 24.3805 11.4625 24.3533 11.4353 24.3533C11.4353 24.3533 11.4081 24.2988 11.4081 24.1627C11.4081 23.9993 11.4081 23.836 11.3809 23.6454C11.3809 23.4276 11.3809 23.2098 11.3536 22.9919C11.3264 22.4474 11.0269 22.039 10.4824 21.8484C10.1284 21.7123 9.8017 21.5761 9.44775 21.4128C9.14826 21.2766 8.82153 21.1405 8.52204 21.0316C8.30422 20.9499 8.14086 20.8955 7.9775 20.8682C7.92304 20.8682 7.84136 20.8682 7.78691 20.8682C7.43296 20.8682 7.13346 21.0044 6.86119 21.2494C6.58892 21.5217 6.28943 21.794 6.04438 22.0118C5.98993 22.0662 5.93548 22.0935 5.93548 22.0935C5.90825 22.0935 5.88102 22.0662 5.82657 22.0118C5.03699 21.4945 4.41077 20.841 3.92068 20.0514C3.89345 20.0242 3.89345 19.997 3.89345 19.997C3.89345 19.997 3.92068 19.9698 3.94791 19.9425C4.16572 19.6975 4.41077 19.4252 4.68304 19.1257C5.17312 18.6356 5.2548 18.0094 4.92808 17.2743C4.76472 16.8931 4.60136 16.5119 4.43799 16.1308C4.38354 15.9674 4.30186 15.8313 4.24741 15.6679C4.24741 15.6407 4.22018 15.6134 4.22018 15.5862C4.22018 15.5318 4.19295 15.5045 4.16572 15.4501C3.94791 14.9055 3.51228 14.606 2.94051 14.5788C2.69547 14.5788 2.45043 14.5516 2.20538 14.5516C2.09648 14.5516 1.96034 14.5516 1.85143 14.5516C1.68807 14.5516 1.63362 14.5244 1.63362 14.5244C1.63362 14.5244 1.60639 14.4699 1.55194 14.3065C1.44303 13.7892 1.38857 13.1902 1.44303 12.5368C1.47026 12.2373 1.52471 11.9378 1.57916 11.6655C1.60639 11.5839 1.60639 11.5566 1.60639 11.5566C1.60639 11.5566 1.63362 11.5294 1.74253 11.5294C2.09648 11.5022 2.45043 11.5022 2.77715 11.5022C3.45782 11.5022 3.94791 11.1482 4.19295 10.4675C4.43799 9.78687 4.68304 9.24233 4.90085 8.75225C5.22758 8.07158 5.14589 7.47258 4.62858 6.92804L4.46522 6.73745C4.30186 6.54687 4.11127 6.35628 3.94791 6.16569C3.89345 6.11124 3.89345 6.08401 3.86623 6.05678C3.86623 6.02955 3.89345 6.00233 3.92068 5.94787C4.41077 5.18552 5.06421 4.53207 5.8538 4.04199C5.88102 4.04199 5.90825 4.01476 5.93548 3.98753C5.9627 4.01476 6.01716 4.04199 6.01716 4.06921C6.18052 4.23258 6.37111 4.36871 6.53447 4.53207C6.6706 4.64098 6.80674 4.77711 6.91565 4.88602C7.32405 5.23997 7.78691 5.32165 8.35868 5.10384C8.49481 5.04938 8.65817 4.9677 8.79431 4.91325C8.90321 4.8588 9.01212 4.80434 9.0938 4.77711C9.55666 4.58653 9.96507 4.42316 10.3735 4.28703C11.0269 4.04199 11.3809 3.5519 11.3536 2.81677C11.3536 2.51728 11.3536 2.19055 11.3536 1.89106C11.3536 1.70047 11.3809 1.67324 11.5715 1.64601C12.5244 1.48265 13.3684 1.48265 14.1308 1.67324C14.1852 1.70047 14.2669 1.70047 14.3214 1.7277C14.3486 1.7277 14.3486 1.7277 14.3486 1.75492C14.3486 2.05442 14.3758 2.32669 14.3758 2.62618C14.3758 2.76232 14.3758 2.92568 14.4031 3.06182C14.4575 3.66081 14.7842 4.09644 15.356 4.28703C16.0911 4.53207 16.7718 4.83157 17.398 5.15829C17.6158 5.2672 17.997 5.37611 18.4599 5.10384C18.7049 4.9677 18.8955 4.80434 19.1133 4.64098L19.2495 4.53207C19.4128 4.39594 19.5762 4.2598 19.7123 4.12367L19.7668 4.06921C19.794 4.04199 19.794 4.04199 19.794 4.04199C19.794 4.04199 19.8212 4.04199 19.8484 4.06921C20.3113 4.36871 20.7469 4.72266 21.1553 5.18552C21.4004 5.45779 21.6454 5.78451 21.836 6.08401C21.836 6.11123 21.8632 6.11123 21.8632 6.13846C21.8632 6.13846 21.836 6.16569 21.8088 6.19292C21.5365 6.51964 21.237 6.84636 20.9648 7.14586C20.6108 7.52704 20.5291 7.96267 20.7197 8.53443C20.7469 8.64334 20.8014 8.72502 20.8286 8.83393C20.8558 8.88838 20.8831 8.91561 20.8831 8.97007L21.0737 9.4057C21.237 9.78687 21.4004 10.1681 21.5365 10.5492C21.8088 11.2299 22.19 11.5294 22.8979 11.5566C23.1157 11.5566 23.3063 11.5839 23.5241 11.5839C23.6602 11.5839 23.7964 11.5839 23.9325 11.5839C24.0959 11.5839 24.1231 11.6111 24.1231 11.6111C24.1231 11.6111 24.1503 11.6383 24.1775 11.8017C24.3409 12.5912 24.3409 13.4081 24.2048 14.2249C24.1503 14.606 24.1503 14.606 23.7419 14.606C23.6602 14.606 23.5785 14.606 23.5241 14.606H23.1429V14.6333C23.034 14.6333 22.9251 14.6333 22.8162 14.6333C22.435 14.6333 21.9994 14.9328 21.7816 15.4501Z" fill="#00A2D3"/>
<path d="M13.0417 7.00974C9.74723 7.00974 7.02454 9.67798 6.97008 12.9452C6.91563 16.2941 9.50219 18.9896 12.8511 19.0713C12.9056 19.0713 12.96 19.0713 13.0145 19.0713C14.6209 19.0713 16.1183 18.4451 17.2619 17.3287C18.4326 16.1852 19.0589 14.6061 19.0316 13.0541C19.0589 11.5022 18.4326 9.97747 17.3163 8.83394C16.1728 7.66318 14.6481 7.00974 13.0417 7.00974ZM8.35866 12.9997C8.33143 11.8561 8.79429 10.7126 9.63832 9.81411C10.5368 8.88839 11.7076 8.37108 12.9872 8.37108H13.0145C14.2669 8.37108 15.4649 8.88839 16.3634 9.81411C17.2619 10.7398 17.6975 11.965 17.643 13.2447C17.5341 15.7496 15.356 17.7372 12.7967 17.6555C10.3462 17.6282 8.3042 15.4773 8.35866 12.9997Z" fill="#00A2D3"/>
</svg>
