<svg width="21" height="21" viewBox="0 0 21 21" fill="none" xmlns="http://www.w3.org/2000/svg">
<g clip-path="url(#clip0_31_6833)">
<path fill-rule="evenodd" clip-rule="evenodd" d="M10.5 0C13.358 0 13.7308 0 14.8491 0.0619469C15.9675 0.123894 16.713 0.309734 17.3965 0.557522C18.0799 0.80531 18.7012 1.17699 19.2604 1.73451C19.8195 2.29204 20.1923 2.9115 20.4408 3.59292C20.6894 4.27434 20.8757 5.0177 20.9379 6.13274C21 7.24779 21 7.61947 21 10.469C21 13.3186 21 13.6903 20.9379 14.8053C20.8757 15.9204 20.6894 16.6637 20.4408 17.3451C20.1923 18.0265 19.8195 18.646 19.2604 19.2035C18.7012 19.7611 18.0799 20.1327 17.3965 20.3805C16.713 20.6283 15.9675 20.8142 14.8491 20.8761C13.7308 20.9381 13.358 20.9381 10.5 20.9381C7.64201 20.9381 7.26923 20.9381 6.15089 20.8761C5.03254 20.8142 4.28698 20.6283 3.60355 20.3805C2.92012 20.1327 2.29882 19.7611 1.73964 19.2035C1.18047 18.646 0.807692 18.0265 0.559172 17.3451C0.310651 16.6637 0.12426 15.9204 0.0621302 14.8053C0 13.6903 0 13.3186 0 10.469C0 7.61947 0 7.24779 0.0621302 6.13274C0.12426 5.0177 0.310651 4.27434 0.559172 3.59292C0.807692 2.9115 1.18047 2.29204 1.73964 1.73451C2.29882 1.17699 2.92012 0.80531 3.60355 0.557522C4.28698 0.309734 5.03254 0.123894 6.15089 0.0619469C7.26923 0 7.64201 0 10.5 0ZM14.7249 1.92035C13.6065 1.92035 13.2959 1.85841 10.5 1.85841C7.70414 1.85841 7.39349 1.85841 6.27515 1.92035C5.21894 1.9823 4.65976 2.16814 4.28698 2.29204C3.78994 2.47788 3.47929 2.72566 3.10651 3.09734C2.73373 3.46903 2.48521 3.77876 2.29882 4.27434C2.17456 4.64602 1.98817 5.20354 1.92604 6.19469C1.92604 7.30973 1.86391 7.68142 1.86391 10.469C1.86391 13.2566 1.86391 13.5664 1.92604 14.6814C1.98817 15.6726 2.17456 16.2301 2.29882 16.6018C2.48521 17.0973 2.73373 17.469 3.10651 17.8407C3.47929 18.2124 3.85207 18.4602 4.28698 18.646C4.65976 18.7699 5.21894 18.9558 6.21302 19.0177C7.33136 19.0796 7.64201 19.0796 10.4379 19.0796C13.2337 19.0796 13.5444 19.0796 14.6627 19.0177C15.6568 18.9558 16.216 18.7699 16.5888 18.646C17.0858 18.4602 17.4586 18.2124 17.7692 17.8407C18.142 17.469 18.3905 17.0973 18.5769 16.6637C18.7012 16.292 18.8876 15.7345 18.9497 14.7434C19.0118 13.6283 19.0118 13.3186 19.0118 10.531C19.0118 7.74336 19.0118 7.43363 18.9497 6.31858C18.8876 5.32743 18.7012 4.76991 18.5769 4.39823C18.3905 3.90265 18.142 3.53097 17.7692 3.22124C17.3965 2.84956 17.0237 2.60177 16.5888 2.41593C16.3402 2.16814 15.7811 1.9823 14.7249 1.92035ZM10.5 13.9381C12.426 13.9381 13.9793 12.3894 13.9793 10.469C13.9793 8.54867 12.426 7 10.5 7C8.57396 7 7.02071 8.54867 7.02071 10.469C7.02071 12.3894 8.57396 13.9381 10.5 13.9381ZM10.5 5.07965C13.4822 5.07965 15.9053 7.49557 15.9053 10.469C15.9053 13.4425 13.4822 15.8584 10.5 15.8584C7.51775 15.8584 5.09467 13.4425 5.09467 10.469C5.09467 7.49557 7.51775 5.07965 10.5 5.07965ZM17.3343 4.89381C17.3343 5.57522 16.7751 6.13274 16.0917 6.13274C15.4083 6.13274 14.8491 5.57522 14.8491 4.89381C14.8491 4.21239 15.4083 3.65487 16.0917 3.65487C16.7751 3.59292 17.3343 4.21239 17.3343 4.89381Z" fill="#00A2D3"/>
</g>
<defs>
<clipPath id="clip0_31_6833">
<rect width="21" height="21" fill="white"/>
</clipPath>
</defs>
</svg>
