<svg width="20" height="20" viewBox="0 0 20 20" fill="none" xmlns="http://www.w3.org/2000/svg">
<g clip-path="url(#clip0_31_6839)">
<path d="M0 20L1.42574 14.8819C0.554455 13.3858 0.0792079 11.6929 0.0792079 9.92126C0.0792079 4.44882 4.55446 0 10.0198 0C12.6733 0 15.1683 1.02362 17.0693 2.91339C18.9307 4.80315 20 7.28346 20 9.92126C20 15.3937 15.5248 19.8031 10.0594 19.8031C8.39604 19.8031 6.77228 19.3701 5.30693 18.5827L0 20ZM5.50495 16.811L5.82178 17.0079C7.08911 17.7559 8.55445 18.1496 10.0198 18.1496C14.5743 18.1496 18.297 14.4488 18.297 9.92126C18.297 7.71654 17.4257 5.66929 15.8812 4.09449C14.3366 2.55905 12.2376 1.69291 10.0198 1.69291C5.46535 1.69291 1.74257 5.3937 1.74257 9.92126C1.74257 11.4567 2.17822 12.9921 3.0099 14.2913L3.20792 14.6063L2.37624 17.6378L5.50495 16.811Z" fill="#00A2D3"/>
<path fill-rule="evenodd" clip-rule="evenodd" d="M15.0495 12.2835C14.9703 12.1654 14.8119 12.126 14.5743 12.0079C14.3366 11.8898 13.1089 11.2993 12.8713 11.2205C12.6337 11.1418 12.4752 11.1024 12.3168 11.3386C12.1584 11.5748 11.6832 12.126 11.5248 12.3229C11.3663 12.4804 11.2475 12.5197 10.9703 12.4016C10.7327 12.2835 9.90099 12.0079 8.9505 11.1811C8.19802 10.5119 7.72277 9.72446 7.56436 9.44887C7.40594 9.21265 7.56436 9.05517 7.68317 8.93706C7.80198 8.81894 7.92079 8.66146 8.03961 8.50398C8.15842 8.3465 8.19802 8.26776 8.27723 8.11028C8.35644 7.9528 8.31683 7.79532 8.23763 7.67721C8.15842 7.5591 7.68317 6.33863 7.48515 5.82682C7.28713 5.35438 7.08911 5.39375 6.93069 5.39375C6.77228 5.39375 6.61386 5.39375 6.45545 5.39375C6.29703 5.39375 6.0198 5.47249 5.78218 5.70871C5.54456 5.94493 4.91089 6.53548 4.91089 7.75595C4.91089 8.97643 5.82178 10.1575 5.9406 10.315C6.05941 10.4725 7.68317 12.9922 10.1782 14.0552C10.7723 14.2914 11.2475 14.4489 11.604 14.567C12.198 14.7638 12.7525 14.7245 13.1881 14.6457C13.6634 14.567 14.6535 14.0552 14.8515 13.4646C15.1287 12.8741 15.1287 12.3623 15.0495 12.2835Z" fill="#00A2D3"/>
</g>
<defs>
<clipPath id="clip0_31_6839">
<rect width="20" height="20" fill="white"/>
</clipPath>
</defs>
</svg>
