<svg width="22" height="18" viewBox="0 0 22 18" fill="none" xmlns="http://www.w3.org/2000/svg">
<g clip-path="url(#clip0_31_6835)">
<path fill-rule="evenodd" clip-rule="evenodd" d="M1.52335 7.7393C7.43961 5.18288 11.372 3.53696 13.3204 2.6965C18.9533 0.420233 20.1224 0 20.8663 0C21.0435 0 21.3977 0.0350194 21.6457 0.245136C21.8583 0.420233 21.8937 0.63035 21.9291 0.770428C21.9646 0.945525 22 1.29572 21.9646 1.57588C21.6457 4.72763 20.3349 12.4319 19.6618 15.9689C19.3784 17.4747 18.8116 17.965 18.2802 18.035C17.1111 18.1401 16.2254 17.2646 15.0564 16.5292C13.285 15.3735 12.2576 14.6381 10.5217 13.5175C8.53784 12.2218 9.8132 11.4864 10.9469 10.3307C11.2303 10.0156 16.438 5.35798 16.5089 4.93774C16.5089 4.8677 16.5443 4.69261 16.4026 4.58755C16.2609 4.48249 16.1192 4.51751 15.9775 4.55253C15.8003 4.58755 12.9662 6.44358 7.43961 10.1206C6.6248 10.6809 5.91626 10.9261 5.24315 10.9261C4.53462 10.9261 3.11755 10.5058 2.09017 10.1907C0.814811 9.77043 -0.177137 9.56031 -0.106284 8.85992C0.0354234 8.50973 0.566824 8.12451 1.52335 7.7393Z" fill="#00A2D3"/>
</g>
<defs>
<clipPath id="clip0_31_6835">
<rect width="22" height="18" fill="white"/>
</clipPath>
</defs>
</svg>
