<svg width="24" height="17" viewBox="0 0 24 17" fill="none" xmlns="http://www.w3.org/2000/svg">
<g clip-path="url(#clip0_31_6843)">
<path d="M23.4907 2.64015C23.2361 1.60985 22.4085 0.772727 21.3899 0.515152C19.5119 0 12 0 12 0C12 0 4.48806 0 2.61008 0.515152C1.59151 0.772727 0.763926 1.60985 0.509284 2.64015C0 4.53977 0 8.5 0 8.5C0 8.5 0 12.4602 0.509284 14.3277C0.795756 15.358 1.59151 16.1951 2.64191 16.4848C4.51989 17 12.0318 17 12.0318 17C12.0318 17 19.5438 17 21.4218 16.4848C22.4403 16.1951 23.2679 15.3902 23.5544 14.3277C24.0637 12.428 24.0637 8.5 24.0637 8.5C24.0637 8.5 24 4.53977 23.4907 2.64015ZM9.61273 12.1383V4.86174L15.8515 8.5L9.61273 12.1383Z" fill="#00A2D3"/>
</g>
<defs>
<clipPath id="clip0_31_6843">
<rect width="24" height="17" fill="white"/>
</clipPath>
</defs>
</svg>
