<svg width="19" height="19" viewBox="0 0 19 19" fill="none" xmlns="http://www.w3.org/2000/svg">
<g clip-path="url(#clip0_31_6826)">
<path d="M8.82828 0C8.95623 0 9.14815 0 9.27609 0C9.27609 0.767677 9.21212 1.53535 9.21212 2.30303C9.14815 3.3266 9.08418 4.41414 8.76431 5.37374C8.3165 6.97306 7.29293 8.06061 5.75758 8.63636C4.79798 8.95623 3.83838 9.14815 2.81481 9.14815C1.91919 9.27609 0.959596 9.27609 0 9.27609C0 9.14815 0 8.95623 0 8.82828C0.0639731 8.50842 0.0639731 8.18855 0.127946 7.86869C0.447811 6.01347 1.27946 4.41414 2.55892 3.00673C4.0303 1.47138 5.75758 0.511784 7.86869 0.127946C8.18855 0.0639731 8.50842 0.0639731 8.82828 0Z" fill="#00A2D3"/>
<path d="M5.88596e-07 9.85181C1.21549 9.91578 2.43098 9.97975 3.64647 10.0437C4.60606 10.1077 5.56566 10.3636 6.46128 10.8114C7.74074 11.5151 8.50842 12.6026 8.82828 13.9461C9.08418 14.9057 9.21212 15.8653 9.21212 16.8888C9.27609 17.5925 9.2761 18.2963 9.2761 19C9.14815 19 8.95623 19 8.82828 19C8.50842 18.936 8.18855 18.936 7.86869 18.872C5.6936 18.4882 3.83838 17.4646 2.367 15.8653C1.15152 14.5218 0.383839 12.9225 0.0639737 11.1313C5.88596e-07 10.8114 -0.0639725 10.4915 -0.0639725 10.1077C5.88596e-07 10.0437 5.88596e-07 9.91578 5.88596e-07 9.85181Z" fill="#00A2D3"/>
<path d="M19 9.27609C18.1044 9.21212 17.2088 9.21212 16.3131 9.14815C15.4815 9.08418 14.6498 8.95623 13.8182 8.76431C11.963 8.25253 10.8114 7.03704 10.3636 5.24579C10.1077 4.2862 9.9798 3.3266 9.9798 2.367C9.91583 1.59933 9.91582 0.767677 9.91582 0C9.9798 0 10.1077 0 10.1717 0C10.4916 0.0639731 10.8114 0.0639731 11.1313 0.127946C12.9226 0.447811 14.5859 1.27946 15.9293 2.55892C17.4646 4.0303 18.4242 5.75758 18.8081 7.86869C18.8721 8.18855 18.936 8.57239 18.936 8.89226C19 9.0202 19 9.14815 19 9.27609Z" fill="#00A2D3"/>
<path d="M9.85185 19C9.91583 18.1043 9.91583 17.2087 9.9798 16.3131C10.0438 15.4175 10.1717 14.5218 10.4276 13.6262C10.9394 11.9629 12.0909 10.8754 13.8182 10.3636C14.7778 10.1077 15.8013 9.97975 16.8249 9.91578C17.5286 9.85181 18.2963 9.85181 19 9.85181C19 9.91578 19 10.0437 19 10.1077C18.936 10.4276 18.936 10.7474 18.8721 11.0673C18.5522 12.9225 17.7205 14.5858 16.4411 15.9292C14.9697 17.4646 13.2424 18.4242 11.1313 18.808C10.8114 18.872 10.4276 18.936 10.1077 18.936C10.0438 19 9.91583 19 9.85185 19Z" fill="#00A2D3"/>
</g>
<defs>
<clipPath id="clip0_31_6826">
<rect width="19" height="19" fill="white"/>
</clipPath>
</defs>
</svg>
