<?xml version="1.0" encoding="utf-8"?>
<!-- Generator: Adobe Illustrator 24.0.2, SVG Export Plug-In . SVG Version: 6.00 Build 0)  -->
<svg version="1.1" id="Layer_1" xmlns="http://www.w3.org/2000/svg" xmlns:xlink="http://www.w3.org/1999/xlink" x="0px" y="0px"
	 viewBox="0 0 115 115" style="enable-background:new 0 0 115 115;" xml:space="preserve" fill="#fff">
<path d="M59.8,0c1.3,0.1,2.6,0.2,3.9,0.4c4.5,0.4,8.9,1.5,13.2,3c3.8,1.3,7.4,3.1,10.8,5.2c0.7,0.4,1.3,0.9,1.5,1.7
	c0.2,1-0.1,1.9-0.9,2.5c-0.8,0.6-1.8,0.6-2.8,0.1c-1.9-1.1-3.8-2.2-5.8-3.2c-5.1-2.4-10.4-3.9-16-4.5c-5.1-0.6-10.2-0.5-15.3,0.4
	C42.3,6.7,36.5,8.8,31.1,12c-7.7,4.5-14,10.6-18.6,18.3c-3.3,5.4-5.6,11.3-6.7,17.6c-1.1,6-1.2,12.1-0.2,18.1
	c2.1,12.7,8.1,23.3,17.9,31.6c7.2,6.2,15.5,10.1,24.9,11.8c5.7,1,11.5,1.1,17.2,0.2c8.5-1.3,16.1-4.5,23-9.5
	c1.5-1.1,3.5-0.4,3.9,1.3c0.3,1-0.1,2-1.1,2.7c-3.7,2.7-7.7,5-12,6.7c-5,2-10.1,3.4-15.5,3.9c-1.3,0.1-2.6,0.2-3.9,0.4
	c-1.6,0-3.2,0-4.7,0c-0.3,0-0.5-0.1-0.8-0.1c-3.6-0.2-7.1-0.7-10.6-1.6c-10.4-2.6-19.4-7.7-27-15.3C10.6,91.9,6.1,84.6,3.2,76.4
	C1.8,72.2,0.8,68,0.4,63.7c-0.1-1.3-0.2-2.6-0.4-3.9c0-1.5,0-3.1,0-4.6c0.2-1.7,0.3-3.3,0.5-5c1-8.1,3.6-15.6,7.9-22.6
	c5.7-9.3,13.5-16.5,23.2-21.5C37.8,3,44.3,1.1,51.1,0.4c1.4-0.1,2.7-0.2,4.1-0.4C56.7,0,58.3,0,59.8,0z"/>
<path d="M115,59.8c-0.1,1.3-0.2,2.6-0.4,3.9c-0.4,4.5-1.5,8.9-3,13.1c-2.5,7.1-6.3,13.4-11.2,19c-0.7,0.8-1.6,1.2-2.7,0.9
	c-1-0.3-1.6-1-1.7-2c-0.1-0.8,0.2-1.4,0.7-2c2.7-3,5.1-6.4,7-9.9c2.8-5.1,4.7-10.6,5.6-16.3c1-5.7,1-11.4,0.1-17.1
	c-1.3-7.9-4.2-15.2-8.8-21.7c-1.1-1.5-2.2-2.9-3.4-4.4c-0.9-1.2-0.9-2.6,0.2-3.5c1.1-0.9,2.5-0.8,3.5,0.4
	c7.3,8.5,11.8,18.3,13.4,29.4c0.2,1.7,0.3,3.4,0.5,5.1c0,0.3,0.1,0.5,0.1,0.8C115,56.7,115,58.3,115,59.8z"/>
<path d="M69,57.5c0,6,0,12.1,0,18.1c0,1.8-1.2,3-2.9,2.7c-0.5-0.1-1-0.4-1.4-0.7c-3.5-3.1-7-6.1-10.5-9.2c-0.4-0.3-0.7-0.5-1.2-0.5
	c-3.7,0-7.4,0-11.1,0c-2,0-2.9-0.9-2.9-2.9c0-5.6,0-11.2,0-16.8c0-1.7,1-2.7,2.7-2.7c3.5,0,7.1,0,10.6,0c0.3,0,0.7-0.1,1-0.3
	c3.9-2.7,7.7-5.3,11.6-8c0.9-0.6,1.8-0.8,2.8-0.4c1,0.5,1.4,1.4,1.4,2.5c0,3.7,0,7.5,0,11.2C69,52.9,69,55.2,69,57.5z M64,43.7
	c-3,2.1-5.8,4-8.7,6c-0.7,0.5-1.5,0.7-2.3,0.7c-2.8,0-5.6,0-8.4,0c-0.2,0-0.5,0-0.7,0c0,4.2,0,8.4,0,12.6c0.2,0,0.5,0,0.7,0
	c3.2,0,6.5,0,9.7,0c0.9,0,1.6,0.3,2.2,0.8c1.2,1.1,2.5,2.2,3.8,3.3c1.3,1.1,2.5,2.2,3.8,3.4C64,61.6,64,52.7,64,43.7z"/>
<path d="M104.2,57.2c-0.1,10.2-3.1,19.1-9.1,27c-1.1,1.4-2.4,2.8-3.6,4.1c-1,1.1-2.5,1.1-3.5,0.1c-1-1-1-2.4,0.1-3.5
	c3.7-3.8,6.6-8.1,8.6-13.1c1.5-3.8,2.4-7.7,2.6-11.8c0.5-7-0.9-13.6-4-19.9C93.4,36.4,90.9,33,88,30c-1.4-1.5-0.9-3.6,1.1-4.1
	c0.9-0.2,1.7,0.1,2.4,0.8c3,3,5.5,6.4,7.6,10.2c2.8,5.2,4.4,10.8,5,16.6C104.1,54.8,104.1,56.2,104.2,57.2z"/>
<path d="M84.1,57.2c0-5.7-2.1-11.4-6.7-16.2c-0.6-0.7-1.1-1.4-0.9-2.3c0.2-1,0.7-1.7,1.7-2c1-0.3,1.8,0,2.6,0.7
	c1.9,2,3.6,4.2,4.9,6.6c2.4,4.6,3.5,9.4,3.3,14.6c-0.3,7.3-3,13.6-8.1,18.9c-0.7,0.8-1.6,1.1-2.7,0.8c-0.9-0.3-1.5-1-1.7-1.9
	c-0.2-0.9,0.3-1.6,0.9-2.4c1.2-1.4,2.3-2.8,3.3-4.3C82.9,66.2,83.9,62.3,84.1,57.2z"/>
</svg>
