<svg  class="main-svg-sprite main-svg-sprite--icons" xmlns="http://www.w3.org/2000/svg" xmlns:xlink="http://www.w3.org/1999/xlink"><symbol viewBox="0 0 29.7 29.7" id="dzen" xmlns="http://www.w3.org/2000/svg"><path d="M13.8 0h.7c0 1.2-.1 2.4-.1 3.6-.1 1.6-.2 3.3-.7 4.8-.7 2.5-2.3 4.2-4.7 5.1-1.5.5-3 .8-4.6.8-1.4.2-2.9.2-4.4.2v-.7c.1-.5.1-1 .2-1.5C.7 9.4 2 6.9 4 4.7 6.3 2.3 9 .8 12.3.2c.5-.1 1-.1 1.5-.2zM0 15.4l5.7.3c1.5.1 3 .5 4.4 1.2 2 1.1 3.2 2.8 3.7 4.9.4 1.5.6 3 .6 4.6.1 1.1.1 2.2.1 3.3h-.7c-.5-.1-1-.1-1.5-.2-3.4-.6-6.3-2.2-8.6-4.7C1.8 22.7.6 20.2.1 17.4c-.1-.5-.2-1-.2-1.6.1-.1.1-.3.1-.4zm29.7-.9c-1.4-.1-2.8-.1-4.2-.2-1.3-.1-2.6-.3-3.9-.6-2.9-.8-4.7-2.7-5.4-5.5-.4-1.5-.6-3-.6-4.5-.1-1.2-.1-2.5-.1-3.7h.4c.5.1 1 .1 1.5.2C20.2.7 22.8 2 24.9 4c2.4 2.3 3.9 5 4.5 8.3.1.5.2 1.1.2 1.6.1.2.1.4.1.6zM15.4 29.7c.1-1.4.1-2.8.2-4.2.1-1.4.3-2.8.7-4.2.8-2.6 2.6-4.3 5.3-5.1 1.5-.4 3.1-.6 4.7-.7 1.1-.1 2.3-.1 3.4-.1v.4c-.1.5-.1 1-.2 1.5-.5 2.9-1.8 5.5-3.8 7.6-2.3 2.4-5 3.9-8.3 4.5-.5.1-1.1.2-1.6.2-.1.1-.3.1-.4.1z"/></symbol><symbol viewBox="0 0 16.4 30.8" id="facebook" xmlns="http://www.w3.org/2000/svg"><path d="M10.9 17.3h4.5l.9-5.6H11V8.1c0-1.5.7-3 3.1-3h2.4V.4S14.3 0 12.2 0C7.7 0 4.9 2.7 4.9 7.5v4.3H0v5.6h4.9v13.5h6V17.3z"/></symbol><symbol viewBox="0 0 33.8 33.9" id="inst" xmlns="http://www.w3.org/2000/svg"><path d="M16.9 0c4.6 0 5.2 0 7 .1 1.8.1 3 .4 4.1.8 1.1.4 2.1 1 3 1.9.9.9 1.5 1.9 1.9 3 .4 1.1.7 2.3.8 4.1.1 1.8.1 2.4.1 7s0 5.2-.1 7c-.1 1.8-.4 3-.8 4.1-.4 1.1-1 2.1-1.9 3-.9.9-1.9 1.5-3 1.9-1.1.4-2.3.7-4.1.8-1.8.1-2.4.1-7 .1s-5.2 0-7-.1c-1.8-.1-3-.4-4.1-.8-1.1-.4-2.1-1-3-1.9-.9-.9-1.5-1.9-1.9-3-.4-1.1-.7-2.3-.8-4.1-.1-1.8-.1-2.4-.1-7s0-5.2.1-7c.1-1.8.4-3 .8-4.1.4-1.1 1-2.1 1.9-3 .9-.9 1.9-1.5 3-1.9C6.9.5 8.1.2 9.9.1c1.8-.1 2.4-.1 7-.1zm6.8 3.1c-1.8 0-2.3-.1-6.8-.1s-5 0-6.8.1c-1.7.1-2.6.4-3.2.6C6.1 4 5.6 4.4 5 5c-.6.6-1 1.1-1.3 1.9-.2.6-.5 1.5-.6 3.1 0 1.8-.1 2.4-.1 6.9s0 5 .1 6.8c.1 1.6.4 2.5.6 3.1.3.8.7 1.4 1.3 2 .6.6 1.2 1 1.9 1.3.6.2 1.5.5 3.1.6 1.8.1 2.3.1 6.8.1s5 0 6.8-.1c1.6-.1 2.5-.4 3.1-.6.8-.3 1.4-.7 1.9-1.3.6-.6 1-1.2 1.3-1.9.2-.6.5-1.5.6-3.1.1-1.8.1-2.3.1-6.8s0-5-.1-6.8c-.1-1.6-.4-2.5-.6-3.1-.3-.8-.7-1.4-1.3-1.9-.6-.6-1.2-1-1.9-1.3-.4-.4-1.3-.7-3-.8zm-6.8 19.4c3.1 0 5.6-2.5 5.6-5.6 0-3.1-2.5-5.6-5.6-5.6-3.1 0-5.6 2.5-5.6 5.6 0 3.1 2.5 5.6 5.6 5.6zm0-14.3c4.8 0 8.7 3.9 8.7 8.7 0 4.8-3.9 8.7-8.7 8.7-4.8 0-8.7-3.9-8.7-8.7 0-4.8 3.9-8.7 8.7-8.7zm11-.3c0 1.1-.9 2-2 2s-2-.9-2-2 .9-2 2-2c1.1-.1 2 .9 2 2z" clip-rule="evenodd"/></symbol><symbol viewBox="0 0 208.1 193.4" id="nav-1" xmlns="http://www.w3.org/2000/svg"><path d="M205.5 98.6c-31.8-31.8-63.6-63.5-95.4-95.3-1.3-1.3-2.9-2.7-5.2-3.2h-1.8c-2.1.4-3.7 1.8-5.1 3.1-20.6 20.7-41.3 41.4-62 62.1L17.4 83.8 2.3 98.9c-2 2-2.7 4.2-2.1 6.7.6 2.6 2.3 4.4 4.8 5.1 2.5.7 4.9 0 6.8-1.9l12.4-12.4v75.2c0 1.1 0 2.2.2 3.3 1.6 10.9 10.5 18.5 21.6 18.6h32.9c4.9 0 7.7-2.8 7.7-7.8v-40.8h41.3c2 0 3.8-.7 5.2-1.9 1.4-1.3 2.1-3 2.1-5 0-3.9-3.1-6.8-7.2-6.8H80.2c-4.3 0-7.2 2.9-7.2 7.3v41.3H46.3c-4.9 0-8.2-3.3-8.2-8.1V82.9c0-.1.1-.2.1-.3 20.9-21 41.8-42 62.8-62.9l3-3 84.7 84.6 7.7 7.7c1.9 1.8 4.3 2.4 6.8 1.7 2.5-.8 4.2-2.6 4.7-5.2.8-3.7-1.6-6.1-2.4-6.9z"/><path d="M183.8 136.2v-17.6c0-3.5-2.6-6.4-5.9-6.8-3.5-.4-6.6 1.7-7.5 4.9-.2.9-.3 1.8-.3 2.6v52.1c0 4.9-3.3 8.2-8.2 8.2h-33.6c-3.7 0-6.6 2.8-6.8 6.6-.1 3.6 2.4 6.6 6 7.1.7.1 1.3.1 1.8.1h32.2c1.1 0 2.5 0 3.9-.3 10.7-1.7 18.2-10.5 18.3-21.4v-25.8l.1-9.7z"/></symbol><symbol viewBox="0 0 89.8 119.3" id="nav-10" xmlns="http://www.w3.org/2000/svg"><path d="M89.8 80.9V30.6c0-1-.1-1.8-.3-2.5-.9-3.4-3.9-5.9-7.5-5.9H67.5V22l-.1-.7c-.1-1.3-.3-2.6-.6-3.9C64.1 5.8 52.8-1.7 41 .3 30.5 2.2 22.6 11.3 22.3 22v.2H8.4c-1.6 0-2.6.2-3.6.7C1.6 24.4 0 27 0 30.5v81.4c.3 3.8 3 6.8 6.7 7.3.7.1 1.5.1 2.2.1h72.7c1.9 0 3.5-.5 4.8-1.5 2.2-1.6 3.4-3.9 3.4-6.8-.1-10 0-20.1 0-30.1zM30.7 22.1c.1-3.4 1.7-7 4.2-9.6 1.9-1.9 5.1-4.1 10-4.1 4.8 0 8.1 2.2 9.9 4.1 2.6 2.6 4.1 6.2 4.3 9.6H30.7zm50.6 8.5v80.3H8.4V30.6h72.9z"/><path d="M34.1 45.4h22.3c1.6-.2 2.8-1 3.4-2.5.6-1.3.5-2.7-.3-3.9-.8-1.2-2.2-1.9-3.7-1.9h-22c-1.5 0-2.9.7-3.7 2-.8 1.2-.9 2.6-.3 3.9.9 1.5 2.3 2.4 4.3 2.4z"/></symbol><symbol viewBox="0 0 83 83" id="nav-11" xmlns="http://www.w3.org/2000/svg"><path d="M77.5 83h-72c-.1 0-.2-.1-.2-.1-2.6-.5-4.3-2-5.1-4.6-.1-.3-.1-.6-.2-.9v-72c0-.1.1-.1.1-.2C.5 2.9 1.7 1.3 3.8.4 4.3.3 4.9.2 5.5 0h72c.1 0 .2.1.2.1 2.6.5 4.3 2.1 5.1 4.6.1.3.1.5.2.8v72c0 .1-.1.2-.1.2-.5 2.6-2.1 4.3-4.6 5.1-.3.1-.5.1-.8.2zm.1-22.5c.1 0 .1-.1.2-.1V6.5c0-.9-.4-1.3-1.3-1.3h-70c-.9 0-1.3.4-1.3 1.3v51.8c.1-.2.2-.3.3-.4 5.4-7.8 10.8-15.5 16.2-23.3 1.5-2.2 3-4.4 4.5-6.5.7-1 1.7-1.4 2.8-1.1.8.2 1.3.7 1.7 1.4 4.7 7.7 9.4 15.4 14.2 23 .1.2.2.3.3.5.2-.1.3-.2.4-.3 3.8-2.8 7.6-5.6 11.3-8.4 1.3-1 2.6-.9 3.7.3 4.3 4.2 8.5 8.4 12.8 12.6 1.5 1.4 2.8 2.9 4.2 4.4zM58.5 48.4c-.2.1-.3.2-.3.2-4 3-7.9 5.9-11.9 8.9-.3.2-.6.4-.9.5-1.2.4-2.4-.1-3.1-1.3-4.4-7.1-8.7-14.2-13.1-21.3-.3-.4-.5-.9-.8-1.3l-.3.3c-7.6 11-15.2 21.8-22.7 32.7-.1.2-.2.4-.2.7v8.8c0 .9.4 1.3 1.3 1.3h70c.9 0 1.3-.4 1.3-1.3v-8.4c0-.3-.1-.5-.3-.7-5.3-5.2-10.6-10.5-15.9-15.7-1-1.2-2-2.3-3.1-3.4z"/><path d="M54.2 12.5c6.8 0 12.3 5.5 12.3 12.3 0 6.8-5.5 12.3-12.3 12.2C47.4 37 42 31.5 42 24.7c-.1-6.7 5.4-12.2 12.2-12.2zM47 24.8c0 3.9 3.2 7.1 7.1 7.1 3.9 0 7.1-3.2 7.1-7.1 0-3.9-3.2-7.1-7.1-7.1-3.9 0-7.1 3.2-7.1 7.1z"/></symbol><symbol viewBox="0 0 14.7 30.3" id="nav-12" xmlns="http://www.w3.org/2000/svg"><path d="M.9 14.5c-.2-.4-.4-.8-.6-1.1v-.2c1.7-1.7 3.7-3 6.1-3.4 1-.2 2-.1 2.9.3 1.7.6 2.6 2 2.3 3.9-.1 1-.5 1.9-.9 2.8-.9 2.4-1.8 4.8-2.7 7.3l-.3 1.2c-.1.8.4 1.1 1.1.7.6-.3 1.1-.8 1.7-1.2.4-.3.8-.7 1.3-1.1.2.4.4.8.6 1.1 0 .1 0 .2-.1.2-1.8 1.8-3.7 3.5-6 4.6-1.2.6-2.6.8-3.9.6-1.8-.4-2.8-1.7-2.6-3.5.2-1.4.6-2.7 1.1-4.1 1-2.7 2.1-5.3 3.2-7.9.1-.3.3-.7.3-1 .1-.7-.3-1.1-.9-.9-.3.1-.7.2-.9.4-.4.3-1 .8-1.7 1.3zm9.7-7.4c-2.7 0-4.3-2.6-3.1-4.9C8.1 1 9.2.3 10.5 0c.7-.1 1.3-.1 2 .2 2 .7 2.8 2.8 1.8 4.7-.7 1.4-2.1 2.2-3.7 2.2z"/></symbol><symbol viewBox="0 0 1000 1000" id="nav-13" xmlns="http://www.w3.org/2000/svg"><path d="M479.59 8.71c-53.21 8.46-97.97 45.58-116.12 96.73-5.78 16.5-6.39 19.8-6.39 45.58 0 25.16.62 29.49 5.98 46.2 14.64 44.76 50.95 79.82 98.18 94.26 21.86 6.81 56.52 6.81 78.38 0 46.82-14.44 82.92-48.88 98.18-94.05 7.43-22.07 9.08-53.42 3.92-76.31-9.49-43.31-42.28-83.33-82.5-101.07C535.69 9.53 503.1 5 479.59 8.71zm37.33 41.25c39.19 6.19 73.22 37.33 83.53 76.52 3.92 14.64 3.92 37.13 0 52.39-12.99 49.91-66.21 84.36-116.33 75.49-40.22-7.22-73.84-37.54-83.74-75.49-12.38-47.65 10.93-98.18 54.87-119.22 21.86-10.52 38.78-13.2 61.67-9.69zM176.18 90.18c-54.45 13.82-94.26 63.94-94.46 118.8 0 20.63 3.51 36.3 12.79 55.48 10.31 21.45 32.59 44.76 52.6 55.28 49.09 25.78 106.22 16.91 145-22.07 17.94-17.94 27.02-33.83 33-57.13 15.88-62.08-18.98-126.23-80.44-147.47-17.13-5.78-51.16-7.22-68.49-2.89zm64.56 45.99c17.53 8.46 34.65 26.2 41.25 43.11 3.92 9.49 4.74 16.09 4.95 31.76 0 18.56-.41 20.42-7.63 35.27-9.28 18.77-21.24 30.32-40.42 39.39-12.58 5.98-15.67 6.6-33.41 6.6-17.74 0-20.83-.62-33.21-6.39-41.66-19.8-59.61-63.94-43.11-106.63 8.25-21.66 32.59-43.11 56.31-49.09 3.71-.83 14.44-1.44 24.13-1.03 14.85.41 19.59 1.45 31.14 7.01zm525.13-45.78c-81.47 19.59-119.22 112.82-75.49 185.63 9.08 15.06 30.53 35.06 46.62 43.73 80.03 42.28 176.55-12.38 181.51-102.72 3.92-71.78-52.18-130.35-124.17-129.74-9.08 0-21.87 1.44-28.47 3.1zm65.18 45.78c52.39 25.99 62.7 96.74 19.59 135.72-4.54 4.13-14.44 10.31-22.07 14.02-12.38 5.78-15.47 6.39-33.21 6.39s-20.83-.62-33.21-6.39c-33-15.68-51.15-45.58-48.68-80.03 1.24-20.21 7.84-36.09 20.42-49.71 18.98-20.83 36.3-28.05 64.76-27.23 16.31.43 20.64 1.46 32.4 7.23z"/><path d="M329.23 339.75l-10.52 13.41-36.3.41-36.09.62-20 34.45c-10.93 19.18-20.21 34.65-20.83 34.65-.62 0-10.31-15.88-21.45-35.06l-20.21-35.06H69.55l-7.01 8.66C24.79 408.02 4.78 478.56 11.18 542.29c4.33 43.11 17.53 82.3 38.78 114.47l11.14 16.91v79.61c0 45.38.83 84.77 2.06 90.96 4.95 25.78 22.07 47.85 46.82 60.02l14.03 6.81 70.54.62 70.75.62v-41.46h-64.97c-60.43 0-65.79-.21-73.01-3.92-10.31-5.36-20.01-16.71-22.69-26.4-1.44-4.95-2.27-43.11-2.27-103.33v-95.29h-6.81c-6.39 0-7.42-1.03-15.67-15.47-39.21-68.26-38.18-154.07 2.46-221.31l6.39-10.73h25.99l25.78.21 31.97 55.49c17.53 30.73 32.38 55.69 33 55.69.62 0 15.47-24.96 33-55.69l31.97-55.69h25.78l-4.33 10.73c-7.01 17.33-11.76 33.41-16.71 55.89-5.98 28.05-6.39 87.25-1.03 116.95 7.43 39.4 25.99 84.57 46.41 113.44l9.69 13.41 1.03 105.19c1.03 104.99 1.03 105.19 5.98 117.57 6.6 16.5 13.2 26.61 24.34 37.33 11.55 11.34 34.86 22.9 51.15 25.58 20.42 3.3 162.32 2.48 179.03-1.03 37.74-8.04 68.68-39.39 75.7-77.14 1.24-6.39 2.06-52.39 2.06-108.08V707.1l10.11-14.44c21.86-31.76 39.19-74.46 46.82-115.71 5.16-27.64 5.36-84.98.21-110.35-3.92-20.42-11.34-45.79-17.53-61.46l-4.54-10.73h12.99l12.79.21 31.97 55.48c17.53 30.73 32.38 55.69 33 55.69s15.47-24.96 33-55.69l31.97-55.48 25.78-.21h25.99l6.39 10.73c37.54 62.08 41.25 142.52 10.11 206.87-11.75 24.13-16.5 29.91-23.92 29.91h-5.98l-.62 99.42c-.62 109.11-.21 105.19-13.41 117.57-11.96 11.55-15.47 11.96-85.18 11.96h-63.94v41.46l70.75-.62 70.54-.62 14.03-6.81c25.37-12.58 41.66-33.83 46.62-61.05 1.44-7.63 2.27-42.9 2.27-91.37v-79l9.28-13.61c17.74-25.78 31.35-59.61 38.36-95.91 3.92-19.8 3.3-75.49-1.03-95.7-8.46-38.78-23.1-72.4-43.52-99.62l-10.31-13.82H836.2l-19.8 34.45c-10.93 19.18-20.42 34.65-21.04 34.65s-10.11-15.47-21.04-34.65l-19.8-34.45-36.09-.62-36.3-.41-10.52-13.41-10.73-13.41-53.83.41-54.04.62-25.78 44.76c-14.23 24.74-26.19 44.96-26.81 44.96-.62 0-12.58-20.21-26.81-44.96l-25.78-44.76-54.04-.62-53.83-.41-10.73 13.4zm132.21 93.85c20.83 36.3 38.36 66 38.98 66 .62 0 18.15-29.7 38.98-66l37.75-66h64.55l7.63 11.96c52.18 82.3 54.25 194.5 4.54 276.8-9.9 16.29-11.14 17.53-18.15 18.15l-7.42.62v113.03c0 127.05 0 126.64-14.44 143.14-4.54 5.16-12.79 11.55-18.15 14.23-9.7 4.74-9.7 4.74-95.29 4.74-85.6 0-85.6 0-95.29-4.74-5.36-2.68-13.61-9.08-18.15-14.23-14.44-16.5-14.44-16.09-14.44-143.35V674.92h-7.01c-6.6 0-7.84-1.03-16.5-15.26-39.19-62.71-48.89-146.86-25.58-219.88 7.01-21.66 20.42-49.91 30.32-63.53l6.39-8.66h63.32l37.96 66.01z"/></symbol><symbol viewBox="0 0 22.9 30.1" id="nav-14" xmlns="http://www.w3.org/2000/svg"><path d="M22.9 11.7c0 2.7-.9 5.1-2.5 7.2-2.7 3.5-5.3 7.1-8 10.7-.5.7-1.4.7-2 0-2.7-3.7-5.4-7.3-8.1-11C1.2 17.1.4 15.3.1 13.4-.6 8.6 1.9 3.5 6.4 1.2c2-1 4.1-1.4 6.4-1.1 4 .5 7.5 3.1 9.1 6.9.6 1.5 1 3 1 4.7zM11.4 27c0-.1.1-.1.1-.1 2-2.7 4.1-5.4 6.1-8.2.5-.7 1.1-1.4 1.5-2.1 1-1.7 1.5-3.5 1.4-5.5-.1-1.7-.7-3.3-1.7-4.8-2.5-3.6-6.7-4.7-10.4-3.5-1.7.7-3.2 1.8-4.3 3.4C2.8 8 2.2 10 2.4 12.3c.1 1.8.8 3.5 1.9 5 2.4 3.2 4.7 6.4 7.1 9.5v.2z"/><path d="M11.4 15.9c-2.7 0-5-2.2-5-5 0-2.7 2.2-5 5-5s5 2.2 5 5-2.3 5.1-5 5zm0-2.3c1.4 0 2.6-1.2 2.7-2.6 0-1.5-1.2-2.7-2.6-2.7-1.5 0-2.7 1.2-2.7 2.6 0 1.5 1.1 2.7 2.6 2.7z"/></symbol><symbol viewBox="0 0 186.5 112.8" id="nav-2" xmlns="http://www.w3.org/2000/svg"><path d="M118.4 77.8c-.3 0-.7.5-.8.8-.4 1.2-.7 2.5-1.1 3.8-.6 2.1-1.9 3.2-4.1 3.2H77.9c-2.2 0-3.5-1.1-4.1-3.2-.3-1.3-.7-2.5-1.1-3.8-.1-.3-.4-.8-.6-.8-2.4-.1-4.8 0-7.3 0 4.8 15.6-5.6 31.2-20.2 34.4-13.7 3-27.7-5-31.8-18.4-2-6.8-1.7-13.5 1.4-19.8 4.3-8.8 11.5-13.8 21.2-15.4-.7-1.1-1.4-2.1-2-3.1-.4-.8-1-1-1.9-1H4.6C1 54.5-.6 52.4.2 48.9c1.2-5 2.9-9.7 5.2-14.3 1.8-3.7 4-7.1 7.2-9.9.8-.7 2.1-1.2 3.1-1.3 4.3-.1 8.6 0 12.9.1 9.9.3 19.6 1.2 29.4 2.9 7.5 1.3 15 2.6 22.5 4.2 4.2.9 8 .3 11.5-2.1 2.8-1.9 5.6-3.9 8.2-6 4.1-3.3 8.6-5.7 13.8-6.5 2-.3 4.1-.4 6.3-.6-1.6-2.1-3.2-4.2-4.7-6.3-.7-.9-1.4-1.3-2.6-1.3-4 .1-7.9.1-11.9 0-2.3 0-3.9-1.4-4-3.5-.2-2.4 1.4-4.2 4-4.3H116c1.8 0 3 .7 4.1 2.1 3.4 4.6 6.8 9.1 10.2 13.6.4.5.8.9 1.3 1.2 4.9 2.6 9.3 6 13.3 9.9.5.5 1.3.9 2 1.1 8.7 2 17.4 3.8 26.1 5.8 5.6 1.2 9.6 5.3 10.5 10.9 1 6.4 1.9 12.8 2.9 19.2.3 1.9.1 3.6-.5 5.4-1 2.9-2 5.7-2.9 8.7-.7 2.3-1.8 4-4.4 4.1 2.5 16.3-10.6 31.2-27.1 31-7.7-.1-14.2-2.8-19.5-8.4-7.1-7.5-9.1-16.5-6.5-26.6-2.4-.2-4.8-.2-7.1-.2zM75.9 64.5c1.6 4.1 2.9 8.2 4.3 12.3.3.7.5 1 1.3 1h27.4c1 0 1.2-.5 1.4-1.3 2.8-9.9 6.5-19.4 11.8-28.2 3.9-6.6 8.7-12.4 14.7-17.2.2-.1.3-.3.6-.5-3.1-2.7-6.3-5.2-10-7.1-.1 0-.2-.1-.2-.1-5.8-.2-11.7-.8-15.8 4.6-2.3 3.1-4.5 6.2-6.6 9.4-2.4 3.5-4.6 7.1-7.2 10.4-3.5 4.5-8.2 7-14.2 6.7-3.9-.2-7.9 0-12 0 1.6 3.5 3.2 6.7 4.5 10zM129 70c.4 0 .8-.5 1-.9 5.5-6.9 12.6-10.7 21.4-10.7 10.4 0 18.2 4.7 23.7 13.5.3.5.6 1 1 1.8.9-2.7 1.9-5.1 2.5-7.6.3-1-.2-2.1-.3-3.2-.2-1.3-.4-2.5-.5-3.8-.1-.8-.4-1.2-1.2-1.4-3.4-1.1-6.7-2.2-10-3.3-1.8-.6-2.9-1.6-3.3-3.5-1-3.7-2.2-7.4-3.2-11.2-.2-.9-.7-1.3-1.5-1.4-4.3-.9-8.6-2-12.9-2.9-.6-.1-1.5.1-2 .4-3.7 2.4-6.6 5.6-9.4 9-6 7.3-10.4 15.6-13.6 24.5 0 .1 0 .3-.1.6 2.7.2 5.6.2 8.4.1zm-62.3-7.4c-3.4-6.5-6.9-13-10.5-19.4-.4-.7-1.1-1.2-1.8-1.5-10.1-4.1-20.5-7.6-31.3-9.5-1.7-.3-3.4-.5-5-.7-.4 0-.9.1-1.2.3-2.7 2.3-7.2 11-7.8 14.9h25c2 0 3.5.7 4.6 2.4 2 3.1 4.1 6.2 6.2 9.2.4.5 1 1 1.6 1.2 5.7 1.8 10.4 5 14 9.8.5.7 1 .9 1.8.8 2.4-.1 4.9 0 7.7 0-1.2-2.7-2.1-5.2-3.3-7.5zm104.4 22.9c-.1-11-8.9-19.4-20-19.3-10.7.1-19.1 9-18.9 19.9.1 10.6 8.9 19.1 19.6 19 10.8-.2 19.4-8.9 19.3-19.6zm-112.8 0c0-10.8-8.7-19.3-19.5-19.3s-19.4 8.7-19.4 19.5c0 10.7 8.7 19.4 19.5 19.4 10.8-.1 19.4-8.7 19.4-19.6zm30.7-47c-3.7 1-7.5.3-11.1-.4-6-1.1-12.1-2.2-18.1-3.4-.4-.1-.8-.1-1.3 0 2.6.5 3.5 2.6 4.6 4.5 1.3 2.2 2.6 4.4 3.8 6.6.4.6.7.9 1.5.9 5.7 0 11.4 0 17.1-.1 1.2 0 2.5-.5 3.5-1.1 3.6-2.5 5.5-6.4 7.8-9.9-2.7 1-5.2 2.2-7.8 2.9zm81.4 8.9c.1.2.4.4.6.4 1.7.6 3.5 1.1 5.2 1.7 0-5.7-1.2-8.2-7.8-8.8.7 2.3 1.4 4.5 2 6.7z"/><path d="M151.6 73.9c6.3-.1 11.7 5.2 11.8 11.6.1 6.4-5.3 11.8-11.7 11.8-6.4 0-11.6-5.3-11.7-11.7 0-6.3 5.2-11.6 11.6-11.7zm0 7.8c-2.2 0-3.9 1.8-3.8 4 0 2.2 1.8 3.8 4 3.8s3.8-1.8 3.8-4c-.1-2.1-1.9-3.8-4-3.8zM38.8 97.3c-6.3 0-11.6-5.3-11.6-11.6 0-6.5 5.2-11.8 11.6-11.8 6.4 0 11.7 5.2 11.7 11.6 0 6.5-5.3 11.8-11.7 11.8zm.1-7.8c2.2 0 3.8-1.8 3.8-4s-1.8-3.9-3.9-3.8c-2.2 0-3.8 1.7-3.8 4 0 2.2 1.7 3.8 3.9 3.8z"/></symbol><symbol viewBox="0 0 130.1 62" id="nav-3" xmlns="http://www.w3.org/2000/svg"><path d="M130 10.9c-.1-4.6-2.4-8-6.7-9.9-4.2-1.8-8.2-1.2-11.6 1.7-1.9 1.7-3.6 3.5-5.4 5.2l-.7.8c-.5.5-1 .7-1.7.7H26.4c-.8 0-1.2-.2-1.7-.7-.5-.5-.9-1-1.4-1.5-1.7-1.5-3.3-3.2-5-4.6C14.8-.3 10.8-.8 6.6 1.2 2.4 3.1.1 6.6.1 11.1 0 17.6 0 24.7.1 32.9c0 4.2 2.1 7.6 5.8 9.8 3.5 2 7.1 4 10.6 6 3.3 1.9 6.6 3.7 9.8 5.6.5.3.9.6 1.2 1 3.2 4.4 7.7 6.7 13.2 6.7h48.9c5.2 0 9.5-2.2 12.8-6.5.4-.5.8-.9 1.3-1.2l9.9-5.7c3.5-2 7.1-4 10.6-6.1 3.7-2.1 5.6-5.4 5.7-9.6.2-8.3.2-15.3.1-22zm-5.2.6v21.1c0 2.4-.9 4.1-2.8 5.2-4.1 2.4-8.3 4.8-12.4 7.1l-4.2 2.4c0-.5 0-1 .1-1.4l.8-8.9c.7-7.3 1.3-14.7 2-22 .1-1.4.5-2.2 1.4-3 1.1-1 2.2-2.2 3.3-3.2l1.5-1.5c1.3-1.3 2.8-2 4.4-2 .8 0 1.5.2 2.3.5 2.2.9 3.6 3 3.6 5.7zM96.2 39c-4.7.7-9.6 1.5-14.4 2-3.4.4-6.9.4-10.2.5h-1.4c-3.6.1-7.9.2-12.2 0-8.5-.2-17.2-1.2-26.7-3-2.2-.4-2.2-.4-2.4-2.7-.1-1.5-.3-2.9-.4-4.4l-.1-1.5h73.2l-.5 5.2v.5c-.3 2.6-.3 2.6-2.8 3l-2.1.4zm4.1 4.7c-.1 5.2-1 9.2-5.3 11.6-1.6.9-3.4 1.4-5 1.4-16.2.1-32.7.1-48.6.1h-1.2c-5.2 0-9.5-3.9-10.1-9.2-.1-1-.2-1.9-.3-2.9 0-.3 0-.6-.1-.9 23.3 4.1 47 4.1 70.6-.1zm-1-19.1H29.1c-.5 0-1 0-1.1-.1-.1-.1-.1-.6-.2-1.1-.1-1.3-.2-2.7-.4-4-.1-1.1-.2-2.2-.3-3.4 0-.4 0-.8-.1-1.2v-.1h76l-.2 1.9c-.1 1.8-.3 3.5-.5 5.2-.2 2.8-.2 2.8-3 2.8zm-94-12.8c0-3 1.3-5 4-6.1.6-.3 1.3-.4 1.9-.4 1.6 0 3.3.7 4.6 2.1.5.5 1.1 1 1.6 1.6 1.2 1.2 2.5 2.4 3.7 3.7.4.4.6.9.7 1.3.9 10 1.8 20 2.7 29.9l.3 3.4v.2L14 41.3c-.6-.3-1.2-.7-1.7-1-1.2-.7-2.3-1.3-3.5-2C6.4 37 5.2 35 5.2 32.2V18.7l.1-6.9z"/></symbol><symbol viewBox="0 0 201 117.6" id="nav-4" xmlns="http://www.w3.org/2000/svg"><path d="M149.5 45.7c-2.2 4.4-4.2 8.3-6.1 12.2-5.2 10.5-10.4 20.9-15.5 31.4-.8 1.7-1.7 2.2-3.6 2.2-14.2-.1-28.5 0-42.7 0h-3.2c-5 21.7-23.5 28.1-36.9 25.5-14.2-2.8-25.1-16.2-24.7-31 .5-15 11.9-27.9 26.5-29.8 14.5-1.8 31.1 6.1 35.2 26.5h3.7c12.1 0 24.2-.1 36.3.1 2.4 0 3.6-.7 4.4-2.8.8-2 1.8-3.8 3-6.2h-3.6c-10.4 0-20.8-.1-31.2 0-2 0-3.5-.5-4.8-2-5.4-6.1-10.9-12.1-16.6-18-1.1-1.2-3.1-2.1-4.7-2.2-10.9-.2-21.8-.3-32.7-.2-1.5 0-3.1.4-4.5 1.1-11.9 5.6-18 15.1-19.6 30.1H.1c-.6-7.8 1.7-14.7 5.4-21.1 4-7 9.7-12.4 16.8-16.1 1.5-.8 2.1-1.7 2-3.4-.1-5.2 0-10.4 0-15.9h5.5c8.1 0 16.1-.1 24.2.1 1.4 0 3.1.7 4 1.7 5.9 5.9 11.6 12 17.3 18.1.5.5 1 .9 1.2 1.2 1.2-3.2 2.1-6.5 3.7-9.4 3-5.4 8.2-8.4 13.9-9.8 11.2-2.8 22.6-5 33.9-7.1 3.7-.7 7.2.9 10.2 3.1 1.3.9 2.4 2 4.1 3.4-2.4-6.1-4.4-11.7-6.8-17.1-.3-.7-1.8-1.4-2.7-1.4-4.6-.1-9.2-.1-13.9-.1V.1h3c5.3 0 10.6.2 15.9-.1 2.7-.1 3.7.9 4.6 3.3 2.7 7.4 5.6 14.6 8.5 21.9.3.9.8 1.8 1.2 2.9 6.3-3.1 12.4-6.1 18.8-9.3V49h-10.7c1.1 2.8 2 5.2 2.9 7.6 10.2-1.8 19.4.1 27.2 6.7 10.2 8.6 13.6 23.7 8 36-5.7 12.5-19.1 20-32.1 18-14.1-2.2-24.7-12.6-26.4-26.2-1.6-12.5 3-22.5 13.2-29.8 1.6-1.2 1.9-2 1.1-3.8-1.6-3.7-2.9-7.5-4.6-11.8zm8.8 22.6c-9.8 5.8-13 18.8-7.5 28.9 5.6 10.4 18.5 14.5 29.2 9.3 10.6-5.2 15.3-18.1 10.5-28.8-4.2-9.5-15.9-15.6-23.9-12.4 2.9 7.6 5.9 15.1 8.9 22.9-2.8 1.1-5.4 2.1-8.1 3.1-3.1-7.8-6.1-15.3-9.1-23zM69 82.7c-.5-9.6-11.2-18.5-21.8-18.2-11.9.3-21.6 10-21.7 21.7-.1 12.2 9.2 22.1 21.3 22.5 10.7.4 21.3-7.9 22-17.3H52c-.9 0-2.2 0-2.8-.6-4.1-4-8.1-8.1-11.8-11.8 2.1-2.3 4-4.3 5.8-6.1l8.7 8.4c.7.6 1.6 1.4 2.4 1.4 4.9.1 9.8 0 14.7 0zm17.2-35.8c1 .1 1.9.2 2.7.2h41.9c4.5 0 7.5-2.5 7.9-6.3.5-5.7-6.2-12-11.9-11-6.4 1.1-12.8 2-19.1 3.6-5.5 1.4-10.9 3.2-16.1 5.4-3.1 1.2-5.4 3.9-5.4 8.1zm48.5 8.9H83.4c2.8 3 5.2 5.7 7.7 8.3.5.5 1.4.8 2 .8 11.8.1 23.6.1 35.4 0 .7 0 1.7-.3 2-.8 1.4-2.6 2.7-5.4 4.2-8.3zM33.1 42.6h27c-2.5-2.6-4.5-4.9-6.6-7-.4-.4-1-.7-1.5-.7H33.2c-.1 2.6-.1 5-.1 7.7zm122.2-6.4c1.6 4.7 2 4.9 6.7 3.7v-7c-2.3 1.2-4.4 2.2-6.7 3.3z"/></symbol><symbol viewBox="0 0 107.6 108.3" id="nav-5" xmlns="http://www.w3.org/2000/svg"><path d="M0 51c-.1-6.2.9-12.2 3.1-18 1.8-4.8 4.3-9.3 7.6-13.3 3.5-4.4 7.5-8 12.2-11.1C27.7 5.4 33 3.1 38.6 1.7 41.3 1 44 .5 46.8.3c4.1-.4 8.1-.3 12.2.2 8.8 1.2 16.7 4.7 23.6 10.2 5.5 4.4 9.9 9.9 13.3 16 3.7 6.5 6.2 13.5 7.6 20.9.8 3.9 1.4 7.8 2 11.7.5 3.1.9 6.3 1.3 9.4.4 3.3.6 6.7.9 10.1.1 1.9.1 3.7.2 5.6 0 .6 0 1.1-.1 1.7 0 .1-.1.3-.2.4-.3.4-.7.8-1.1 1.2-6.8 6.8-13.6 13.6-20.4 20.5-.2.2-.4.3-.7.2-14.4-5.8-28.6-11.5-42.9-17.2-11.4-4.5-22.7-9.1-34.1-13.6-1.2-.5-2.4-1-3.6-1.4-.3-.1-.4-.2-.5-.5-.9-3.7-1.9-7.3-2.8-11C.7 61.6.3 58.4.1 55.3c0-1.5 0-2.9-.1-4.3zm96 35.9c-1.4-.4-2.8-.8-4.1-1.2-7.3-2.3-14.3-5.4-20.9-9.1-8.2-4.5-15.9-9.8-23.2-15.7-.3-.2-.5-.2-.8-.1-2.3.8-4.7 1-7.1.6-4-.7-7.3-2.6-9.7-5.8-2.7-3.5-3.8-7.4-3.1-11.8.6-4 2.6-7.3 5.8-9.7 3.3-2.6 7-3.6 11.1-3.2 3 .3 5.7 1.6 8 3.5.2.1.4.2.6.2h38.6c-.1-.2-.1-.3-.2-.4-2.4-5.2-5.6-9.9-9.5-14-3.1-3.2-6.6-5.9-10.6-8-4.9-2.6-10.1-4-15.6-4.4-3.8-.3-7.5-.1-11.2.5-3.8.6-7.5 1.8-11.1 3.4-5.6 2.5-10.5 6-14.6 10.6-4.5 4.9-7.6 10.6-9.4 17-1.1 4-1.5 8.1-1.4 12.2.1 2.8.3 5.6.8 8.4.6 3.4 1.5 6.7 2.4 10 0 .2.2.3.3.4.7.3 1.5.6 2.3.9 11.9 4.7 23.7 9.5 35.6 14.2 11.4 4.6 22.8 9.1 34.2 13.7.3.1.4.1.7-.1 3.9-3.9 7.8-7.9 11.8-11.8l.3-.3zm4-6.9v-.3c-.1-1.4-.1-2.9-.3-4.3-.2-2.4-.5-4.7-.7-7.1-.3-2.3-.6-4.6-1-7-.5-3.2-1-6.3-1.6-9.5-.5-3-1.2-6-2.1-9-.1-.4-.3-.5-.7-.5H57c1.5 5.1.1 9.6-3.1 13.6 0 0 0 .1.1.1.6.5 1.3 1 1.9 1.5C61.9 62 68 66 74.4 69.6 80.6 73 87 76 93.8 78.2c2 .6 4.1 1.2 6.2 1.8zM42.3 38.5c-4.3 0-7.7 3.4-7.7 7.6 0 4.4 3.4 7.8 7.6 7.8 4.3 0 7.8-3.4 7.8-7.6 0-4.4-3.3-7.8-7.7-7.8z"/><path d="M46.2 46.2c0 2.1-1.7 3.8-3.9 3.8-2.1 0-3.9-1.8-3.8-3.9 0-2.1 1.8-3.8 3.9-3.8 2.1 0 3.8 1.8 3.8 3.9z"/></symbol><symbol viewBox="0 0 153.9 153.9" id="nav-6" xmlns="http://www.w3.org/2000/svg"><path d="M78.1 0c1.4 1 2.8 2 4 3.1 3.6 3.5 7.1 7 10.7 10.6.6.6 1.1.7 2 .5 5.5-1.5 11-2.9 16.6-4.3 3.2-.8 5.5.6 6.4 3.8 1.5 5.5 3 10.9 4.5 16.4.2.6.8 1.3 1.4 1.5 5.2 1.5 10.4 2.9 15.7 4.3 4.1 1.1 5.5 3.5 4.4 7.6-1.4 5.2-2.7 10.5-4.2 15.7-.2.9-.1 1.4.5 2 4 4 8 8 11.9 12.1 2.4 2.4 2.4 5.2 0 7.7-3.9 4-7.8 8-11.7 11.9-.8.8-1 1.5-.7 2.6 1.5 5.4 2.9 10.8 4.2 16.2.8 3.1-.6 5.5-3.7 6.4-5.4 1.5-10.8 3-16.3 4.5-1 .3-1.5.7-1.7 1.7-1.4 5.4-2.9 10.8-4.5 16.2-.9 3.1-3.2 4.6-6.4 3.8-5.5-1.4-11.1-2.8-16.6-4.3-.9-.2-1.4-.1-2 .5-3.8 3.8-7.6 7.6-11.5 11.3-1 .9-2.2 1.6-3.3 2.4h-2.4c-1.8-1.5-3.7-2.8-5.3-4.4-3.2-3-6.3-6.2-9.4-9.3-.6-.6-1.1-.8-2-.5-5.5 1.5-11.1 2.9-16.6 4.3-3.1.8-5.5-.6-6.4-3.8-1.5-5.5-3-10.9-4.5-16.4-.2-.9-.7-1.3-1.5-1.5-5.4-1.5-10.8-3-16.3-4.5-3.3-.9-4.7-3.2-3.9-6.4 1.4-5.5 2.8-11 4.3-16.5.2-.9.2-1.4-.5-2.1C9.8 88.9 6 85 2.1 81.1c-2.8-2.8-2.8-5.5 0-8.3 3.8-3.9 7.6-7.8 11.5-11.6.7-.7.8-1.4.6-2.4-1.5-5.4-2.9-10.8-4.3-16.3-.8-3.2.5-5.5 3.7-6.4 4.7-1.4 9.5-2.8 14.3-3.8 2.6-.6 3.8-1.7 4.3-4.3 1.1-4.8 2.5-9.6 3.9-14.4.8-2.9 3.3-4.4 6.2-3.7 5.6 1.4 11.2 2.9 16.7 4.4.9.2 1.4.1 2-.5C64.9 9.9 68.8 6 72.8 2.2c.9-.8 2-1.4 3-2.1.7-.1 1.5-.1 2.3-.1zm-1.7 141.9c.3 0 .6 0 1 .1 3.6-3.7 7.1-7.4 10.6-11.2 1.8-1.9 3.8-2.3 6.4-1.6 4.9 1.4 9.9 2.6 14.9 3.9.1-.5.3-1 .4-1.4 1.3-4.6 2.6-9.3 3.8-13.9.6-2.2 1.9-3.5 4.1-4.1 1.4-.4 2.9-.8 4.3-1.2 3.7-1 7.4-2 11.1-3.1-1.3-5.1-2.6-10.1-4-15.1-.6-2.4-.2-4.4 1.6-6.1 1.3-1.3 2.6-2.7 3.9-3.9 2.4-2.3 4.9-4.6 7.7-7.2-4.1-3.9-7.7-7.4-11.4-10.9-2-1.9-2.6-3.9-1.8-6.6 1.4-4.9 2.6-9.9 3.9-14.9-.5-.2-1-.3-1.5-.4-4.6-1.3-9.3-2.6-13.9-3.8-2.1-.6-3.4-1.9-4-4-.5-1.8-1-3.6-1.5-5.5-.9-3.3-1.8-6.7-2.8-10C104 22.4 99 23.6 94 25c-2.3.6-4.3.2-6-1.6-1.6-1.7-3.3-3.3-5-5-2.1-2-4.1-4-6.5-6.4-3.5 3.7-7.1 7.3-10.6 11-1.8 1.9-3.8 2.4-6.4 1.7-4.9-1.4-9.9-2.6-14.9-3.9-.2.5-.3 1-.4 1.4l-3.9 14.1c-.6 2-1.9 3.4-3.9 3.9l-4.5 1.2-11.1 3c1.3 5.1 2.6 10.1 4 15.1.6 2.4.2 4.4-1.6 6.1-1.6 1.5-3.1 3.2-4.7 4.7-2.2 2.1-4.4 4.1-6.6 6.2.7.7 1 1.1 1.4 1.4 3.1 3.2 6.2 6.4 9.4 9.5 2.2 2.1 2.8 4.5 1.9 7.4-1.4 4.7-2.5 9.5-3.8 14.3.5.1.9.3 1.3.4l14.1 3.9c2.2.6 3.6 1.9 4.1 4.1.2.7.4 1.4.6 2.2 1.2 4.4 2.4 8.8 3.7 13.2 5.1-1.3 10-2.5 15-3.9 2.5-.7 4.5-.3 6.3 1.6 3.4 3.8 7 7.6 10.5 11.3z"/><path d="M100.6 48.4c1.9.2 3.5 1.1 4.4 3.1.9 1.8.4 3.9-1.1 5.5-3.8 3.8-7.6 7.7-11.4 11.5l-35.1 35.1c-1.5 1.5-3.1 2.2-5.3 1.6-2-.6-3.2-2-3.6-4-.4-1.9.5-3.5 1.8-4.8L68.7 78c9.1-9 18.2-18.1 27.3-27.2 1.2-1.3 2.5-2.4 4.6-2.4zm13.3 48.7c-.3 9.4-7.5 16.7-17 16.7-9.1 0-16.7-7.8-16.6-16.9.1-9.1 7.8-16.8 16.9-16.8 9.1.2 16.8 8 16.7 17zm-23.5 0c0 3.7 2.9 6.6 6.5 6.6 3.9 0 6.8-2.8 6.7-6.8 0-3.7-2.9-6.5-6.7-6.5-3.7 0-6.5 2.9-6.5 6.7zM73.6 56.8c0 9.1-7.6 16.8-16.8 16.8-9.1 0-16.9-7.8-16.8-16.8 0-9.2 7.6-16.9 16.8-16.8 9.6.1 16.6 7.6 16.8 16.8zm-16.8 6.6c3.8 0 6.6-2.9 6.6-6.6 0-3.8-2.9-6.7-6.6-6.6-3.9 0-6.7 2.8-6.7 6.7.1 3.7 3 6.5 6.7 6.5z"/></symbol><symbol viewBox="0 0 156.4 141.8" id="nav-7" xmlns="http://www.w3.org/2000/svg"><path d="M30.3 141.8h-1.1c0-.3.1-.5.1-.8v-29.5c0-.4-.3-1-.7-1.2-6.5-4.3-12.2-9.4-16.9-15.4C5.8 87.3 2 79 .6 69.9.4 68.3.2 66.6 0 65v-6.1c.1-.2.1-.4.2-.6.3-2.1.4-4.2.8-6.2C3.1 41.9 7.9 32.9 15.4 25 28.4 11.3 45 3.7 64.4.7c2-.3 4-.5 5.9-.8h15.5c.2.1.5.1.7.2 5.3.4 10.5 1.3 15.6 2.6 13.9 3.6 26.1 9.9 36.2 19.5 10 9.5 16.2 20.8 17.8 33.9 1.3 10.7-.7 21-6.1 30.7-8.1 14.6-20.8 24.6-37.1 31.1-8.4 3.4-17.3 5.4-26.5 6.1-6.7.5-13.4.5-20.1-.4-1.5-.2-2.8-.3-4.3.5-9 5.1-18.2 10.1-27.2 15.1-1.6.9-3 1.8-4.5 2.6zm8.4-15.4c.7-.3 1.2-.6 1.6-.8 6.7-3.7 13.5-7.4 20.2-11.1.6-.3 1.4-.6 2-.4 7.6 1.4 15.2 1.8 23 1.1 10.1-.8 19.6-3.3 28.5-7.6 11.8-5.7 21.1-13.6 27.1-24.6 4.9-9 6.6-18.5 4.8-28.4-2.3-12.2-9-22-19.1-30-12.6-9.9-27.5-14.8-44-15.7-13.4-.7-26.2 1.4-38.3 6.8-10.4 4.6-19.2 11-25.6 19.8C8.3 50.3 6.7 65.9 14.8 82.1c5 9.9 13.1 17.4 23.2 23.2.7.4 1 .8 1 1.5l-.3 18.3v1.3z"/><path d="M39.1 53.2c5.3 0 9.7 3.9 9.8 8.6 0 5.3-4.2 9.2-9.9 9.2-5.1 0-9.5-4-9.6-8.8-.2-4.9 4.2-8.9 9.7-9zm48.8 8.9c0 5-4.4 8.9-9.9 8.9-5.3 0-9.7-4-9.7-8.9 0-5 4.4-8.9 9.8-8.9 5.5 0 9.8 4 9.8 8.9zm29.2 8.9c-5.6-.1-9.7-4.2-9.6-9.4.1-4.6 4.7-8.5 10-8.4 5.5.1 9.7 4.1 9.6 9.1-.2 4.9-4.7 8.8-10 8.7z"/></symbol><symbol viewBox="0 0 95.6 95.7" id="nav-8" xmlns="http://www.w3.org/2000/svg"><path d="M94.9 41c-.7-2.4-2.8-4.1-5.3-4.3-.8 0-1.5-.1-2.3-.1-.7 0-1.4-.1-2.1-.1-.5-1.2-1-2.5-1.5-3.7-.4-1.1-.9-2.2-1.4-3.3.4-.4.8-.8 1.1-1.2.5-.5 1-1.1 1.5-1.6 2-2 2.3-5.2.7-7.6-2.4-3.7-5.4-6.8-8.9-9-2.6-1.7-5.1-1.5-7.5.6-.9.8-1.8 1.6-2.9 2.8l-.2-.1c-2.1-.9-4.4-1.8-7-2.9v-.7c0-1.1 0-2.2-.1-3.2-.1-3-1.6-4.9-4.6-5.8h-.1c-.2-.1-.4-.1-.7-.2L52.1.5C50.5.3 49 .1 47.4 0c-2.3-.2-4.4.3-6.3.7-2.6.6-4.3 2.6-4.5 5.3-.1 1.3-.1 2.7-.2 4v.5c-2.3.9-4.7 1.9-7.1 2.9l-.6-.5c-.7-.9-1.7-1.7-2.6-2.5-2-1.7-4.7-1.9-6.9-.5-2.5 1.5-4.8 3.4-6.6 5.7-1 1.1-2.1 2.5-2.9 4-1.3 2.3-1 4.6.6 6.5.9 1 1.8 2 3 3.3l.1.1s0 .1-.1.2c-1 2.3-1.9 4.7-2.8 6.9H7c-3.4.1-5.4 1.7-6.2 4.9-.8 2.4-.8 4.8-.8 7.1v1.3c.1.4.1.9.1 1.3.1 1.2.3 2.4.6 3.6.8 2.5 2.7 4 5.3 4.2 1.1.1 2.3.1 3.4.1h1c1 2.5 2 4.9 2.9 7.1l-.3.3c-.9.9-1.7 1.8-2.6 2.8-2 2.3-2.2 4.7-.6 7.3 2.1 3.4 5 6.4 8.7 8.9 2.7 1.8 5.3 1.7 7.8-.5 1-.8 1.9-1.7 2.9-2.6l.1-.1s.1 0 .2.1c2.4 1 4.7 1.9 6.9 2.8v.5c0 1.1 0 2.2.1 3.3.1 3.2 1.7 5.1 4.8 5.9 2 .5 4.1.7 6.4.7H49c2.1-.1 4.1-.2 6-1 2.3-.9 3.6-2.6 3.8-4.9 0-.8.1-1.6.1-2.4 0-.8.1-1.5.1-2.3 1.4-.6 2.7-1.1 4.1-1.6l3-1.2c.3.3.7.6 1 .9.6.6 1.2 1.1 1.8 1.7 2.1 2 5.2 2.3 7.6.7 3.8-2.5 6.8-5.5 9-9 1.6-2.6 1.4-5-.6-7.3-.8-1-1.7-1.9-2.6-2.8-.2-.2-.2-.2-.1-.6 1-2.2 1.8-4.5 2.7-6.8 1.5-.1 3-.1 4.6-.2 2.1-.1 3.8-1.3 4.8-3.3.2-.4.4-.9.5-1.5.5-2.1.6-4.2.6-6.1.2-2.4.1-4.6-.5-6.9zM80 56.7c-.6 1.4-1.1 2.7-1.7 4.1-.5 1.2-1 2.3-1.5 3.5-.9 2.1-.4 4.2 1.2 6l.2.2c.8.8 1.6 1.7 2.3 2.5.2.2.3.4.4.4 0 .1-.1.2-.3.4-1.9 2.7-4.3 5.1-7 7-.2.1-.3.2-.4.2-.1-.1-.2-.1-.4-.3-1.1-1-2.1-1.9-3.1-2.8-1.6-1.5-3.6-1.9-5.8-.9-.5.2-1 .4-1.5.7-.5.2-.9.4-1.4.6-1.3.5-2.8 1.1-4.3 1.7-2.1.7-3.2 2.3-3.5 4.4-.1.6-.1 1.2-.1 1.9v2.3c0 .6-.1.8-.1.8s-.2.1-.7.2c-3.1.6-6.3.6-9.4 0h-.2c-.4-.1-.6-.2-.7-.2 0 0-.1-.2-.1-.7 0-.6 0-1.2-.1-1.9 0-.8 0-1.6-.1-2.4-.1-2-1.2-3.5-3.2-4.2-1.3-.5-2.5-1-3.8-1.6-1.1-.5-2.3-1-3.4-1.4-.8-.3-1.4-.5-2-.6h-.7c-1.3 0-2.4.5-3.4 1.4-1 1-2.1 2-3 2.8-.2.2-.4.3-.4.3-.1 0-.2-.1-.4-.3-2.9-1.9-5.2-4.3-7-7.2-.1-.1-.1-.2-.1-.2l.2-.2c.8-.9 1.7-1.9 2.7-3 1.8-1.8 2.1-4.1.9-6.8l-1.8-4.2c-.2-.6-.5-1.1-.7-1.7 0-.1-.1-.2-.1-.3 0-.2-.1-.3-.2-.5-.8-2-2.4-3.1-4.5-3.2-.9 0-1.8-.1-2.7-.1H6.8c-.6 0-.8-.1-.8-.1s-.1-.2-.3-.8c-.4-1.9-.6-4.1-.4-6.5.1-1.1.3-2.2.5-3.2.1-.3.1-.4.1-.4s.1-.1.5-.1c1.3-.1 2.6-.1 3.8-.1 2.5 0 4.3-1.3 5.2-3.8.9-2.5 1.8-4.5 2.6-6.3 1.2-2.5.9-4.7-1-6.7l-.6-.7c-.6-.7-1.3-1.4-1.9-2.1-.2-.2-.2-.3-.3-.4 0-.1.1-.2.2-.4 1.8-2.8 4.2-5.2 7.1-7 .1 0 .2-.1.3-.2.1.1.3.2.3.3.6.6 1.3 1.1 1.9 1.7.5.4 1 .9 1.4 1.3 1.5 1.3 3.2 1.6 5.3.8.5-.2 1.1-.5 1.6-.7.4-.2.8-.4 1.1-.5 1.7-.7 3.2-1.3 4.7-1.8 2.4-.9 3.7-2.7 3.6-5.4V6.9c0-.7.1-.8.8-.9 3.5-.6 6.6-.6 9.4.1.2.1.5.1.7.2.1 0 .1 0 .1.1 0 1.1.1 2.1.1 3.2 0 .5 0 1.1.1 1.6.2 2.2 1.4 3.8 3.5 4.5 2.7.9 5.2 2 7.5 3.2.8.4 2.2.8 3.9-.2.9-.5 1.6-1.1 2.4-1.7l.5-.4c.6-.5 1.2-1 1.7-1.5l.2-.2.1-.1s.1 0 .2.1c1.7 1.1 3.3 2.4 4.8 4.1.9 1 1.8 2.2 2.5 3.3 0 .1.1.1.1.2l-.2.2c-1 1.2-2.1 2.4-3.1 3.5-1.3 1.4-1.6 3-.9 5.1.1.4.3.7.4 1.1.1.2.2.3.2.5l.7 1.6c.6 1.4 1.2 2.8 1.7 4.2 1 2.5 2.4 3.6 5 3.7.8 0 1.5.1 2.3.1h1.5c.6 0 .7.1.7.1s.1.1.2.7c.6 2.9.6 5.9.1 8.9-.2 1.4-.2 1.4-1.7 1.4H85v.1h-1.2c-1.4 0-3 1.1-3.8 3z"/><path d="M47.9 25.7c-12.1 0-22.1 9.8-22.3 21.8-.2 12.3 9.3 22.2 21.6 22.5h.6c5.9 0 11.4-2.3 15.6-6.4 4.3-4.2 6.6-10 6.5-15.7.1-5.7-2.2-11.3-6.3-15.5-4.2-4.3-9.8-6.7-15.7-6.7zm-17.2 22c-.1-4.2 1.6-8.4 4.7-11.7 3.3-3.4 7.6-5.3 12.3-5.3h.1c4.6 0 9 1.9 12.3 5.3 3.3 3.4 4.9 7.9 4.7 12.6-.4 9.2-8.4 16.5-17.8 16.2-9-.1-16.5-8-16.3-17.1z"/></symbol><symbol viewBox="0 0 126.4 126.3" id="nav-9" xmlns="http://www.w3.org/2000/svg"><path d="M36 126.3c-15.9-.1-29.1-9.6-34-23.6-4.9-14.1-.5-29.8 11.5-38.9 17.7-13.7 35.6-27 53.5-40.4 8.4-6.3 16.8-12.7 25.3-19C104.1-4.3 120 .3 125 13.7c2.8 7.5 1.3 14.5-3.5 20.8-16.3 21.8-32.7 43.5-49 65.3-3.4 4.6-6.7 9.2-10.3 13.6-7 8.5-16.2 12.7-26.2 12.9zM70.4 91c12.3-16.5 24.4-32.6 36.7-49-6.8.2-12.2-1.7-16.6-6.1-4.5-4.5-6.4-10-6.2-16.6-16.5 12.3-32.5 24.3-49 36.6 19.5.6 34.5 16 35.1 35.1zm-35.3 24.7c13.6 0 24.6-11 24.6-24.6 0-13.5-11-24.5-24.4-24.5-13.6 0-24.7 10.9-24.7 24.4-.1 13.7 10.9 24.7 24.5 24.7zm70.3-105.2c-5.8 0-10.6 4.6-10.6 10.4-.1 5.8 4.7 10.6 10.5 10.6s10.6-4.6 10.6-10.4c0-5.8-4.7-10.6-10.5-10.6z"/><path d="M49.2 91.3c-.1 7.8-6.4 14-14.2 13.9-7.7-.1-13.9-6.4-13.9-14 0-7.7 6.4-14.1 14.1-14 7.7 0 14 6.3 14 14.1zm-21.1-.1c0 3.9 3.2 7.1 7.1 7.1 3.8 0 6.9-3.2 7-7 0-3.8-3.1-7-6.9-7-4-.2-7.2 3-7.2 6.9z"/></symbol><symbol viewBox="0 0 62.1 51.4" id="tg" xmlns="http://www.w3.org/2000/svg"><path d="M4.3 22.1c16.7-7.3 27.8-12 33.3-14.4C53.5 1.2 56.8 0 58.9 0c.5 0 1.5.1 2.2.7.6.5.7 1.1.8 1.5.1.5.2 1.5.1 2.3-.9 9-4.6 31-6.5 41.1-.8 4.3-2.4 5.7-3.9 5.9-3.3.3-5.8-2.2-9.1-4.3-5-3.3-7.9-5.4-12.8-8.6-5.6-3.7-2-5.8 1.2-9.1.8-.9 15.5-14.2 15.7-15.4 0-.2.1-.7-.3-1s-.8-.2-1.2-.1c-.5.1-8.5 5.4-24.1 15.9-2.3 1.6-4.3 2.3-6.2 2.3-2 0-6-1.2-8.9-2.1-3.6-1.2-6.4-1.8-6.2-3.8.4-1 1.9-2.1 4.6-3.2z" clip-rule="evenodd"/></symbol><symbol viewBox="0 0 49.7 31" id="vk" xmlns="http://www.w3.org/2000/svg"><path d="M27.1 31C10.1 31 .4 19.4 0 0h8.5C8.8 14.2 15 20.2 20 21.5V0h8v12.3c4.9-.6 10.1-6.2 11.8-12.3h8c-1.3 7.6-6.9 13.2-10.9 15.4 4 1.9 10.3 6.7 12.8 15.5h-8.8c-1.9-5.8-6.7-10.4-12.9-11V31h-.9z"/></symbol><symbol viewBox="0 0 50.5 50.8" id="watsap-social" xmlns="http://www.w3.org/2000/svg"><path d="M0 50.8l3.6-13C1.4 34 .2 29.7.2 25.2.2 11.3 11.5 0 25.3 0c6.7 0 13 2.6 17.8 7.4 4.7 4.8 7.4 11.1 7.4 17.8 0 13.9-11.3 25.1-25.1 25.1-4.2 0-8.3-1.1-12-3.1L0 50.8zm13.9-8.1l.8.5c3.2 1.9 6.9 2.9 10.6 2.9 11.5 0 20.9-9.4 20.9-20.9 0-5.6-2.2-10.8-6.1-14.8-3.9-3.9-9.2-6.1-14.8-6.1-11.5 0-20.9 9.4-20.9 20.9 0 3.9 1.1 7.8 3.2 11.1l.5.8L6 44.8l7.9-2.1z"/><path d="M38 31.2c-.2-.3-.6-.4-1.2-.7-.6-.3-3.7-1.8-4.3-2-.6-.2-1-.3-1.4.3-.4.6-1.6 2-2 2.5-.4.4-.7.5-1.4.2-.6-.3-2.7-1-5.1-3.1-1.9-1.7-3.1-3.7-3.5-4.4-.4-.6 0-1 .3-1.3.3-.3.6-.7.9-1.1.3-.4.4-.6.6-1 .2-.4.1-.8-.1-1.1-.2-.3-1.4-3.4-1.9-4.7-.5-1.2-1-1.1-1.4-1.1h-1.2c-.4 0-1.1.2-1.7.8-.6.6-2.2 2.1-2.2 5.2s2.3 6.1 2.6 6.5c.3.4 4.4 6.8 10.7 9.5 1.5.6 2.7 1 3.6 1.3 1.5.5 2.9.4 4 .2 1.2-.2 3.7-1.5 4.2-3 .7-1.5.7-2.8.5-3z" clip-rule="evenodd"/></symbol><symbol viewBox="0 0 290.4 234.7" id="watsapp" xmlns="http://www.w3.org/2000/svg"><path d="M75.4 140.3c3-11 5.8-21.4 8.7-31.7.7-2.6.7-4.7-.6-7.1C59.9 55 93.3.3 145.4 0c28.5-.1 54.9 18.1 65.1 44.8 10.3 27.1 2.7 58.1-18.9 77-21.8 19-51 22.9-77 10.5-1.7-.8-4.1-.9-6-.5-9.7 2.4-19.3 5-29 7.6-1.2.3-2.4.5-4.2.9zm15.9-15.6c6.6-1.7 12.4-3 18.1-4.7 2.8-.8 5.2-.7 7.8.9 6.8 4.1 14.4 6.5 22.3 7.1 24.5 1.7 44-7.6 56.3-29 12.3-21.3 11-43-3-63.2-21.4-31-67.8-32.8-91.9-3.9-16.4 19.6-18.6 45.7-5.7 67.8 1.4 2.3 1.8 4.4 1 7-1.8 5.6-3.1 11.3-4.9 18zM16.8 209c2.2-8.4 4.5-16.8 6.4-25.3.7-3.1 2.1-4 5.1-3.9 2.8.1 4.9 0 5.6 3.7 1.4 7.2 3.4 14.3 5.2 21.5.4 1.5.8 3 2.1 4.6.8-3.3 1.7-6.5 2.5-9.8 1.2-5.1 2.7-10.2 3.5-15.3.6-3.8 2.4-5.1 6-4.6 1.1.2 2.2.1 3.8.2-.2 1.3-.4 2.3-.7 3.4-3.3 12.3-6.8 24.5-9.8 36.9-1 4.1-3.5 3.2-6.2 3.4-2.7.2-4.3-.5-5-3.5-1.7-7.8-3.8-15.5-5.8-23.3-.2-.8-.5-1.6-1.6-2.4-1.1 4.2-2.2 8.5-3.2 12.7-1.1 4.5-2.2 9-3.2 13.5-.5 2.2-1.5 3.1-3.8 3-7.3-.3-6 1.1-7.9-5.9-3-11.2-5.9-22.4-8.9-33.7-.3-1.2-.5-2.4-1-4.3 2.7 0 5.1-.3 7.3.2 1 .2 2 2 2.3 3.2 1.9 7.6 3.6 15.3 5.4 23 .2.9.6 1.8.8 2.8.5-.1.8-.1 1.1-.1zm161.7 14.7c.7-2 1.1-3.4 1.6-4.8 4.5-11.9 9.1-23.8 13.5-35.8.9-2.5 2.2-3.7 4.9-3.3 2.7.4 5.8-1.2 7.3 3.1 4.4 12.6 9.3 25.1 14 37.6.3.8.5 1.6.9 3.1-2.9 0-5.5.3-8-.1-.9-.1-1.8-1.8-2.3-3-3-8-.7-6.5-9.5-6.7h-1.1c-8.3 0-8.2 0-11.6 7.6-.4 1-1.8 1.9-2.9 2.1-2.1.4-4.2.2-6.8.2zm14.9-16.9h12.2c-2-5.6-3.8-10.8-5.6-15.9-.4 0-.7.1-1.1.1-1.8 5.1-3.5 10.2-5.5 15.8zm29.9-14.2c5.9-1.4 7-1 8.1 2.9 3.8-3.8 8.1-5.1 13.3-3.8 7.3 1.9 11.7 10.3 10.2 19.8-1.2 8-6.7 13.4-13.9 12.8-3.1-.2-6.2-2-9.6-3.2v13.5h-8.1v-42zm23.8 15.5c-.4-1.7-.6-3.8-1.3-5.8-1.1-3.1-3.3-4.9-6.8-4.9-3.6-.1-6.5 1.5-7.1 4.8-.6 3.8-.6 7.9.2 11.7.7 3.4 3.8 4.8 7.3 4.6 3.3-.2 5.6-2 6.6-5.2.5-1.5.7-3.1 1.1-5.2zm11.1 26.6c0-13.6 0-26.9.1-40.1 0-.8 1.3-2.3 2-2.3 2.5-.2 5.7-1.4 6 2.2 3.2-1.1 6.2-2.9 9.3-3.2 5.4-.5 9.7 2 12.3 6.9 2.9 5.6 3.2 11.5.9 17.4-3.4 8.9-12.9 11.4-20.4 5.6-.4-.3-.8-.5-2.1-1.3v14.7c-2.8.1-5.2.1-8.1.1zm7.5-26.9c.6 2.3.9 4.7 1.9 6.7 2.4 5 9.5 5.3 12.7.7 2.5-3.8 2.6-11.4-.4-14.9-1.2-1.4-3.4-2.7-5.3-2.9-5.3-.5-8.4 3.3-8.9 10.4zM68.4 223.5h-8c-.1-1.6-.2-3.1-.2-4.5v-34.1c0-5.3 0-5.3 5.4-5.1.7 0 1.5.2 2.6.3v16.1c1.4-1.1 2.2-1.6 2.9-2.2 3.8-3.3 8.2-3.5 12.6-1.9 4.2 1.6 5.6 5.1 5.7 9.3.1 6.5.1 13 .2 19.5.1 3.9-2.8 2.5-4.8 2.7-2.2.3-3.5-.2-3.4-3 .2-5.2.1-10.5 0-15.7-.1-5-1.8-7.2-5.6-7.4-4.4-.2-7.1 2.1-7.3 7.1-.3 6.2-.1 12.3-.1 18.9zm55.3-.1c-5.7.8-6.4.6-8.7-2.1-4.3 2.9-9.1 4.1-14.2 2.7-4.3-1.1-6.6-4-6.8-8.3-.2-4.3 1.8-7.5 6.1-8.7 3-.9 6.1-1.1 9.2-1.7 2.4-.5 5.5-.3 5.8-3.5.2-1.4-1.1-4.1-2-4.2-2.8-.3-6.4-.6-8.4.9-4 2.9-3.7 3.4-9.4 2.6-.1-3.7 2-6.1 4.9-7.5 6-3 12.3-2.9 18.5-.5 3.6 1.4 4.9 4.4 4.8 8.1.2 7.2.2 14.5.2 22.2zm-8.7-14.9c-3.1.6-6.4.8-9.3 2.1-1.5.6-2.9 3-3.2 4.7-.4 2.5 1.8 3.5 4.1 3.9 6.3 1 9.8-3.2 8.4-10.7zm32.5 5.9c4.6-.4 7.7-1.7 10 2.5 1.6 3 7.5 3.2 10.2 1.1 2.5-1.9 2-5.2-1.3-6.3-3.5-1.2-7.2-1.9-10.8-3-5.1-1.6-7.2-4.6-6.1-9.2.5-2.2 2.1-4.9 3.9-5.9 5.9-3.2 12.2-3.2 18.3-.2 2.6 1.3 4.5 3.5 4.5 7.1-3.1.2-6.2 1.7-8.6-2.1-1.3-2.1-6.6-2.4-8.7-1-2.1 1.4-2.1 3.8.3 5.1 1.7.9 3.7 1.3 5.6 1.9 2.2.6 4.4 1 6.5 1.7 3.3 1.1 5.8 3.1 6.1 6.8.4 3.6-1 6.6-3.9 8.8-5 3.8-16.5 3.8-21.3-.3-1.6-1.6-2.7-4.2-4.7-7zM132 191.6v-4.2c0-4.7 2.2-6.4 6.7-4.8.7.2 1.3 1.6 1.4 2.5.2 2.1.1 4.2.1 6.6 2.1.2 3.9.4 6.1.6v4.6c-6 1.2-6 1.2-6.1 7.7v6.7c0 5.9 0 5.9 5.8 6.6 1.3 5.5.9 6-4.8 5.9-7.4-.1-9.3-2-9.3-9.4 0-4.6.1-9.2-.1-13.8-.1-1.1-1.2-2.9-2.1-3-2-.3-3.2-.6-3.2-3 0-2.7 1.9-2.4 3.6-2.6.5 0 .9-.1 1.9-.4z"/><path d="M161.7 103c-8.3-1-17.5-5-25.8-11.1-8.7-6.5-15.7-14.6-21.4-23.9-6.1-10-5.6-20 .7-27.1 2.7-3.1 6-3.4 9.5-2.7 1.2.2 2.4 1.8 2.9 3 1.6 3.2 2.6 6.8 4.3 9.9 2.1 3.8 1.2 6.8-1.6 9.4-3.3 3-2.9 5.6-.5 9 5.5 7.7 12.3 13.7 21.1 17.4 2.6 1.1 4.5 1 6.2-1.5.4-.6 1-1.1 1.5-1.7 4.7-5.7 4.7-5.7 11.5-2.4 1.7.8 3.3 1.7 5 2.5 6.2 3 7.1 8.7 2 13.8-3.6 3.6-8.1 5.5-15.4 5.4z"/></symbol><symbol viewBox="0 0 75.4 52.8" id="youtube" xmlns="http://www.w3.org/2000/svg"><path d="M73.8 8.2C73 5 70.4 2.4 67.2 1.6 61.3 0 37.7 0 37.7 0S14.1 0 8.2 1.6C5 2.4 2.4 5 1.6 8.2 0 14.1 0 26.4 0 26.4s0 12.3 1.6 18.1c.9 3.2 3.4 5.8 6.7 6.7 5.9 1.6 29.5 1.6 29.5 1.6s23.6 0 29.5-1.6c3.2-.9 5.8-3.4 6.7-6.7 1.6-5.9 1.6-18.1 1.6-18.1s-.2-12.3-1.8-18.2zM30.2 37.7V15.1l19.6 11.3-19.6 11.3z"/></symbol></svg>