<svg width="23" height="23" viewBox="0 0 23 23" fill="none" xmlns="http://www.w3.org/2000/svg">
<path d="M10.9633 0.0298772C9.72101 0.227389 8.67601 1.09401 8.25227 2.28819C8.11733 2.67341 8.10309 2.75045 8.10309 3.35233C8.10309 3.93973 8.11756 4.04082 8.2427 4.43094C8.58449 5.47593 9.43221 6.29446 10.5349 6.63159C11.0452 6.79058 11.8544 6.79058 12.3648 6.63159C13.4579 6.29446 14.3007 5.49041 14.6569 4.43584C14.8304 3.92058 14.8689 3.18867 14.7485 2.65427C14.5269 1.64313 13.7614 0.708796 12.8224 0.294627C12.273 0.0490212 11.5122 -0.0567384 10.9633 0.0298772ZM11.8348 0.992924C12.7498 1.13744 13.5442 1.86445 13.7849 2.7794C13.8765 3.1212 13.8765 3.64626 13.7849 4.00253C13.4817 5.16776 12.2392 5.97205 11.069 5.76496C10.13 5.5964 9.34513 4.88853 9.114 4.00253C8.82496 2.89007 9.36917 1.71036 10.395 1.21915C10.9054 0.973546 11.3004 0.910977 11.8348 0.992924Z" fill="#00A2D3"/>
<path d="M3.8797 1.93192C2.60847 2.25457 1.67905 3.4247 1.67438 4.7055C1.67438 5.18714 1.75632 5.55298 1.97298 6.00076C2.21368 6.50155 2.73385 7.04576 3.20101 7.29136C4.34709 7.89324 5.68088 7.68615 6.58626 6.7761C7.0051 6.35727 7.21709 5.98629 7.3567 5.44231C7.72745 3.99296 6.91358 2.49528 5.4787 1.9994C5.07878 1.86445 4.28429 1.83083 3.8797 1.93192ZM5.38695 3.00563C5.79622 3.20314 6.19591 3.61731 6.35 4.0121C6.44151 4.23366 6.46066 4.38775 6.46556 4.75359C6.46556 5.1869 6.45599 5.23033 6.28743 5.57702C6.07077 6.01524 5.79155 6.28489 5.34376 6.49665C5.05006 6.63626 4.97792 6.65073 4.56375 6.65073C4.14958 6.65073 4.07744 6.63626 3.78841 6.50155C2.81579 6.03929 2.39672 5.00877 2.78194 4.0121C2.97455 3.50642 3.5428 3.00563 4.09659 2.86602C4.1832 2.84664 4.43371 2.8324 4.65994 2.84197C5.00663 2.85154 5.1173 2.87582 5.38695 3.00563Z" fill="#00A2D3"/>
<path d="M17.647 1.93682C15.7449 2.39418 14.8636 4.57078 15.8845 6.27064C16.0965 6.62224 16.5973 7.08918 16.9729 7.29159C18.8414 8.27868 21.0948 7.00256 21.2106 4.89343C21.3021 3.21761 19.9924 1.8502 18.3116 1.86444C18.0996 1.86444 17.801 1.89806 17.647 1.93682ZM19.1687 3.00563C20.3918 3.6124 20.6325 5.26417 19.626 6.17422C19.5201 6.27064 19.2889 6.41493 19.1108 6.50154C18.8218 6.63649 18.7496 6.65073 18.3354 6.65073C17.9213 6.65073 17.8491 6.63625 17.5601 6.50154C16.7897 6.13547 16.3659 5.43741 16.4236 4.63312C16.4525 4.16128 16.6066 3.79054 16.9003 3.47256C17.3434 2.98625 17.7478 2.81769 18.4123 2.83683C18.793 2.84687 18.8941 2.87092 19.1687 3.00563Z" fill="#00A2D3"/>
<path d="M7.45291 7.75853L7.2073 8.0716L6.35982 8.08118L5.51724 8.09565L5.05031 8.89994C4.79513 9.34773 4.57848 9.7089 4.564 9.7089C4.54953 9.7089 4.3233 9.33816 4.06322 8.89037L3.59138 8.07184H2.49339H1.39027L1.22661 8.27402C0.345275 9.3524 -0.12189 10.9993 0.0275279 12.4871C0.128619 13.4936 0.436793 14.4086 0.932908 15.1596L1.19299 15.5544V17.413C1.19299 18.4725 1.21237 19.3921 1.24108 19.5366C1.35665 20.1385 1.75634 20.6538 2.33417 20.9379L2.66172 21.0969L4.30859 21.1114L5.96036 21.1258V20.6395V20.1579H4.44353C3.0327 20.1579 2.90756 20.153 2.739 20.0664C2.4983 19.9412 2.27183 19.6763 2.20927 19.45C2.17565 19.3345 2.15627 18.4436 2.15627 17.0376V14.8129H1.99728C1.84809 14.8129 1.82405 14.7889 1.63144 14.4518C0.716018 12.8581 0.740065 10.8547 1.68887 9.28493L1.83805 9.03442H2.44483L3.04671 9.03932L3.7931 10.3348C4.20236 11.0523 4.54906 11.635 4.56353 11.635C4.57801 11.635 4.92471 11.0523 5.33397 10.3348L6.08036 9.03465H6.37896H6.68224L6.58114 9.28516C6.41749 9.68976 6.30659 10.0652 6.19102 10.59C6.05141 11.2449 6.04184 12.627 6.16698 13.3204C6.34044 14.2402 6.77375 15.2948 7.25049 15.9688L7.47672 16.2819L7.50077 18.7377C7.52481 21.1889 7.52481 21.1935 7.64038 21.4826C7.79447 21.8678 7.94855 22.1038 8.20864 22.3541C8.47829 22.6189 9.0225 22.8887 9.40281 22.9513C9.87955 23.0284 13.1924 23.0092 13.5826 22.9273C14.4636 22.7396 15.186 22.0076 15.3499 21.1263C15.3788 20.9771 15.398 19.9032 15.398 18.603V16.3349L15.634 15.9978C16.1444 15.2563 16.549 14.2594 16.7271 13.2963C16.8476 12.651 16.8522 11.3123 16.732 10.72C16.6405 10.2433 16.4673 9.651 16.3227 9.28516L16.2167 9.03465H16.52L16.8186 9.03955L17.565 10.3348C17.9743 11.0523 18.321 11.635 18.3354 11.635C18.3499 11.635 18.6966 11.0523 19.1059 10.3348L19.8523 9.03955L20.4541 9.03465H21.0609L21.2101 9.28516C22.0865 10.7345 22.1732 12.6125 21.4461 14.1149C21.1718 14.6782 21.0609 14.8132 20.8877 14.8132H20.7481L20.7336 17.1343C20.7191 19.6816 20.7287 19.5901 20.4205 19.8791C20.1413 20.1488 20.0594 20.1584 18.4319 20.1584H16.9391V20.64V21.1263L18.5909 21.1118L20.2377 21.0974L20.5653 20.9384C21.1576 20.6447 21.5379 20.1486 21.6537 19.5131C21.6873 19.3349 21.7067 18.5115 21.7067 17.3799V15.5355L21.9233 15.2178C22.3375 14.6159 22.6553 13.8261 22.8189 12.9786C22.9104 12.5163 22.896 11.2162 22.7949 10.7443C22.5974 9.83894 22.2556 9.05403 21.7788 8.41853L21.5381 8.09588H20.4161H19.2889L18.8267 8.90017C18.5715 9.34796 18.3499 9.70913 18.3354 9.70913C18.321 9.70913 18.0994 9.34796 17.8442 8.90017L17.382 8.09588L16.5394 8.08141L15.6919 8.07184L15.4463 7.75876L15.1958 7.44568L13.9391 7.45525L12.6774 7.46973L12.0755 8.51472C11.7433 9.09232 11.4641 9.56438 11.4496 9.56438C11.4351 9.56438 11.1559 9.09255 10.8237 8.51472L10.2218 7.46973L8.96016 7.45525L7.70342 7.44568L7.45291 7.75853ZM10.5396 9.9496C11.0259 10.7971 11.4351 11.4905 11.4496 11.4905C11.4641 11.4905 11.8733 10.7971 12.3597 9.9496L13.241 8.40873H13.997H14.748L14.9261 8.68795C16.1444 10.6094 16.1927 13.2289 15.0321 15.1503C14.801 15.5306 14.7721 15.5596 14.6084 15.574L14.4352 15.5885V18.2274C14.4352 21.1935 14.4352 21.184 14.098 21.5692C13.992 21.6897 13.7994 21.8388 13.6743 21.9014C13.4478 22.0121 13.4478 22.0121 11.4496 22.0121C9.45114 22.0121 9.45114 22.0121 9.22491 21.9014C9.09977 21.8388 8.90716 21.6894 8.80117 21.5692C8.46405 21.184 8.46405 21.1935 8.46405 18.2225V15.5836H8.30039C8.1463 15.5836 8.11735 15.5596 7.91517 15.2273C7.00022 13.7633 6.77375 11.7987 7.31796 10.0939C7.48162 9.5882 7.7947 8.92866 8.02583 8.61068L8.17502 8.4085H8.9165H9.65332L10.5396 9.9496Z" fill="#00A2D3"/>
</svg>
