<svg width="22" height="20" viewBox="0 0 22 20" fill="none" xmlns="http://www.w3.org/2000/svg">
<path d="M10.2621 3.45455H18.0348C19.7722 3.45455 21.2353 4.76364 21.2353 6.31818C21.2353 7.87273 19.7722 9.18182 18.0348 9.18182H6.60431C3.58666 9.18182 1.11768 11.3909 1.11768 14.0909C1.11768 16.7909 3.58666 19 6.60431 19H13.9198M21.2353 14.8273C21.2353 13.5182 20.0466 12.4545 18.492 12.4545C16.9375 12.4545 15.7487 13.5182 15.7487 14.8273C15.7487 16.6273 18.492 19 18.492 19C18.492 19 21.2353 16.6273 21.2353 14.8273ZM6.60431 3.45455C6.60431 4.81015 5.37608 5.90909 3.86099 5.90909C2.3459 5.90909 1.11768 4.81015 1.11768 3.45455C1.11768 2.09894 2.3459 1 3.86099 1C5.37608 1 6.60431 2.09894 6.60431 3.45455Z" stroke="white" stroke-width="1.3" stroke-miterlimit="10" stroke-linecap="round" stroke-linejoin="round"/>
</svg>
