<svg xmlns="http://www.w3.org/2000/svg" xml:space="preserve" fill="#0099b9" style="enable-background:new 0 0 62.1 51.4" viewBox="0 0 62.1 51.4"><path d="M4.3 22.1c16.7-7.3 27.8-12 33.3-14.4C53.5 1.2 56.8 0 58.9 0c.5 0 1.5.1 2.2.7.6.5.7 1.1.8 1.5.1.5.2 1.5.1 2.3-.9 9-4.6 31-6.5 41.1-.8 4.3-2.4 5.7-3.9 5.9-3.3.3-5.8-2.2-9.1-4.3-5-3.3-7.9-5.4-12.8-8.6-5.6-3.7-2-5.8 1.2-9.1.8-.9 15.5-14.2 15.7-15.4 0-.2.1-.7-.3-1s-.8-.2-1.2-.1c-.5.1-8.5 5.4-24.1 15.9-2.3 1.6-4.3 2.3-6.2 2.3-2 0-6-1.2-8.9-2.1-3.6-1.2-6.4-1.8-6.2-3.8.4-1 1.9-2.1 4.6-3.2z" style="fill-rule:evenodd;clip-rule:evenodd"/></svg>