<svg xmlns="http://www.w3.org/2000/svg" xml:space="preserve" fill="#fff" style="enable-background:new 0 0 290.4 234.7" viewBox="0 0 290.4 234.7"><path d="M75.4 140.3c3-11 5.8-21.4 8.7-31.7.7-2.6.7-4.7-.6-7.1C59.9 55 93.3.3 145.4 0c28.5-.1 54.9 18.1 65.1 44.8 10.3 27.1 2.7 58.1-18.9 77-21.8 19-51 22.9-77 10.5-1.7-.8-4.1-.9-6-.5-9.7 2.4-19.3 5-29 7.6-1.2.3-2.4.5-4.2.9zm15.9-15.6c6.6-1.7 12.4-3 18.1-4.7 2.8-.8 5.2-.7 7.8.9 6.8 4.1 14.4 6.5 22.3 7.1 24.5 1.7 44-7.6 56.3-29 12.3-21.3 11-43-3-63.2-21.4-31-67.8-32.8-91.9-3.9-16.4 19.6-18.6 45.7-5.7 67.8 1.4 2.3 1.8 4.4 1 7-1.8 5.6-3.1 11.3-4.9 18zM16.8 209c2.2-8.4 4.5-16.8 6.4-25.3.7-3.1 2.1-4 5.1-3.9 2.8.1 4.9 0 5.6 3.7 1.4 7.2 3.4 14.3 5.2 21.5.4 1.5.8 3 2.1 4.6.8-3.3 1.7-6.5 2.5-9.8 1.2-5.1 2.7-10.2 3.5-15.3.6-3.8 2.4-5.1 6-4.6 1.1.2 2.2.1 3.8.2-.2 1.3-.4 2.3-.7 3.4-3.3 12.3-6.8 24.5-9.8 36.9-1 4.1-3.5 3.2-6.2 3.4-2.7.2-4.3-.5-5-3.5-1.7-7.8-3.8-15.5-5.8-23.3-.2-.8-.5-1.6-1.6-2.4-1.1 4.2-2.2 8.5-3.2 12.7-1.1 4.5-2.2 9-3.2 13.5-.5 2.2-1.5 3.1-3.8 3-7.3-.3-6 1.1-7.9-5.9-3-11.2-5.9-22.4-8.9-33.7-.3-1.2-.5-2.4-1-4.3 2.7 0 5.1-.3 7.3.2 1 .2 2 2 2.3 3.2 1.9 7.6 3.6 15.3 5.4 23 .2.9.6 1.8.8 2.8.5-.1.8-.1 1.1-.1zM178.5 223.7c.7-2 1.1-3.4 1.6-4.8 4.5-11.9 9.1-23.8 13.5-35.8.9-2.5 2.2-3.7 4.9-3.3 2.7.4 5.8-1.2 7.3 3.1 4.4 12.6 9.3 25.1 14 37.6.3.8.5 1.6.9 3.1-2.9 0-5.5.3-8-.1-.9-.1-1.8-1.8-2.3-3-3-8-.7-6.5-9.5-6.7h-1.1c-8.3 0-8.2 0-11.6 7.6-.4 1-1.8 1.9-2.9 2.1-2.1.4-4.2.2-6.8.2zm14.9-16.9h12.2c-2-5.6-3.8-10.8-5.6-15.9-.4 0-.7.1-1.1.1-1.8 5.1-3.5 10.2-5.5 15.8zM223.3 192.6c5.9-1.4 7-1 8.1 2.9 3.8-3.8 8.1-5.1 13.3-3.8 7.3 1.9 11.7 10.3 10.2 19.8-1.2 8-6.7 13.4-13.9 12.8-3.1-.2-6.2-2-9.6-3.2v13.5h-8.1v-42zm23.8 15.5c-.4-1.7-.6-3.8-1.3-5.8-1.1-3.1-3.3-4.9-6.8-4.9-3.6-.1-6.5 1.5-7.1 4.8-.6 3.8-.6 7.9.2 11.7.7 3.4 3.8 4.8 7.3 4.6 3.3-.2 5.6-2 6.6-5.2.5-1.5.7-3.1 1.1-5.2zM258.2 234.7c0-13.6 0-26.9.1-40.1 0-.8 1.3-2.3 2-2.3 2.5-.2 5.7-1.4 6 2.2 3.2-1.1 6.2-2.9 9.3-3.2 5.4-.5 9.7 2 12.3 6.9 2.9 5.6 3.2 11.5.9 17.4-3.4 8.9-12.9 11.4-20.4 5.6-.4-.3-.8-.5-2.1-1.3v14.7c-2.8.1-5.2.1-8.1.1zm7.5-26.9c.6 2.3.9 4.7 1.9 6.7 2.4 5 9.5 5.3 12.7.7 2.5-3.8 2.6-11.4-.4-14.9-1.2-1.4-3.4-2.7-5.3-2.9-5.3-.5-8.4 3.3-8.9 10.4zM68.4 223.5h-8c-.1-1.6-.2-3.1-.2-4.5v-34.1c0-5.3 0-5.3 5.4-5.1.7 0 1.5.2 2.6.3v16.1c1.4-1.1 2.2-1.6 2.9-2.2 3.8-3.3 8.2-3.5 12.6-1.9 4.2 1.6 5.6 5.1 5.7 9.3.1 6.5.1 13 .2 19.5.1 3.9-2.8 2.5-4.8 2.7-2.2.3-3.5-.2-3.4-3 .2-5.2.1-10.5 0-15.7-.1-5-1.8-7.2-5.6-7.4-4.4-.2-7.1 2.1-7.3 7.1-.3 6.2-.1 12.3-.1 18.9zM123.7 223.4c-5.7.8-6.4.6-8.7-2.1-4.3 2.9-9.1 4.1-14.2 2.7-4.3-1.1-6.6-4-6.8-8.3-.2-4.3 1.8-7.5 6.1-8.7 3-.9 6.1-1.1 9.2-1.7 2.4-.5 5.5-.3 5.8-3.5.2-1.4-1.1-4.1-2-4.2-2.8-.3-6.4-.6-8.4.9-4 2.9-3.7 3.4-9.4 2.6-.1-3.7 2-6.1 4.9-7.5 6-3 12.3-2.9 18.5-.5 3.6 1.4 4.9 4.4 4.8 8.1.2 7.2.2 14.5.2 22.2zm-8.7-14.9c-3.1.6-6.4.8-9.3 2.1-1.5.6-2.9 3-3.2 4.7-.4 2.5 1.8 3.5 4.1 3.9 6.3 1 9.8-3.2 8.4-10.7zM147.5 214.4c4.6-.4 7.7-1.7 10 2.5 1.6 3 7.5 3.2 10.2 1.1 2.5-1.9 2-5.2-1.3-6.3-3.5-1.2-7.2-1.9-10.8-3-5.1-1.6-7.2-4.6-6.1-9.2.5-2.2 2.1-4.9 3.9-5.9 5.9-3.2 12.2-3.2 18.3-.2 2.6 1.3 4.5 3.5 4.5 7.1-3.1.2-6.2 1.7-8.6-2.1-1.3-2.1-6.6-2.4-8.7-1-2.1 1.4-2.1 3.8.3 5.1 1.7.9 3.7 1.3 5.6 1.9 2.2.6 4.4 1 6.5 1.7 3.3 1.1 5.8 3.1 6.1 6.8.4 3.6-1 6.6-3.9 8.8-5 3.8-16.5 3.8-21.3-.3-1.6-1.6-2.7-4.2-4.7-7zM132 191.6v-4.2c0-4.7 2.2-6.4 6.7-4.8.7.2 1.3 1.6 1.4 2.5.2 2.1.1 4.2.1 6.6 2.1.2 3.9.4 6.1.6v4.6c-6 1.2-6 1.2-6.1 7.7v6.7c0 5.9 0 5.9 5.8 6.6 1.3 5.5.9 6-4.8 5.9-7.4-.1-9.3-2-9.3-9.4 0-4.6.1-9.2-.1-13.8-.1-1.1-1.2-2.9-2.1-3-2-.3-3.2-.6-3.2-3 0-2.7 1.9-2.4 3.6-2.6.5 0 .9-.1 1.9-.4z"/><path d="M161.7 103c-8.3-1-17.5-5-25.8-11.1-8.7-6.5-15.7-14.6-21.4-23.9-6.1-10-5.6-20 .7-27.1 2.7-3.1 6-3.4 9.5-2.7 1.2.2 2.4 1.8 2.9 3 1.6 3.2 2.6 6.8 4.3 9.9 2.1 3.8 1.2 6.8-1.6 9.4-3.3 3-2.9 5.6-.5 9 5.5 7.7 12.3 13.7 21.1 17.4 2.6 1.1 4.5 1 6.2-1.5.4-.6 1-1.1 1.5-1.7 4.7-5.7 4.7-5.7 11.5-2.4 1.7.8 3.3 1.7 5 2.5 6.2 3 7.1 8.7 2 13.8-3.6 3.6-8.1 5.5-15.4 5.4z"/></svg>