<svg xmlns="http://www.w3.org/2000/svg" xml:space="preserve" fill="#0099b9" style="enable-background:new 0 0 50.5 50.8" viewBox="0 0 50.5 50.8"><path d="m0 50.8 3.6-13C1.4 34 .2 29.7.2 25.2.2 11.3 11.5 0 25.3 0c6.7 0 13 2.6 17.8 7.4 4.7 4.8 7.4 11.1 7.4 17.8 0 13.9-11.3 25.1-25.1 25.1-4.2 0-8.3-1.1-12-3.1L0 50.8zm13.9-8.1.8.5c3.2 1.9 6.9 2.9 10.6 2.9 11.5 0 20.9-9.4 20.9-20.9 0-5.6-2.2-10.8-6.1-14.8-3.9-3.9-9.2-6.1-14.8-6.1-11.5 0-20.9 9.4-20.9 20.9 0 3.9 1.1 7.8 3.2 11.1l.5.8L6 44.8l7.9-2.1z"/><path d="M38 31.2c-.2-.3-.6-.4-1.2-.7-.6-.3-3.7-1.8-4.3-2-.6-.2-1-.3-1.4.3-.4.6-1.6 2-2 2.5-.4.4-.7.5-1.4.2-.6-.3-2.7-1-5.1-3.1-1.9-1.7-3.1-3.7-3.5-4.4-.4-.6 0-1 .3-1.3.3-.3.6-.7.9-1.1.3-.4.4-.6.6-1 .2-.4.1-.8-.1-1.1-.2-.3-1.4-3.4-1.9-4.7-.5-1.2-1-1.1-1.4-1.1h-1.2c-.4 0-1.1.2-1.7.8-.6.6-2.2 2.1-2.2 5.2s2.3 6.1 2.6 6.5c.3.4 4.4 6.8 10.7 9.5 1.5.6 2.7 1 3.6 1.3 1.5.5 2.9.4 4 .2 1.2-.2 3.7-1.5 4.2-3 .7-1.5.7-2.8.5-3z" style="fill-rule:evenodd;clip-rule:evenodd"/></svg>