<svg width="22" height="22" viewBox="0 0 22 22" fill="none" xmlns="http://www.w3.org/2000/svg">
<path d="M10.9548 1C5.43439 1 1 5 1 10C1 12.5455 2.17647 14.8182 3.98643 16.4545L3.17195 19.5455C2.99095 20.2727 3.53394 21 4.25792 21C4.52941 21 4.71041 20.9091 4.9819 20.7273L7.51584 18.4545C8.60181 18.8182 9.77828 19 11.0452 19C16.5656 19 21 15 21 10C20.9095 5 16.4751 1 10.9548 1Z" stroke="#00A2D3" stroke-width="2" stroke-miterlimit="10" stroke-linecap="round" stroke-linejoin="round"/>
<path d="M10.6416 13.8888L12.2692 12.2566C12.6309 11.8939 13.083 11.8939 13.4446 12.0753L14.5297 12.71C15.0722 13.0727 15.1626 13.7981 14.7105 14.2515C14.2584 14.7049 13.7159 14.8862 13.1734 14.9769C12.6309 15.0676 11.9979 14.8862 11.5458 14.5235C11.2745 14.3422 10.9129 14.1608 10.6416 13.8888ZM10.6416 13.8888C9.37571 12.8914 8.20024 11.7126 7.20561 10.4431M7.20561 10.4431L8.83318 8.81095C9.19487 8.44824 9.19487 7.99487 9.01402 7.63216L8.29066 6.45338C8.29066 6.45338 8.20024 6.3627 8.10982 6.27203C7.74813 5.90932 7.11519 5.90932 6.75351 6.27203C5.8493 7.17878 5.75888 8.44824 6.48224 9.53635C6.75351 9.89905 6.93435 10.1711 7.20561 10.4431Z" stroke="#00A2D3" stroke-width="2" stroke-miterlimit="10" stroke-linecap="round" stroke-linejoin="round"/>
</svg>
