<svg width="22" height="19" viewBox="0 0 22 19" fill="none" xmlns="http://www.w3.org/2000/svg">
<path d="M22 3.35331C22 2.53925 21.5684 2.1195 20.7686 2.1195C20.3878 2.1195 19.9942 2.1195 19.6134 2.1195H19.1818C19.1818 2.09406 19.1691 2.06862 19.1691 2.04318C19.1437 1.90326 19.131 1.77606 19.0929 1.64886C18.8898 0.822078 18.382 0.300568 17.6076 0.0970511C17.1252 -0.0301467 16.6047 -0.0301467 16.0208 0.0843313C14.9925 0.287848 13.9896 0.694881 12.9613 1.34359C12.7328 1.49623 12.5932 1.53439 12.4155 1.39447C12.3774 1.36903 12.352 1.35631 12.3266 1.34359H12.3139C11.6411 1.07647 10.9429 1.14007 10.3335 1.20367C10.0289 1.22911 9.74957 1.35631 9.47028 1.47079L9.34334 1.52167C9.25447 1.55983 9.22908 1.55983 9.15291 1.52167L8.91171 1.38175C8.54357 1.16551 8.15003 0.936556 7.75649 0.758479C6.61396 0.224249 5.69994 -0.00470712 4.77323 0.0334522C3.80842 0.046172 3.08482 0.580403 2.80554 1.47079C2.75476 1.63614 2.72937 1.81422 2.69129 1.97958C2.67859 2.03046 2.67859 2.06862 2.6659 2.1195H2.53895C2.36122 2.1195 2.1835 2.1195 1.99308 2.1195C1.89152 2.1195 1.78996 2.1195 1.6884 2.1195C1.53606 2.1195 1.37103 2.1195 1.2187 2.1195C0.444316 2.1195 0 2.56469 0 3.34059V3.79851C0 4.89241 0 5.99903 0 7.11837C0 7.80524 0.469706 8.26315 1.15522 8.26315C1.30756 8.26315 1.4472 8.26315 1.61223 8.26315H1.71379V10.9089C1.71379 13.262 1.71379 15.6152 1.71379 17.9683C1.71379 18.2863 1.81535 18.5534 1.99308 18.7315C2.1708 18.9096 2.412 18.9986 2.70398 18.9986H3.54184C4.27813 18.9986 5.00173 18.9986 5.73803 18.9986C7.59146 18.9986 9.44489 18.9986 11.2983 18.9986H13.7738C15.4495 18.9986 17.1379 18.9986 18.8136 18.9986C18.8771 18.9986 18.9406 18.9986 18.9913 18.9986C19.0929 18.9986 19.1945 18.9859 19.2833 18.9986C19.5499 19.0114 19.7911 18.935 19.9815 18.7697C20.1847 18.5789 20.2989 18.2863 20.2989 17.9683C20.2989 15.5897 20.2989 13.173 20.2989 10.8325V8.27587H20.7813C21.5684 8.27587 22 7.84339 22 7.06749C22 6.1135 22 5.1468 22 4.19282V3.35331ZM20.9463 7.10565C20.9463 7.15653 20.9336 7.18197 20.9336 7.18197C20.9336 7.18197 20.9083 7.19469 20.8575 7.19469H18.8898C19.2072 6.5587 19.1437 5.92271 19.0421 5.43936C18.9025 4.73977 18.9279 4.00202 19.131 3.18796C19.3214 3.18796 19.4991 3.18796 19.6896 3.18796C20.0704 3.18796 20.4512 3.18796 20.8321 3.18796C20.9083 3.18796 20.9336 3.20068 20.9336 3.20068C20.9336 3.20068 20.9463 3.2134 20.9463 3.27699C20.9463 4.54897 20.9463 5.83367 20.9463 7.10565ZM12.809 4.19282C12.7963 4.26914 12.7963 4.33274 12.7836 4.40906C12.7582 4.65073 12.7328 4.89241 12.644 5.09592C12.4028 5.74463 11.8442 5.89727 11.4253 5.90999C11.0444 5.92271 10.7017 5.90999 10.3843 5.88455C9.74957 5.83367 9.24178 5.274 9.21639 4.63801C9.20369 4.2437 9.20369 3.87482 9.21639 3.51867C9.24178 2.80636 9.80035 2.28485 10.562 2.23397C10.6636 2.23397 10.7778 2.22125 10.8794 2.22125C11.1206 2.22125 11.3364 2.23397 11.5395 2.24669C12.2504 2.29757 12.7455 2.84452 12.7709 3.62043C12.7709 3.72219 12.7709 3.82395 12.7709 3.93842V4.19282H12.809ZM7.61685 9.91672C7.38834 9.73864 7.10906 9.6496 6.79169 9.6496C6.67744 9.6496 6.56319 9.66232 6.44893 9.68776C6.32199 9.7132 6.16965 9.70048 6.01731 9.70048C6.00462 9.70048 5.97923 9.70048 5.96653 9.70048C6.10617 9.38249 6.32198 9.11537 6.55049 8.82282C7.28679 7.91971 8.11195 7.15653 9.01327 6.5587C9.10214 6.50782 9.12752 6.50782 9.20369 6.5587C9.54645 6.80037 9.9146 6.94029 10.3081 6.96573C10.3335 6.96573 10.3589 6.96573 10.3843 6.97845C10.3462 7.06749 10.3081 7.15653 10.2701 7.23285C10.1431 7.49996 10.0289 7.7798 9.9019 8.03419C9.44489 8.95002 8.97519 9.87856 8.51818 10.7689C8.40392 10.9979 8.28967 11.2269 8.17542 11.4431C8.15003 11.2905 8.13733 11.1378 8.12464 10.9725C8.09925 10.5273 7.92152 10.1584 7.61685 9.91672ZM5.58569 8.28859C5.47144 8.44122 5.34449 8.60658 5.25563 8.78466C5.11598 9.03905 4.93826 9.36977 4.8367 9.72592C4.77323 9.94216 4.79862 10.1711 4.91287 10.3492C5.02712 10.5273 5.20485 10.6545 5.43335 10.6926C5.83958 10.7562 6.23312 10.7689 6.61396 10.7435C6.95672 10.7181 7.03289 10.7689 7.05828 11.0997C7.09636 11.5194 7.17253 11.9773 7.27409 12.5116C7.31218 12.6769 7.38834 12.8423 7.54068 13.0331C7.65493 13.173 7.81997 13.262 7.99769 13.2875C8.18811 13.3002 8.36584 13.2366 8.51818 13.1094L8.53087 13.0967V17.9302H2.79284V8.27587L5.58569 8.28859C5.59838 8.28859 5.59838 8.28859 5.58569 8.28859ZM9.60992 11.1505C9.60992 11.0233 9.64801 10.8707 9.71148 10.7435C10.0669 10.0185 10.4478 9.29345 10.8032 8.58114L11.0063 8.17411L11.2095 8.5557C11.5903 9.29345 11.9838 10.0439 12.3647 10.7817C12.3901 10.8453 12.4155 10.9089 12.4155 10.9597C12.4155 13.1475 12.4155 15.3353 12.4155 17.5231V17.892H9.59723V16.4674C9.59723 14.7375 9.59723 12.9313 9.60992 11.1505ZM16.0335 9.7132C15.8938 9.7132 15.7669 9.72592 15.6399 9.70048C15.1194 9.61144 14.7259 9.67504 14.4339 9.904C14.142 10.133 13.9642 10.5018 13.9134 11.0361L13.9008 11.176C13.8881 11.265 13.8881 11.3541 13.8754 11.4304C13.5834 10.7435 13.2279 10.0821 12.8852 9.43337C12.4662 8.63202 12.0219 7.81796 11.6919 6.95301C12.1616 6.90213 12.5551 6.74949 12.8852 6.4951C14.2435 7.32188 15.3353 8.39035 16.1096 9.70048C16.0716 9.7132 16.0462 9.7132 16.0335 9.7132ZM13.4818 13.0712C13.6595 13.2239 13.8754 13.3002 14.0785 13.2747C14.307 13.2366 14.4847 13.0967 14.5863 12.8677C14.7259 12.5497 14.8021 12.1936 14.8782 11.8501L14.9036 11.7229C14.9417 11.5448 14.9544 11.3668 14.9671 11.2014C14.9798 11.0997 14.9798 11.0106 14.9925 10.9089C15.0052 10.7817 15.056 10.7053 15.2591 10.7181C15.3353 10.7181 15.4241 10.7308 15.5003 10.7308C15.678 10.7435 15.8684 10.7562 16.0589 10.7562C16.1985 10.7562 16.3508 10.7435 16.5286 10.7053C16.7825 10.6417 16.9856 10.5145 17.0998 10.3238C17.2141 10.1202 17.2395 9.87856 17.1633 9.59872C17.0237 9.10265 16.7317 8.69562 16.4397 8.30131L16.4143 8.26315H19.2072V17.9047H13.4818V13.0712ZM8.39123 5.63015C8.30237 5.69375 8.2135 5.74463 8.11195 5.80823C7.84536 5.98631 7.57877 6.16438 7.29948 6.31702C6.60127 6.69861 6.00462 6.92757 5.42066 7.05477C5.00173 7.13109 4.67167 7.13109 4.37969 7.04205C4.02424 6.92757 3.82112 6.66046 3.83381 6.31702C3.84651 5.94815 3.88459 5.54112 3.96076 5.10864C4.04962 4.49809 3.96076 3.91298 3.84651 3.27699C3.77034 2.88268 3.69417 2.43749 3.77034 1.9923C3.8719 1.39447 4.22735 1.07647 4.77323 1.07647C4.79861 1.07647 4.81131 1.07647 4.8367 1.07647C5.24293 1.08919 5.68725 1.15279 6.23312 1.27999C6.89325 1.43263 7.94691 1.95414 8.49279 2.33573C8.06117 3.25156 8.02308 4.61257 8.39123 5.63015ZM17.9885 3.48051L17.9504 3.65859C17.8615 4.16738 17.8488 4.71433 17.9377 5.36304C17.9885 5.71919 18.0012 6.10079 18.0012 6.48238C18.0012 6.71133 17.8615 6.88941 17.5695 7.01661C17.176 7.19469 16.7825 7.14381 16.3001 7.02933C15.386 6.81309 14.5609 6.40606 13.85 5.83367C13.7738 5.77007 13.6976 5.71919 13.6215 5.66831C13.6088 5.65559 13.5961 5.65559 13.5961 5.64287C14.015 4.52353 13.9642 3.25156 13.4564 2.27213C13.5326 2.23397 13.6088 2.18309 13.6849 2.14493C13.9261 2.00502 14.18 1.8651 14.4339 1.75062C14.9163 1.55983 15.5511 1.31815 16.2112 1.15279C16.5159 1.07647 16.8713 1.06375 17.2902 1.12735C17.8615 1.20367 18.0392 1.66158 18.09 2.03046C18.1662 2.51381 18.0773 2.98444 17.9885 3.48051ZM1.06636 3.32787C1.06636 3.23884 1.07905 3.2134 1.07905 3.2134C1.07905 3.2134 1.10444 3.20068 1.18061 3.20068H1.19331C1.57415 3.2134 1.95499 3.20068 2.36122 3.20068C2.48817 3.20068 2.61512 3.20068 2.74207 3.20068C2.75476 3.26428 2.76746 3.34059 2.78015 3.40419C2.81823 3.63315 2.85632 3.8621 2.8944 4.09106C2.97057 4.45993 2.9071 4.82881 2.85632 5.2104C2.83093 5.3376 2.81823 5.4648 2.80554 5.59199C2.74207 6.13894 2.70398 6.67317 2.98327 7.19469H2.62781C2.12002 7.19469 1.62493 7.19469 1.12983 7.19469C1.09175 7.19469 1.07905 7.19469 1.07905 7.06749C1.07905 6.77493 1.07905 6.46966 1.07905 6.1771C1.07905 5.97359 1.07905 5.77007 1.07905 5.56655C1.07905 5.3376 1.07905 5.10864 1.07905 4.87969C1.06636 4.35818 1.06636 3.83667 1.06636 3.32787Z" fill="white"/>
</svg>
